{"glyphs":{"0":{"ha":799,"x_min":60,"x_max":740,"o":"m 400 888 q 535 862 472 888 q 643 782 597 836 q 715 642 689 728 q 740 438 740 557 q 713 233 740 318 q 638 93 685 147 q 529 13 590 39 q 400 -12 468 -12 q 265 13 326 -12 q 157 93 203 39 q 85 233 111 147 q 60 438 60 318 q 88 636 60 551 q 162 777 115 721 q 270 860 208 833 q 400 888 332 888 m 188 438 q 206 259 188 328 q 253 151 224 190 q 321 98 282 113 q 401 83 360 83 q 481 99 443 83 q 549 156 519 115 q 595 265 578 197 q 613 438 613 333 q 594 615 613 546 q 547 724 576 685 q 479 777 518 763 q 399 792 440 792 q 319 776 357 792 q 251 719 281 760 q 205 610 222 678 q 188 438 188 542 z "},"1":{"ha":506,"x_min":76,"x_max":381,"o":"m 292 875 l 381 875 l 381 0 l 261 0 l 261 747 l 104 675 l 76 776 l 292 875 z "},"2":{"ha":671,"x_min":63,"x_max":611,"o":"m 311 788 q 226 772 267 788 q 138 719 186 757 l 83 801 q 202 871 146 854 q 311 888 258 888 q 435 867 383 888 q 522 813 488 847 q 574 731 557 778 q 590 628 590 683 q 569 526 590 578 q 510 419 549 474 q 418 305 472 364 q 296 181 364 246 l 214 101 l 611 101 l 611 0 l 85 0 l 63 88 l 178 203 q 309 339 254 279 q 399 449 364 399 q 449 540 433 499 q 465 624 465 582 q 427 741 465 694 q 311 788 389 788 z "},"3":{"ha":681,"x_min":58,"x_max":593,"o":"m 74 822 q 186 873 128 858 q 297 888 244 888 q 405 871 356 888 q 489 824 454 854 q 543 753 524 794 q 563 664 563 713 q 520 528 563 582 q 417 451 478 474 q 543 378 493 435 q 593 243 593 322 q 565 124 593 172 q 493 45 538 75 q 392 1 449 15 q 278 -12 336 -12 q 161 -1 219 -12 q 58 31 103 10 l 86 125 q 131 109 110 117 q 174 97 151 101 q 220 89 196 92 q 276 86 244 86 q 345 94 311 86 q 406 122 379 103 q 449 172 432 142 q 465 246 465 201 q 451 314 465 285 q 410 361 436 343 q 350 388 385 379 q 274 397 315 397 l 169 397 l 169 492 l 250 492 q 384 531 331 492 q 438 650 438 569 q 426 705 438 679 q 394 749 414 731 q 347 779 374 768 q 288 790 319 790 q 204 779 243 790 q 113 738 165 768 l 74 822 z "},"4":{"ha":744,"x_min":28,"x_max":696,"o":"m 449 875 l 558 875 l 558 324 l 696 324 l 696 222 l 558 222 l 558 0 l 444 0 l 444 222 l 28 222 l 28 299 l 449 875 m 165 324 l 444 324 l 444 565 l 451 740 l 449 740 l 381 622 l 165 324 z "},"5":{"ha":718,"x_min":88,"x_max":625,"o":"m 593 878 l 593 776 l 269 774 l 243 543 q 281 548 260 546 q 325 550 301 550 q 430 536 376 550 q 526 491 483 522 q 597 409 569 460 q 625 285 625 358 q 603 168 625 222 q 537 74 581 114 q 428 10 493 33 q 279 -12 364 -12 q 179 -1 231 -12 q 88 29 128 10 l 115 128 q 190 100 149 111 q 276 89 232 89 q 440 137 382 89 q 497 281 497 185 q 481 360 497 326 q 437 417 465 394 q 369 450 408 439 q 285 461 331 461 q 208 456 247 461 q 129 443 169 451 l 172 875 l 593 878 z "},"6":{"ha":728,"x_min":63,"x_max":679,"o":"m 438 888 q 606 860 532 888 l 576 761 q 514 781 547 774 q 442 789 481 789 q 335 766 381 789 q 258 703 289 743 q 209 606 226 663 q 190 481 192 549 q 284 552 229 529 q 397 575 339 575 q 507 556 456 575 q 597 501 558 538 q 657 411 635 464 q 679 290 679 358 q 656 165 679 221 q 592 70 633 110 q 496 9 551 31 q 374 -12 440 -12 q 258 10 314 -12 q 159 83 203 33 q 89 212 115 133 q 63 401 63 290 q 94 628 63 536 q 177 778 125 721 q 297 862 229 836 q 438 888 364 888 m 190 319 q 203 226 190 269 q 242 151 217 183 q 301 101 267 119 q 378 82 336 82 q 451 97 418 82 q 507 140 483 113 q 544 206 531 168 q 557 288 557 243 q 507 432 557 386 q 374 478 457 478 q 269 449 311 478 q 204 381 226 419 q 193 350 196 365 q 190 319 190 335 z "},"7":{"ha":688,"x_min":79,"x_max":624,"o":"m 624 875 l 624 789 l 246 -25 l 142 21 l 501 774 l 79 774 l 79 875 l 624 875 z "},"8":{"ha":701,"x_min":53,"x_max":649,"o":"m 353 888 q 472 869 421 888 q 557 821 522 851 q 609 751 592 790 q 626 669 626 713 q 585 551 626 607 q 460 463 544 496 q 602 370 556 422 q 649 236 649 318 q 626 129 649 175 q 565 51 604 83 q 471 3 525 19 q 353 -12 417 -12 q 235 4 290 -12 q 140 51 181 21 q 76 126 100 82 q 53 225 53 169 q 97 361 53 310 q 233 453 140 413 q 122 537 163 485 q 82 657 82 589 q 99 744 82 703 q 149 818 115 786 q 234 869 183 850 q 353 888 285 888 m 197 664 q 210 607 197 632 q 245 563 224 582 q 296 530 267 544 q 357 504 325 515 q 417 532 389 517 q 465 567 444 547 q 498 612 486 588 q 510 667 510 636 q 497 719 510 696 q 463 760 485 743 q 413 787 442 778 q 353 796 385 796 q 285 785 314 796 q 236 756 256 774 q 207 713 217 738 q 197 664 197 689 m 342 408 q 222 344 268 385 q 176 229 176 303 q 220 126 176 171 q 353 82 264 82 q 426 94 393 82 q 481 126 458 106 q 515 174 503 147 q 526 229 526 200 q 513 292 526 264 q 474 342 499 321 q 415 381 449 364 q 342 408 381 397 z "},"9":{"ha":718,"x_min":53,"x_max":656,"o":"m 286 -12 q 180 -3 224 -12 q 104 21 136 6 l 133 119 q 195 97 163 107 q 282 86 228 86 q 464 163 404 86 q 528 388 524 240 q 440 324 493 347 q 328 300 386 300 q 219 319 269 300 q 131 374 168 338 q 74 464 94 411 q 53 585 53 517 q 75 709 53 653 q 138 805 97 765 q 233 866 178 844 q 354 888 288 888 q 468 865 414 888 q 564 792 522 842 q 631 663 606 742 q 656 474 656 585 q 627 247 656 339 q 549 97 599 154 q 433 13 500 39 q 286 -12 365 -12 m 528 544 q 515 639 528 594 q 478 718 501 683 q 419 773 454 753 q 343 793 385 793 q 219 738 263 793 q 175 594 175 683 q 222 447 175 496 q 353 397 269 397 q 451 423 411 397 q 514 488 492 449 q 525 516 522 503 q 528 544 528 529 z "},"\u0000":{"ha":0,"x_min":0,"x_max":0,"o":""},"\r":{"ha":1422,"x_min":0,"x_max":0,"o":""}," ":{"ha":308,"x_min":0,"x_max":0,"o":""},"!":{"ha":343,"x_min":88,"x_max":256,"o":"m 107 986 l 238 986 l 221 290 l 121 290 l 107 986 m 88 75 q 113 136 88 111 q 172 161 138 161 q 231 136 207 161 q 256 75 256 111 q 231 11 256 35 q 172 -12 207 -12 q 113 11 138 -12 q 88 75 88 35 z "},"\"":{"ha":450,"x_min":71,"x_max":379,"o":"m 264 896 l 379 896 l 357 594 l 285 594 l 264 896 m 71 896 l 186 896 l 165 594 l 93 594 l 71 896 z "},"#":{"ha":861,"x_min":49,"x_max":814,"o":"m 361 651 l 319 392 l 522 392 l 564 651 l 361 651 m 625 1028 l 718 1028 l 672 746 l 814 746 l 814 651 l 658 651 l 615 392 l 767 392 l 767 297 l 603 297 l 554 0 l 460 0 l 507 297 l 306 297 l 257 0 l 164 0 l 210 297 l 49 297 l 49 392 l 226 392 l 268 651 l 97 651 l 97 746 l 285 746 l 329 1028 l 422 1028 l 376 744 l 581 744 l 625 1028 z "},"%":{"ha":1139,"x_min":42,"x_max":1096,"o":"m 229 0 l 836 1042 l 926 1042 l 319 0 l 229 0 m 1096 247 q 1081 147 1096 194 q 1038 65 1067 100 q 965 8 1008 29 q 867 -12 922 -12 q 770 8 813 -12 q 699 65 728 29 q 656 147 671 100 q 642 247 642 194 q 657 347 642 300 q 702 428 672 393 q 774 485 732 464 q 871 506 817 506 q 967 485 925 506 q 1038 428 1008 464 q 1081 347 1067 393 q 1096 247 1096 300 m 996 247 q 990 317 996 283 q 969 376 983 350 q 930 418 954 403 q 871 433 906 433 q 813 418 838 433 q 772 378 788 403 q 749 319 757 353 q 742 247 742 285 q 749 176 742 210 q 770 116 756 142 q 809 75 785 90 q 867 60 833 60 q 965 112 933 60 q 996 247 996 164 m 496 783 q 481 683 496 731 q 438 601 467 636 q 365 544 408 565 q 267 524 322 524 q 170 544 213 524 q 99 601 128 565 q 56 683 71 636 q 42 783 42 731 q 57 883 42 836 q 102 965 72 929 q 174 1021 132 1000 q 271 1042 217 1042 q 367 1021 325 1042 q 438 965 408 1000 q 481 883 467 929 q 496 783 496 836 m 396 783 q 390 853 396 819 q 369 913 383 886 q 330 954 354 939 q 271 969 306 969 q 213 954 238 969 q 172 914 188 939 q 149 855 157 889 q 142 783 142 821 q 149 712 142 746 q 170 652 156 678 q 209 611 185 626 q 267 596 233 596 q 365 648 333 596 q 396 783 396 700 z "},"&":{"ha":914,"x_min":42,"x_max":914,"o":"m 42 258 q 59 351 42 310 q 106 426 76 393 q 174 485 135 460 q 257 528 213 510 q 194 620 221 568 q 167 735 167 672 q 185 817 167 781 q 234 878 203 853 q 308 917 265 904 q 397 931 350 931 q 485 917 444 931 q 556 877 526 903 q 603 815 586 851 q 619 736 619 779 q 582 614 619 663 q 483 535 544 565 l 426 603 q 484 654 463 622 q 506 729 506 686 q 474 808 506 778 q 394 839 443 839 q 313 810 342 839 q 283 733 283 781 q 318 619 283 671 q 418 501 353 567 l 651 265 q 696 349 675 301 q 732 442 717 397 l 832 401 q 782 285 810 339 q 726 189 754 231 l 914 0 l 764 0 l 658 108 q 610 65 639 86 q 544 26 582 43 q 460 -1 507 10 q 358 -11 414 -11 q 228 9 286 -11 q 128 65 169 29 q 64 151 86 101 q 42 258 42 200 m 161 261 q 219 128 161 174 q 372 83 276 83 q 433 90 401 83 q 493 110 464 97 q 547 142 522 124 q 588 182 571 160 l 315 458 q 257 424 285 443 q 208 380 229 404 q 174 326 186 356 q 161 261 161 296 z "},"'":{"ha":257,"x_min":71,"x_max":186,"o":"m 71 896 l 186 896 l 164 594 l 92 594 l 71 896 z "},"(":{"ha":418,"x_min":69,"x_max":363,"o":"m 293 -212 q 211 -91 251 -156 q 140 47 171 -26 q 89 205 108 121 q 69 388 69 289 q 90 572 69 485 q 142 734 110 658 q 214 873 174 810 q 296 986 254 936 l 363 939 q 238 687 286 822 q 190 388 190 551 q 202 233 190 306 q 235 92 214 160 q 289 -40 257 25 q 363 -172 321 -106 l 293 -212 z "},")":{"ha":418,"x_min":56,"x_max":349,"o":"m 125 986 q 207 865 167 929 q 278 726 247 800 q 329 568 310 653 q 349 386 349 483 q 328 202 349 289 q 276 40 308 115 q 204 -99 244 -36 q 122 -212 164 -162 l 56 -165 q 180 87 132 -49 q 228 386 228 222 q 216 541 228 468 q 183 681 204 614 q 129 814 161 749 q 56 946 97 879 l 125 986 z "},"*":{"ha":475,"x_min":19,"x_max":469,"o":"m 79 572 l 133 644 l 213 718 l 104 732 l 19 758 l 44 835 l 128 810 l 228 757 l 203 864 l 203 950 l 286 950 l 286 864 l 263 757 l 361 810 l 444 835 l 469 758 l 385 732 l 276 718 l 356 644 l 408 572 l 342 524 l 290 596 l 244 694 l 199 596 l 144 524 l 79 572 z "},"+":{"ha":781,"x_min":56,"x_max":725,"o":"m 725 469 l 725 381 l 435 381 l 435 90 l 346 90 l 346 381 l 56 381 l 56 469 l 346 469 l 346 760 l 435 760 l 435 469 l 725 469 z "},",":{"ha":297,"x_min":63,"x_max":256,"o":"m 140 -12 q 86 18 104 -8 q 68 76 68 44 q 91 136 68 110 q 156 163 114 163 q 190 158 172 163 q 222 138 207 153 q 246 98 236 124 q 256 31 256 72 q 213 -107 256 -44 q 103 -206 169 -169 l 63 -150 q 127 -98 99 -131 q 165 -17 156 -65 l 140 -12 z "},"-":{"ha":389,"x_min":42,"x_max":347,"o":"m 347 463 l 347 353 l 42 353 l 42 463 l 347 463 z "},".":{"ha":293,"x_min":75,"x_max":243,"o":"m 75 75 q 100 136 75 111 q 160 161 125 161 q 219 136 194 161 q 243 75 243 111 q 219 11 243 35 q 160 -12 194 -12 q 100 11 125 -12 q 75 75 75 35 z "},"/":{"ha":521,"x_min":-1,"x_max":525,"o":"m -1 -151 l 421 1042 l 525 1042 l 103 -151 l -1 -151 z "},":":{"ha":310,"x_min":71,"x_max":239,"o":"m 71 88 q 96 149 71 124 q 156 174 121 174 q 215 149 190 174 q 239 88 239 124 q 215 24 239 47 q 156 0 190 0 q 96 24 121 0 q 71 88 71 47 m 71 493 q 96 554 71 529 q 156 579 121 579 q 215 554 190 579 q 239 493 239 529 q 215 429 239 453 q 156 406 190 406 q 96 429 121 406 q 71 493 71 453 z "},";":{"ha":304,"x_min":63,"x_max":256,"o":"m 74 438 q 99 499 74 474 q 158 524 124 524 q 217 499 193 524 q 242 438 242 474 q 217 374 242 397 q 158 350 193 350 q 99 374 124 350 q 74 438 74 397 m 140 -12 q 86 18 104 -8 q 68 76 68 44 q 91 136 68 110 q 156 163 114 163 q 190 158 172 163 q 222 138 207 153 q 246 98 236 124 q 256 31 256 72 q 213 -107 256 -44 q 103 -206 169 -169 l 63 -150 q 127 -98 99 -131 q 165 -17 156 -65 l 140 -12 z "},"<":{"ha":689,"x_min":92,"x_max":597,"o":"m 92 313 l 92 393 l 597 685 l 597 585 l 182 353 l 597 121 l 597 21 l 92 313 z "},"=":{"ha":643,"x_min":56,"x_max":588,"o":"m 588 351 l 588 264 l 56 264 l 56 351 l 588 351 m 588 586 l 588 499 l 56 499 l 56 586 l 588 586 z "},">":{"ha":689,"x_min":92,"x_max":597,"o":"m 92 121 l 507 353 l 92 585 l 92 685 l 597 393 l 597 313 l 92 21 l 92 121 z "},"?":{"ha":607,"x_min":81,"x_max":544,"o":"m 278 993 q 390 976 340 993 q 474 927 439 958 q 526 853 508 896 q 544 760 544 810 q 533 691 544 724 q 501 628 521 658 q 456 570 481 597 q 406 519 431 543 q 317 429 349 468 q 285 342 285 390 q 288 307 285 322 q 297 269 290 292 l 193 250 q 175 343 175 294 q 183 400 175 374 q 206 452 190 426 q 243 504 221 478 q 296 561 265 531 q 343 608 321 586 q 382 654 365 631 q 409 703 399 678 q 419 758 419 729 q 412 806 419 783 q 387 847 404 829 q 341 876 369 865 q 271 888 313 888 q 203 878 239 888 q 133 844 168 869 l 81 936 q 175 979 121 965 q 278 993 229 993 m 172 75 q 197 136 172 111 q 257 161 222 161 q 316 136 292 161 q 340 75 340 111 q 316 11 340 35 q 257 -12 292 -12 q 197 11 222 -12 q 172 75 172 35 z "},"@":{"ha":1340,"x_min":72,"x_max":1274,"o":"m 783 86 l 781 86 q 734 44 757 63 q 685 13 711 25 q 628 -6 658 0 q 560 -12 599 -12 q 425 34 475 -12 q 375 156 375 81 q 376 172 375 164 q 378 189 376 181 q 413 277 386 240 q 480 338 439 314 q 573 374 521 363 q 685 385 625 385 l 810 385 l 819 440 q 822 459 822 450 q 822 475 822 468 q 792 544 822 525 q 708 563 761 563 q 624 551 675 563 q 507 506 572 539 l 474 594 q 606 646 544 629 q 732 663 667 663 q 819 653 779 663 q 886 624 858 644 q 930 569 914 603 q 946 486 946 536 q 944 457 946 472 q 940 425 943 442 l 904 203 q 896 133 896 158 q 906 94 896 106 q 939 83 915 83 q 1026 114 986 83 q 1094 197 1065 144 q 1140 316 1124 249 q 1157 457 1157 383 q 1130 619 1157 544 q 1051 749 1103 694 q 923 836 999 804 q 750 868 847 868 q 531 828 633 868 q 351 710 428 789 q 231 515 275 632 q 186 242 186 397 q 227 29 186 115 q 334 -110 268 -57 q 483 -185 400 -162 q 647 -208 565 -208 q 799 -192 736 -208 q 917 -154 861 -176 l 942 -240 q 802 -285 883 -265 q 625 -304 721 -304 q 423 -275 522 -304 q 246 -181 324 -246 q 120 -15 168 -117 q 72 235 72 88 q 131 553 72 417 q 284 780 189 689 q 499 916 379 871 q 744 961 619 961 q 971 923 872 961 q 1137 818 1069 885 q 1239 660 1204 751 q 1274 463 1274 569 q 1246 274 1274 360 q 1170 128 1218 189 q 1056 33 1122 67 q 915 -1 990 -1 q 851 3 879 -1 q 808 15 824 8 l 783 86 m 799 299 l 694 299 q 555 266 597 299 q 506 185 513 233 q 504 174 504 179 q 504 165 504 169 q 534 99 504 121 q 607 78 564 78 q 778 168 699 78 l 799 299 z "},"[":{"ha":418,"x_min":113,"x_max":376,"o":"m 113 -215 l 113 1000 l 376 1000 l 376 908 l 232 908 l 232 -122 l 376 -122 l 376 -215 l 113 -215 z "},"\\":{"ha":460,"x_min":0,"x_max":460,"o":"m 356 -122 l 0 1000 l 104 1000 l 460 -122 l 356 -122 z "},"]":{"ha":418,"x_min":42,"x_max":306,"o":"m 42 -215 l 42 -122 l 186 -122 l 186 908 l 42 908 l 42 1000 l 306 1000 l 306 -215 l 42 -215 z "},"^":{"ha":717,"x_min":85,"x_max":633,"o":"m 633 578 l 528 578 l 358 915 l 192 578 l 85 578 l 317 1000 l 399 1000 l 633 578 z "},"_":{"ha":508,"x_min":14,"x_max":494,"o":"m 494 -264 l 494 -347 l 14 -347 l 14 -264 l 494 -264 z "},"{":{"ha":453,"x_min":39,"x_max":418,"o":"m 418 888 q 312 850 347 888 q 276 744 276 813 l 276 546 q 253 444 276 482 q 175 388 231 406 l 175 383 q 252 311 228 360 q 276 188 276 263 l 276 -10 q 312 -87 276 -58 q 418 -119 347 -117 l 418 -215 q 232 -153 303 -212 q 161 10 161 -94 l 161 215 q 132 306 161 274 q 39 342 103 339 l 39 426 q 131 461 101 433 q 161 549 161 489 l 161 771 q 178 853 161 815 q 227 919 194 892 q 308 963 260 947 q 418 979 356 979 l 418 888 z "},"|":{"ha":304,"x_min":100,"x_max":204,"o":"m 100 -319 l 100 1042 l 204 1042 l 204 -319 l 100 -319 z "},"}":{"ha":453,"x_min":35,"x_max":414,"o":"m 35 986 q 145 969 97 986 q 226 924 193 953 q 275 855 258 894 q 292 771 292 815 l 292 549 q 322 461 292 489 q 414 426 351 433 l 414 342 q 321 306 350 339 q 292 215 292 274 l 292 10 q 221 -153 292 -94 q 35 -215 150 -212 l 35 -119 q 141 -87 106 -117 q 176 -10 176 -58 l 176 188 q 201 311 176 263 q 278 383 225 360 l 278 388 q 199 444 222 406 q 176 546 176 482 l 176 744 q 141 850 176 813 q 35 888 106 888 l 35 986 z "},"~":{"ha":814,"x_min":67,"x_max":747,"o":"m 67 292 q 121 449 67 396 q 258 503 175 503 q 340 485 300 503 q 417 444 379 467 q 490 404 454 422 q 558 386 525 386 q 638 416 610 386 q 665 501 665 446 l 747 501 q 730 399 747 439 q 685 334 713 358 q 625 300 658 310 q 560 290 592 290 q 478 309 518 290 q 400 350 438 328 q 327 391 363 372 q 257 410 292 410 q 176 375 204 410 q 149 292 149 340 l 67 292 z "},"…":{"ha":815,"x_min":75,"x_max":746,"o":"m 75 75 q 100 136 75 111 q 160 161 125 161 q 219 136 194 161 q 243 75 243 111 q 219 11 243 35 q 160 -12 194 -12 q 100 11 125 -12 q 75 75 75 35 m 326 75 q 351 136 326 111 q 411 161 376 161 q 470 136 446 161 q 494 75 494 111 q 470 11 494 35 q 411 -12 446 -12 q 351 11 376 -12 q 326 75 326 35 m 578 75 q 603 136 578 111 q 663 161 628 161 q 722 136 697 161 q 746 75 746 111 q 722 11 746 35 q 663 -12 697 -12 q 603 11 628 -12 q 578 75 578 35 z "},"–":{"ha":724,"x_min":75,"x_max":649,"o":"m 649 346 l 649 261 l 75 261 l 75 346 l 649 346 z "},"—":{"ha":1297,"x_min":75,"x_max":1222,"o":"m 1222 344 l 1222 261 l 75 261 l 75 344 l 1222 344 z "},"‘":{"ha":283,"x_min":42,"x_max":235,"o":"m 157 847 q 211 817 193 843 q 229 758 229 790 q 208 699 229 725 q 144 672 186 672 q 110 678 128 672 q 76 700 92 685 q 51 742 61 715 q 42 808 42 768 q 85 944 42 883 q 194 1040 128 1004 l 235 985 q 170 933 199 965 q 132 851 142 900 l 157 847 z "},"’":{"ha":283,"x_min":49,"x_max":242,"o":"m 126 865 q 72 896 90 869 q 54 954 54 922 q 77 1014 54 988 q 142 1040 100 1040 q 176 1035 158 1040 q 208 1014 193 1029 q 232 973 222 999 q 242 908 242 947 q 199 771 242 833 q 89 672 156 708 l 49 728 q 113 780 85 747 q 151 861 142 813 l 126 865 z "},"÷":{"ha":740,"x_min":56,"x_max":685,"o":"m 282 128 q 308 187 282 161 q 368 213 333 213 q 428 187 403 213 q 453 128 453 161 q 428 67 453 92 q 368 42 403 42 q 308 67 333 42 q 282 128 282 92 m 282 578 q 308 637 282 611 q 368 663 333 663 q 428 637 403 663 q 453 578 453 611 q 428 517 453 542 q 368 492 403 492 q 308 517 333 492 q 282 578 282 542 m 685 394 l 685 310 l 56 310 l 56 394 l 685 394 z "},"−":{"ha":657,"x_min":56,"x_max":601,"o":"m 601 465 l 601 381 l 56 381 l 56 465 l 601 465 z "},"×":{"ha":556,"x_min":53,"x_max":503,"o":"m 53 253 l 221 421 l 53 589 l 110 646 l 278 478 l 446 646 l 503 589 l 335 421 l 503 253 l 446 196 l 278 364 l 110 196 l 53 253 z "},"$":{"ha":736,"x_min":92,"x_max":636,"o":"m 324 1000 l 414 1000 l 414 857 q 588 808 499 850 l 551 714 q 457 751 501 740 q 368 763 413 763 q 257 732 300 763 q 214 639 214 701 q 253 556 214 582 q 356 508 292 529 l 419 488 q 581 397 526 453 q 636 251 636 340 q 617 158 636 199 q 565 87 597 117 q 488 39 532 57 q 393 15 443 21 l 393 -131 l 303 -131 l 303 15 q 195 32 243 18 q 94 74 147 46 l 139 168 q 251 123 197 135 q 347 111 306 111 q 412 119 382 111 q 465 142 442 126 q 501 183 488 158 q 514 242 514 208 q 473 331 514 300 q 353 386 432 361 l 289 407 q 208 440 244 421 q 147 485 172 458 q 106 545 121 511 q 92 624 92 579 q 154 789 92 729 q 324 858 217 849 l 324 1000 z "},"A":{"ha":819,"x_min":3,"x_max":818,"o":"m 356 875 l 469 875 l 818 0 l 685 0 l 589 243 l 229 243 l 135 0 l 3 0 l 356 875 m 264 344 l 551 344 l 493 496 q 450 611 469 556 q 411 725 431 667 l 408 725 q 368 613 389 667 q 324 496 347 558 l 264 344 z "},"B":{"ha":746,"x_min":111,"x_max":676,"o":"m 374 875 q 577 819 504 875 q 650 654 650 763 q 605 528 650 574 q 492 465 560 483 q 564 441 531 458 q 622 396 597 424 q 662 330 647 368 q 676 244 676 292 q 653 145 676 190 q 588 68 629 100 q 489 18 546 36 q 364 0 432 0 l 111 0 l 111 875 l 374 875 m 239 510 l 343 510 q 410 515 378 510 q 466 536 442 521 q 505 577 490 551 q 519 644 519 603 q 474 742 519 711 q 354 772 429 772 l 239 772 l 239 510 m 239 103 l 350 103 q 424 110 389 103 q 485 136 458 118 q 527 184 511 154 q 543 257 543 214 q 524 328 543 300 q 475 375 506 357 q 406 401 444 393 q 328 408 367 408 l 239 408 l 239 103 z "},"C":{"ha":776,"x_min":63,"x_max":731,"o":"m 493 93 q 608 104 563 93 q 697 136 653 115 l 726 33 q 620 -1 678 10 q 479 -12 563 -12 q 317 17 393 -12 q 184 103 240 46 q 95 244 128 160 q 63 438 63 328 q 94 628 63 544 q 183 770 126 713 q 317 858 239 828 q 486 888 394 888 q 628 874 572 888 q 731 836 683 860 l 700 736 q 651 756 674 747 q 605 771 628 765 q 558 779 582 776 q 503 782 533 782 q 387 763 442 782 q 291 703 332 744 q 226 595 250 661 q 201 436 201 529 q 225 276 201 342 q 288 171 249 211 q 381 112 328 131 q 493 93 433 93 z "},"D":{"ha":892,"x_min":111,"x_max":828,"o":"m 396 875 q 568 849 489 875 q 705 770 647 822 q 795 640 763 718 q 828 457 828 561 q 789 243 828 331 q 684 101 750 156 q 531 24 618 47 q 347 0 444 0 l 111 0 l 111 875 l 396 875 m 239 106 l 335 106 q 465 120 401 106 q 578 174 529 135 q 658 282 628 214 q 689 457 689 350 q 667 590 689 532 q 603 688 644 649 q 502 749 561 728 q 371 769 443 769 l 239 769 l 239 106 z "},"E":{"ha":696,"x_min":111,"x_max":643,"o":"m 111 875 l 639 875 l 639 769 l 239 769 l 239 507 l 603 507 l 603 403 l 239 403 l 239 106 l 643 106 l 643 0 l 111 0 l 111 875 z "},"F":{"ha":674,"x_min":111,"x_max":625,"o":"m 625 875 l 625 769 l 239 769 l 239 486 l 594 486 l 594 382 l 239 382 l 239 0 l 111 0 l 111 875 l 625 875 z "},"G":{"ha":858,"x_min":63,"x_max":778,"o":"m 493 888 q 631 876 569 888 q 746 838 693 865 l 715 738 q 615 772 664 761 q 508 783 565 783 q 392 765 447 783 q 294 706 336 747 q 226 599 251 665 q 201 436 201 533 q 278 181 201 268 q 493 93 354 93 q 584 99 546 93 q 658 118 622 104 l 658 361 l 493 361 l 493 461 l 778 461 l 778 39 q 654 2 722 17 q 493 -12 586 -12 q 324 17 403 -12 q 188 103 246 46 q 96 243 129 160 q 63 436 63 326 q 95 631 63 546 q 185 772 128 715 q 321 858 242 829 q 493 888 400 888 z "},"H":{"ha":892,"x_min":111,"x_max":782,"o":"m 111 0 l 111 875 l 239 875 l 239 507 l 654 507 l 654 875 l 782 875 l 782 0 l 654 0 l 654 399 l 239 399 l 239 0 l 111 0 z "},"I":{"ha":349,"x_min":111,"x_max":239,"o":"m 239 875 l 239 0 l 111 0 l 111 875 l 239 875 z "},"J":{"ha":374,"x_min":-21,"x_max":274,"o":"m 274 875 l 274 160 q 265 0 274 63 q 221 -110 256 -62 q 113 -191 179 -168 q -21 -215 46 -214 l -21 -111 q 106 -60 61 -110 q 138 8 131 -32 q 146 93 146 49 l 146 875 l 274 875 z "},"K":{"ha":800,"x_min":111,"x_max":793,"o":"m 111 0 l 111 875 l 239 875 l 239 479 l 607 875 l 765 875 l 404 488 l 793 0 l 632 0 l 313 400 l 239 321 l 239 0 l 111 0 z "},"L":{"ha":633,"x_min":111,"x_max":613,"o":"m 111 875 l 239 875 l 239 108 l 613 108 l 613 0 l 111 0 l 111 875 z "},"M":{"ha":1126,"x_min":89,"x_max":1038,"o":"m 163 875 l 329 875 l 513 317 q 539 238 526 276 q 563 161 551 200 l 565 161 q 588 236 576 200 q 615 317 600 272 l 794 875 l 961 875 l 1038 0 l 910 0 l 874 464 q 865 599 868 532 q 860 736 863 667 l 857 736 q 817 600 838 668 q 775 464 797 532 l 621 0 l 504 0 l 350 465 q 307 601 326 536 q 268 736 288 665 l 265 736 q 258 600 263 668 q 247 464 253 532 l 214 0 l 89 0 l 163 875 z "},"N":{"ha":933,"x_min":111,"x_max":824,"o":"m 111 875 l 222 875 l 621 321 q 664 258 643 290 q 701 196 685 226 l 704 196 q 700 293 701 244 q 699 390 699 342 l 699 875 l 824 875 l 824 0 l 713 0 l 318 547 q 275 613 297 576 q 233 686 253 650 l 231 686 q 235 569 233 628 q 236 453 236 511 l 236 0 l 111 0 l 111 875 z "},"O":{"ha":953,"x_min":64,"x_max":889,"o":"m 479 888 q 643 859 568 888 q 773 774 718 831 q 858 634 828 718 q 889 438 889 550 q 857 244 889 328 q 769 103 825 160 q 638 17 714 46 q 474 -12 563 -12 q 310 16 385 -12 q 180 101 235 44 q 94 241 125 157 q 64 438 64 325 q 96 631 64 547 q 183 772 128 715 q 315 858 239 829 q 479 888 390 888 m 203 438 q 224 283 203 349 q 283 175 246 218 q 372 111 321 132 q 479 90 422 90 q 585 111 536 90 q 672 175 635 132 q 729 283 708 218 q 750 438 750 349 q 728 594 750 529 q 669 702 707 660 q 581 765 632 744 q 474 785 531 785 q 367 764 417 785 q 281 700 317 743 q 224 592 244 657 q 203 438 203 526 z "},"P":{"ha":726,"x_min":111,"x_max":690,"o":"m 111 875 l 386 875 q 510 858 454 875 q 606 806 565 840 q 668 723 646 772 q 690 610 690 674 q 667 490 690 540 q 600 406 643 439 q 499 356 557 372 q 369 339 440 339 l 239 339 l 239 0 l 111 0 l 111 875 m 239 443 l 318 443 q 414 450 369 443 q 490 475 458 457 q 539 526 521 493 q 557 608 557 558 q 540 685 557 654 q 494 736 522 717 q 431 764 467 756 q 357 772 394 772 l 239 772 l 239 443 z "},"Q":{"ha":947,"x_min":64,"x_max":925,"o":"m 479 888 q 643 859 568 888 q 773 774 718 831 q 858 634 828 718 q 889 438 889 550 q 829 189 889 292 q 636 11 769 86 l 447 -94 q 524 -105 489 -94 q 596 -128 560 -115 q 671 -151 632 -140 q 757 -161 710 -161 q 816 -152 785 -161 q 875 -124 847 -143 l 925 -217 q 840 -254 886 -242 q 753 -267 793 -267 q 656 -253 704 -267 q 561 -224 608 -240 q 468 -195 514 -208 q 376 -182 422 -182 q 305 -193 340 -182 q 233 -225 269 -204 l 181 -129 l 394 -6 q 260 40 321 6 q 156 128 200 74 q 88 261 113 183 q 64 438 64 339 q 96 631 64 547 q 183 772 128 715 q 315 858 239 829 q 479 888 390 888 m 203 438 q 222 283 203 349 q 277 172 242 217 q 361 106 313 128 q 467 83 410 83 q 575 106 524 83 q 665 174 626 129 q 727 285 704 219 q 750 438 750 351 q 728 594 750 529 q 669 702 707 660 q 581 765 632 744 q 474 785 531 785 q 367 764 417 785 q 281 700 317 743 q 224 592 244 657 q 203 438 203 526 z "},"R":{"ha":746,"x_min":111,"x_max":725,"o":"m 111 875 l 396 875 q 516 856 464 875 q 603 801 568 836 q 656 719 638 767 q 674 614 674 671 q 658 524 674 564 q 618 453 643 483 q 560 402 593 424 q 494 367 528 381 l 725 0 l 582 0 l 375 343 l 232 343 l 232 0 l 111 0 l 111 875 m 232 447 l 338 447 q 417 456 381 447 q 481 484 454 465 q 524 533 508 503 q 540 607 540 564 q 494 732 540 692 q 358 772 447 772 l 232 772 l 232 447 z "},"S":{"ha":701,"x_min":61,"x_max":643,"o":"m 357 888 q 481 877 421 888 q 599 839 540 867 l 568 733 q 460 773 508 761 q 363 785 413 785 q 238 750 283 785 q 192 653 192 715 q 226 568 192 600 q 338 513 260 536 l 425 485 q 594 383 544 447 q 643 238 643 318 q 620 134 643 181 q 556 55 597 88 q 460 5 515 22 q 338 -12 404 -12 q 202 -1 271 -12 q 65 43 133 11 l 96 147 q 213 104 156 118 q 332 90 269 90 q 460 125 407 90 q 513 228 513 160 q 505 274 513 253 q 478 315 497 296 q 428 351 460 335 q 347 383 396 368 l 260 411 q 113 494 164 442 q 61 638 61 547 q 137 820 61 753 q 357 888 213 888 z "},"T":{"ha":696,"x_min":14,"x_max":683,"o":"m 683 875 l 683 767 l 410 767 l 410 0 l 282 0 l 282 767 l 14 767 l 14 875 l 683 875 z "},"U":{"ha":889,"x_min":100,"x_max":789,"o":"m 100 875 l 228 875 l 228 351 q 279 151 228 211 q 444 92 331 92 q 609 158 557 92 q 661 335 661 225 l 661 875 l 789 875 l 789 339 q 697 74 789 160 q 444 -12 606 -12 q 191 73 282 -12 q 100 346 100 158 l 100 875 z "},"V":{"ha":797,"x_min":-4,"x_max":801,"o":"m 131 875 l 313 381 q 355 267 332 329 q 397 153 378 206 l 400 153 l 483 381 l 668 875 l 801 875 l 457 0 l 333 0 l -4 875 l 131 875 z "},"W":{"ha":1193,"x_min":11,"x_max":1182,"o":"m 142 875 l 290 360 q 302 317 296 343 q 315 263 308 292 q 328 206 322 235 q 336 153 333 178 l 339 153 q 349 206 343 178 q 363 263 356 235 q 376 317 369 292 q 388 360 382 342 l 540 875 l 654 875 l 813 360 q 824 317 818 342 q 837 264 831 292 q 849 207 843 236 q 860 153 856 178 l 863 153 q 873 208 867 179 q 886 266 879 238 q 899 319 893 294 q 910 360 906 343 l 1053 875 l 1182 875 l 925 0 l 796 0 l 663 465 q 644 531 653 500 q 627 589 635 561 q 612 645 619 617 q 596 706 604 674 l 593 706 q 563 581 579 643 q 531 465 546 518 l 401 0 l 274 0 l 11 875 l 142 875 z "},"X":{"ha":757,"x_min":8,"x_max":750,"o":"m 167 875 l 376 533 l 596 875 l 736 875 l 449 444 l 750 0 l 603 0 l 376 356 l 149 0 l 8 0 l 300 444 l 21 875 l 167 875 z "},"Y":{"ha":726,"x_min":14,"x_max":726,"o":"m 154 875 l 372 483 l 592 875 l 726 875 l 431 367 l 431 0 l 303 0 l 303 367 l 14 875 l 154 875 z "},"Z":{"ha":710,"x_min":36,"x_max":675,"o":"m 668 875 l 668 799 l 188 103 l 675 103 l 675 0 l 36 0 l 36 90 l 508 772 l 57 772 l 57 875 l 668 875 z "},"`":{"ha":292,"x_min":31,"x_max":264,"o":"m 31 1000 l 153 1000 l 264 771 l 178 771 l 31 1000 z "},"a":{"ha":679,"x_min":50,"x_max":594,"o":"m 101 594 q 164 624 135 611 q 222 646 193 638 q 282 658 251 654 q 349 663 313 663 q 448 651 403 663 q 526 611 493 639 q 576 538 558 583 q 594 425 594 493 l 594 0 l 493 0 l 478 72 l 475 72 q 381 7 432 26 q 267 -12 329 -12 q 180 1 219 -12 q 111 38 140 14 q 66 97 82 63 q 50 175 50 132 q 131 331 50 278 q 346 385 213 385 l 471 385 l 471 440 q 435 537 471 511 q 338 563 399 563 q 255 551 301 563 q 149 506 208 539 l 101 594 m 472 301 l 369 299 q 222 262 265 296 q 178 179 178 228 q 188 130 178 150 q 213 99 197 110 q 251 83 229 88 q 296 78 272 78 q 389 99 342 78 q 472 168 436 121 l 472 301 z "},"b":{"ha":750,"x_min":96,"x_max":697,"o":"m 697 326 q 674 186 697 249 q 610 79 650 124 q 515 11 569 35 q 400 -12 461 -12 q 288 6 336 -12 q 199 61 240 24 l 196 61 l 183 0 l 96 0 l 96 986 l 217 986 l 217 571 q 315 640 261 618 q 426 663 368 663 q 624 574 551 663 q 697 326 697 485 m 569 325 q 524 498 569 433 q 394 563 478 563 q 299 539 342 563 q 217 472 256 515 l 217 156 q 283 102 246 122 q 368 82 319 82 q 444 96 407 82 q 508 140 481 110 q 553 215 536 169 q 569 325 569 261 z "},"c":{"ha":614,"x_min":54,"x_max":574,"o":"m 404 82 q 482 92 449 82 q 547 117 515 101 l 574 25 q 394 -12 499 -12 q 262 8 324 -12 q 153 72 200 29 q 81 177 107 114 q 54 325 54 240 q 79 465 54 403 q 149 572 104 528 q 256 639 193 615 q 393 663 318 663 q 477 656 436 663 q 571 626 518 650 l 543 533 q 406 569 479 569 q 242 506 304 569 q 179 329 179 443 q 199 211 179 258 q 250 135 218 164 q 322 94 282 107 q 404 82 363 82 z "},"d":{"ha":744,"x_min":54,"x_max":650,"o":"m 528 986 l 650 986 l 650 0 l 547 0 l 532 72 l 528 72 q 441 8 485 28 q 331 -12 397 -12 q 228 8 278 -12 q 140 71 179 29 q 78 176 101 113 q 54 325 54 239 q 74 464 54 401 q 132 571 94 526 q 224 639 169 615 q 347 663 278 663 q 445 647 399 663 q 528 599 492 631 l 528 986 m 528 496 q 374 569 463 569 q 301 556 336 569 q 238 514 265 543 q 194 439 211 485 q 178 329 178 393 q 193 216 178 263 q 234 140 208 169 q 292 96 260 110 q 358 82 325 82 q 528 172 463 82 l 528 496 z "},"e":{"ha":700,"x_min":54,"x_max":650,"o":"m 650 313 l 182 313 l 182 307 q 241 140 182 199 q 401 82 300 82 q 495 90 454 82 q 585 118 536 99 l 610 28 q 515 -1 569 10 q 397 -12 460 -12 q 265 7 326 -12 q 156 67 203 26 q 81 172 108 108 q 54 325 54 236 q 77 464 54 401 q 142 570 100 526 q 242 638 183 614 q 375 663 301 663 q 488 642 438 663 q 575 583 539 621 q 631 493 611 546 q 650 376 650 440 l 650 313 m 524 400 q 515 467 524 436 q 487 522 506 499 q 439 560 468 546 q 368 574 410 574 q 244 525 292 574 q 185 397 196 476 l 524 400 z "},"f":{"ha":461,"x_min":26,"x_max":497,"o":"m 340 993 q 422 982 379 993 q 497 954 464 971 l 472 869 q 419 887 444 881 q 367 893 394 893 q 272 856 300 893 q 243 728 243 818 l 243 653 l 442 653 l 442 561 l 243 561 l 243 0 l 122 0 l 122 561 l 26 561 l 26 653 l 122 653 l 122 768 q 178 935 122 876 q 340 993 235 993 z "},"g":{"ha":751,"x_min":44,"x_max":710,"o":"m 85 436 q 104 533 85 490 q 159 604 124 575 q 243 648 194 633 q 349 663 292 663 q 389 660 369 663 q 428 653 408 657 l 710 653 l 710 563 l 667 563 l 556 578 q 597 514 582 550 q 611 438 611 478 q 592 341 611 383 q 538 269 572 299 q 454 226 503 240 q 349 211 406 211 q 274 217 306 211 q 229 188 242 206 q 217 151 217 171 q 238 108 217 119 q 296 97 260 97 l 468 97 q 634 48 576 97 q 692 -86 692 -1 q 668 -183 692 -140 q 601 -257 644 -226 q 494 -303 557 -287 q 354 -319 432 -319 q 128 -269 213 -319 q 44 -119 44 -218 q 77 -33 44 -68 q 163 19 110 1 q 121 60 135 39 q 107 118 107 82 q 133 192 107 161 q 203 240 158 222 q 116 313 147 265 q 85 436 85 361 m 233 0 q 163 -100 163 -32 q 360 -222 163 -222 q 458 -211 418 -222 q 524 -182 499 -200 q 560 -142 549 -164 q 572 -96 572 -119 q 533 -19 572 -37 q 433 0 493 0 l 233 0 m 488 433 q 449 542 488 507 q 349 576 411 576 q 248 542 286 576 q 210 439 210 507 q 248 333 210 367 q 349 299 286 299 q 449 332 411 299 q 488 433 488 365 z "},"h":{"ha":750,"x_min":96,"x_max":654,"o":"m 218 0 l 96 0 l 96 986 l 218 986 l 218 569 q 319 636 264 610 q 442 663 375 663 q 536 647 496 663 q 602 602 576 631 q 641 535 628 574 q 654 450 654 496 l 654 0 l 532 0 l 532 419 q 501 528 532 494 q 408 563 471 563 q 313 539 361 563 q 218 472 265 515 l 218 0 z "},"i":{"ha":342,"x_min":97,"x_max":253,"o":"m 114 0 l 114 653 l 236 653 l 236 0 l 114 0 m 175 821 q 120 842 143 821 q 97 896 97 864 q 120 950 97 928 q 175 972 143 972 q 229 950 206 972 q 253 896 253 928 q 229 842 253 864 q 175 821 206 821 z "},"j":{"ha":342,"x_min":-51,"x_max":247,"o":"m 110 653 l 232 653 l 232 99 q 223 -47 232 19 q 189 -166 214 -112 q 119 -261 164 -219 q 6 -333 75 -303 l -51 -242 q 23 -196 -8 -219 q 73 -137 54 -172 q 101 -49 92 -101 q 110 83 110 3 l 110 653 m 169 821 q 115 842 138 821 q 92 896 92 864 q 115 950 92 928 q 169 972 138 972 q 224 950 200 972 q 247 896 247 928 q 224 842 247 864 q 169 821 200 821 z "},"k":{"ha":649,"x_min":96,"x_max":643,"o":"m 217 239 l 217 0 l 96 0 l 96 986 l 217 986 l 217 372 l 479 653 l 631 653 l 363 378 l 643 0 l 499 0 l 282 304 l 217 239 z "},"l":{"ha":319,"x_min":100,"x_max":219,"o":"m 100 0 l 100 986 l 219 986 l 219 0 l 100 0 z "},"m":{"ha":1144,"x_min":94,"x_max":1050,"o":"m 217 0 l 94 0 l 94 653 l 189 653 l 207 563 q 306 635 253 608 q 432 663 358 663 q 546 634 501 663 q 613 556 590 606 q 719 635 661 607 q 849 663 778 663 q 999 606 949 663 q 1050 450 1050 550 l 1050 0 l 928 0 l 928 428 q 900 528 928 493 q 808 563 872 563 q 632 478 714 563 q 633 464 633 471 q 633 450 633 457 l 633 0 l 511 0 l 511 428 q 483 528 511 493 q 392 563 456 563 q 217 474 297 563 l 217 0 z "},"n":{"ha":742,"x_min":94,"x_max":647,"o":"m 217 0 l 94 0 l 94 653 l 190 653 l 208 563 q 310 637 257 611 q 433 663 364 663 q 590 606 533 663 q 647 450 647 550 l 647 0 l 525 0 l 525 432 q 494 527 525 492 q 399 563 463 563 q 217 475 301 563 l 217 0 z "},"o":{"ha":747,"x_min":54,"x_max":693,"o":"m 693 333 q 668 187 693 251 q 599 78 643 122 q 497 10 556 33 q 371 -12 439 -12 q 245 9 303 -12 q 145 73 188 31 q 78 177 103 115 q 54 319 54 239 q 79 465 54 401 q 148 573 104 529 q 250 640 192 617 q 376 663 308 663 q 502 642 444 663 q 602 579 560 621 q 669 476 644 538 q 693 333 693 414 m 565 326 q 549 438 565 392 q 505 513 532 483 q 443 555 478 542 q 372 568 408 568 q 301 557 336 568 q 240 518 267 546 q 198 444 214 490 q 182 326 182 397 q 199 215 182 261 q 242 139 215 168 q 304 96 269 110 q 375 82 339 82 q 446 94 411 82 q 507 134 481 106 q 549 209 533 163 q 565 326 565 256 z "},"p":{"ha":738,"x_min":89,"x_max":685,"o":"m 365 -12 q 280 0 321 -12 q 210 33 239 13 l 210 -319 l 89 -319 l 89 663 l 190 663 l 208 578 q 293 638 246 613 q 404 663 340 663 q 610 579 535 663 q 685 340 685 496 q 658 182 685 249 q 585 72 631 115 q 483 8 540 29 q 365 -12 425 -12 m 378 563 q 276 534 319 563 q 210 476 233 506 l 210 128 q 278 93 242 104 q 350 82 314 82 q 425 95 388 82 q 492 139 463 108 q 539 218 521 169 q 557 338 557 267 q 513 502 557 442 q 378 563 469 563 z "},"q":{"ha":744,"x_min":54,"x_max":650,"o":"m 528 47 q 448 1 492 15 q 349 -12 404 -12 q 224 12 279 -12 q 132 80 169 36 q 74 186 94 124 q 54 326 54 249 q 74 460 54 399 q 131 567 93 522 q 226 637 169 611 q 354 663 282 663 q 400 658 375 663 q 449 643 425 653 q 496 619 474 633 q 535 586 518 604 l 549 653 l 650 653 l 650 -319 l 528 -319 l 528 47 m 528 486 q 463 545 503 521 q 375 569 424 569 q 299 556 335 569 q 237 514 264 543 q 194 440 210 485 q 178 331 178 394 q 230 144 178 207 q 365 82 282 82 q 458 102 417 82 q 528 154 500 122 l 528 486 z "},"r":{"ha":517,"x_min":92,"x_max":510,"o":"m 92 0 l 92 653 l 183 653 l 204 522 q 282 624 228 585 q 407 663 336 663 q 467 657 443 663 q 510 643 490 651 l 486 536 q 449 550 469 544 q 401 556 429 556 q 327 542 361 556 q 267 500 293 528 q 227 431 242 472 q 213 338 213 390 l 213 0 l 92 0 z "},"s":{"ha":565,"x_min":49,"x_max":518,"o":"m 461 531 q 378 561 415 553 q 303 569 340 569 q 204 545 236 569 q 172 481 172 521 q 194 430 172 451 q 288 388 217 408 l 329 375 q 470 303 422 347 q 518 185 518 260 q 452 42 518 96 q 268 -12 386 -12 q 148 -1 206 -12 q 49 29 90 10 l 78 125 q 165 94 118 106 q 261 82 213 82 q 360 104 324 82 q 397 178 397 126 q 365 241 397 222 q 274 278 333 260 l 231 292 q 97 365 140 321 q 53 478 53 408 q 71 554 53 519 q 120 613 89 589 q 194 649 151 636 q 289 663 238 663 q 390 653 338 663 q 489 624 442 644 l 461 531 z "},"t":{"ha":506,"x_min":28,"x_max":472,"o":"m 438 561 l 246 561 l 246 182 q 270 117 246 133 q 333 100 294 100 q 394 106 361 100 q 453 121 428 113 l 472 28 q 401 8 444 17 q 311 0 358 0 q 169 42 214 0 q 125 165 125 85 l 125 561 l 28 561 l 28 653 l 125 653 l 125 861 l 246 861 l 246 653 l 438 653 l 438 561 z "},"u":{"ha":749,"x_min":94,"x_max":654,"o":"m 532 653 l 654 653 l 654 0 l 558 0 l 542 82 l 536 82 q 447 15 500 42 q 322 -12 393 -12 q 158 45 221 -12 q 94 219 94 103 l 94 653 l 217 653 l 217 235 q 227 164 217 193 q 255 117 238 135 q 296 92 272 100 q 347 85 319 85 q 447 108 403 85 q 532 174 492 132 l 532 653 z "},"v":{"ha":643,"x_min":18,"x_max":626,"o":"m 496 653 l 626 653 l 383 0 l 264 0 l 18 653 l 150 653 l 297 204 l 322 101 l 328 101 l 351 203 l 496 653 z "},"w":{"ha":989,"x_min":15,"x_max":976,"o":"m 15 653 l 146 653 l 257 242 l 282 96 l 288 96 l 318 242 l 431 653 l 563 653 l 678 242 l 707 96 l 713 96 l 743 242 l 851 653 l 976 653 l 778 0 l 639 0 l 528 400 l 496 561 l 463 400 l 349 0 l 217 0 l 15 653 z "},"x":{"ha":622,"x_min":15,"x_max":610,"o":"m 381 331 l 610 0 l 471 0 l 358 164 l 307 249 l 260 165 l 151 0 l 15 0 l 242 331 l 26 653 l 164 653 l 267 493 l 317 410 l 365 493 l 461 653 l 594 653 l 381 331 z "},"y":{"ha":640,"x_min":13,"x_max":631,"o":"m 13 653 l 143 653 l 282 279 l 329 124 l 332 124 l 379 279 l 506 653 l 631 653 l 379 -56 q 274 -240 338 -174 q 124 -337 211 -307 l 71 -240 q 187 -168 136 -215 q 265 -37 238 -121 l 278 0 l 13 653 z "},"z":{"ha":571,"x_min":35,"x_max":538,"o":"m 531 582 l 185 92 l 538 92 l 538 0 l 35 0 l 35 75 l 381 561 l 58 561 l 58 653 l 531 653 l 531 582 z "},"€":{"ha":751,"x_min":7,"x_max":724,"o":"m 500 93 q 602 104 558 93 q 690 136 646 115 l 719 33 q 619 -1 671 10 q 486 -12 568 -12 q 353 8 415 -12 q 240 68 290 28 q 156 169 190 108 q 108 310 122 229 l 7 310 l 7 381 l 99 381 q 97 417 97 407 q 97 439 97 428 l 97 464 l 7 464 l 7 535 l 110 535 q 232 793 133 699 q 493 888 331 888 q 569 884 536 888 q 628 874 601 881 q 677 858 654 867 q 724 836 700 849 l 693 736 q 600 771 640 760 q 510 782 560 782 q 415 766 461 782 q 333 719 369 750 q 272 641 296 688 q 242 535 247 594 l 619 535 l 619 464 l 231 464 l 231 447 q 231 421 231 433 q 232 381 231 408 l 619 381 l 619 310 l 243 310 q 277 209 253 250 q 335 142 301 168 q 412 105 369 117 q 500 93 454 93 z "},"‚":{"ha":264,"x_min":29,"x_max":222,"o":"m 107 -8 q 53 22 71 -4 q 35 81 35 49 q 58 140 35 114 q 122 167 81 167 q 156 161 139 167 q 188 140 174 156 q 213 99 203 125 q 222 35 222 74 q 179 -103 222 -40 q 69 -201 136 -165 l 29 -146 q 94 -94 65 -126 q 132 -12 122 -61 l 107 -8 z "},"ƒ":{"ha":617,"x_min":-37,"x_max":651,"o":"m 278 76 q 237 -72 265 -12 q 170 -167 208 -131 q 88 -223 132 -204 q -3 -250 43 -242 l -37 -158 q 28 -135 -3 -150 q 83 -94 58 -119 q 126 -30 108 -68 q 151 64 143 8 l 224 563 l 128 563 l 128 653 l 236 653 l 251 763 q 277 870 260 819 q 326 959 294 921 q 404 1019 357 997 q 518 1042 451 1042 q 651 1011 588 1042 l 619 924 q 574 938 599 933 q 525 942 549 942 q 420 894 456 942 q 371 749 385 847 l 358 653 l 544 653 l 544 561 l 346 561 l 278 76 z "},"„":{"ha":535,"x_min":29,"x_max":493,"o":"m 107 -8 q 53 22 71 -4 q 35 81 35 49 q 58 140 35 114 q 122 167 81 167 q 156 161 139 167 q 188 140 174 156 q 213 99 203 125 q 222 35 222 74 q 179 -103 222 -40 q 69 -201 136 -165 l 29 -146 q 94 -94 65 -126 q 132 -12 122 -61 l 107 -8 m 378 -8 q 324 22 342 -4 q 306 81 306 49 q 328 140 306 114 q 393 167 351 167 q 427 161 410 167 q 459 140 444 156 q 483 99 474 125 q 493 35 493 74 q 450 -103 493 -40 q 340 -201 407 -165 l 300 -146 q 365 -94 336 -126 q 403 -12 393 -61 l 378 -8 z "},"†":{"ha":488,"x_min":14,"x_max":474,"o":"m 474 653 l 474 550 l 306 550 l 306 -56 l 183 -56 l 183 550 l 14 550 l 14 653 l 183 653 l 183 875 l 306 875 l 306 653 l 474 653 z "},"‡":{"ha":488,"x_min":14,"x_max":474,"o":"m 474 269 l 474 167 l 306 167 l 306 -56 l 183 -56 l 183 167 l 14 167 l 14 269 l 183 269 l 183 550 l 14 550 l 14 653 l 183 653 l 183 875 l 306 875 l 306 653 l 474 653 l 474 550 l 306 550 l 306 269 l 474 269 z "},"ˆ":{"ha":493,"x_min":38,"x_max":461,"o":"m 461 771 l 356 771 l 253 933 l 144 771 l 38 771 l 211 1000 l 293 1000 l 461 771 z "},"‰":{"ha":1707,"x_min":42,"x_max":1665,"o":"m 229 0 l 836 1042 l 926 1042 l 319 0 l 229 0 m 1096 247 q 1081 147 1096 194 q 1038 65 1067 100 q 965 8 1008 29 q 867 -12 922 -12 q 770 8 813 -12 q 699 65 728 29 q 656 147 671 100 q 642 247 642 194 q 657 347 642 300 q 702 428 672 393 q 774 485 732 464 q 871 506 817 506 q 967 485 925 506 q 1038 428 1008 464 q 1081 347 1067 393 q 1096 247 1096 300 m 996 247 q 990 317 996 283 q 969 376 983 350 q 930 418 954 403 q 871 433 906 433 q 813 418 838 433 q 772 378 788 403 q 749 319 757 353 q 742 247 742 285 q 749 176 742 210 q 770 116 756 142 q 809 75 785 90 q 867 60 833 60 q 965 112 933 60 q 996 247 996 164 m 496 783 q 481 683 496 731 q 438 601 467 636 q 365 544 408 565 q 267 524 322 524 q 170 544 213 524 q 99 601 128 565 q 56 683 71 636 q 42 783 42 731 q 57 883 42 836 q 102 965 72 929 q 174 1021 132 1000 q 271 1042 217 1042 q 367 1021 325 1042 q 438 965 408 1000 q 481 883 467 929 q 496 783 496 836 m 396 783 q 390 853 396 819 q 369 913 383 886 q 330 954 354 939 q 271 969 306 969 q 213 954 238 969 q 172 914 188 939 q 149 855 157 889 q 142 783 142 821 q 149 712 142 746 q 170 652 156 678 q 209 611 185 626 q 267 596 233 596 q 365 648 333 596 q 396 783 396 700 m 1665 247 q 1651 147 1665 194 q 1607 65 1636 100 q 1535 8 1578 29 q 1436 -12 1492 -12 q 1340 8 1382 -12 q 1269 65 1297 29 q 1226 147 1240 100 q 1211 247 1211 194 q 1226 347 1211 300 q 1272 428 1242 393 q 1344 485 1301 464 q 1440 506 1386 506 q 1536 485 1494 506 q 1607 428 1578 464 q 1651 347 1636 393 q 1665 247 1665 300 m 1565 247 q 1559 317 1565 283 q 1538 376 1553 350 q 1499 418 1524 403 q 1440 433 1475 433 q 1382 418 1407 433 q 1342 378 1357 403 q 1319 319 1326 353 q 1311 247 1311 285 q 1318 176 1311 210 q 1340 116 1325 142 q 1378 75 1354 90 q 1436 60 1403 60 q 1534 112 1503 60 q 1565 247 1565 164 z "},"Š":{"ha":701,"x_min":61,"x_max":643,"o":"m 357 888 q 481 877 421 888 q 599 839 540 867 l 568 733 q 460 773 508 761 q 363 785 413 785 q 238 750 283 785 q 192 653 192 715 q 226 568 192 600 q 338 513 260 536 l 425 485 q 594 383 544 447 q 643 238 643 318 q 620 134 643 181 q 556 55 597 88 q 460 5 515 22 q 338 -12 404 -12 q 202 -1 271 -12 q 65 43 133 11 l 96 147 q 213 104 156 118 q 332 90 269 90 q 460 125 407 90 q 513 228 513 160 q 505 274 513 253 q 478 315 497 296 q 428 351 460 335 q 347 383 396 368 l 260 411 q 113 494 164 442 q 61 638 61 547 q 137 820 61 753 q 357 888 213 888 m 140 1174 l 251 1174 l 360 1053 l 469 1174 l 579 1174 l 406 988 l 310 988 l 140 1174 z "},"‹":{"ha":436,"x_min":64,"x_max":375,"o":"m 269 106 l 64 328 l 269 551 l 375 551 l 186 328 l 375 106 l 269 106 z "},"Œ":{"ha":1168,"x_min":64,"x_max":1107,"o":"m 467 -12 q 308 15 382 -12 q 181 97 235 42 q 95 238 126 153 q 64 440 64 324 q 95 633 64 550 q 181 773 126 717 q 308 858 235 829 q 467 888 382 888 q 531 885 496 888 q 592 875 565 882 l 1103 875 l 1103 769 l 717 769 l 717 507 l 1067 507 l 1067 403 l 717 403 l 717 106 l 1107 106 l 1107 0 l 586 0 q 526 -10 558 -7 q 467 -12 493 -12 m 474 785 q 276 702 349 785 q 203 443 203 619 q 274 178 203 265 q 472 90 346 90 q 533 97 501 90 q 589 117 564 104 l 589 764 q 474 785 536 785 z "},"Ž":{"ha":710,"x_min":36,"x_max":675,"o":"m 668 875 l 668 799 l 188 103 l 675 103 l 675 0 l 36 0 l 36 90 l 508 772 l 57 772 l 57 875 l 668 875 m 147 1174 l 253 1174 l 364 1057 l 475 1174 l 586 1174 l 413 988 l 317 988 l 147 1174 z "},"“":{"ha":554,"x_min":42,"x_max":506,"o":"m 157 847 q 211 817 193 843 q 229 758 229 790 q 208 699 229 725 q 144 672 186 672 q 110 678 128 672 q 76 700 92 685 q 51 742 61 715 q 42 808 42 768 q 85 944 42 883 q 194 1040 128 1004 l 235 985 q 170 933 199 965 q 132 851 142 900 l 157 847 m 428 847 q 482 817 464 843 q 500 758 500 790 q 478 699 500 725 q 415 672 457 672 q 381 678 399 672 q 347 700 363 685 q 322 742 332 715 q 313 808 313 768 q 356 944 313 883 q 465 1040 399 1004 l 506 985 q 441 933 469 965 q 403 851 413 900 l 428 847 z "},"”":{"ha":554,"x_min":49,"x_max":513,"o":"m 126 865 q 72 896 90 869 q 54 954 54 922 q 77 1014 54 988 q 142 1040 100 1040 q 176 1035 158 1040 q 208 1014 193 1029 q 232 973 222 999 q 242 908 242 947 q 199 771 242 833 q 89 672 156 708 l 49 728 q 113 780 85 747 q 151 861 142 813 l 126 865 m 397 865 q 343 896 361 869 q 325 954 325 922 q 348 1014 325 988 q 413 1040 371 1040 q 447 1035 429 1040 q 478 1014 464 1029 q 503 973 493 999 q 513 908 513 947 q 469 771 513 833 q 360 672 426 708 l 319 728 q 384 780 356 747 q 422 861 413 813 l 397 865 z "},"•":{"ha":513,"x_min":83,"x_max":431,"o":"m 83 369 q 97 436 83 404 q 135 492 111 468 q 190 529 158 515 q 257 543 221 543 q 324 529 292 543 q 379 492 356 515 q 417 436 403 468 q 431 369 431 404 q 417 302 431 333 q 379 247 403 271 q 324 210 356 224 q 257 196 292 196 q 190 210 221 196 q 135 247 158 224 q 97 302 111 271 q 83 369 83 333 z "},"˜":{"ha":554,"x_min":47,"x_max":449,"o":"m 47 828 q 72 938 47 894 q 158 982 96 982 q 210 972 188 982 q 254 949 233 961 q 294 927 275 938 q 336 917 314 917 q 382 986 382 917 l 449 986 q 425 874 449 915 q 343 833 401 833 q 286 843 311 833 q 240 865 261 853 q 200 886 218 876 q 165 896 182 896 q 115 828 115 896 l 47 828 z "},"™":{"ha":1003,"x_min":56,"x_max":968,"o":"m 431 875 l 431 815 l 278 815 l 278 381 l 206 381 l 206 815 l 56 815 l 56 875 l 431 875 m 501 875 l 581 875 l 685 561 q 699 512 692 538 q 713 463 706 486 l 715 463 q 728 508 721 482 q 744 561 736 535 l 846 875 l 925 875 l 968 381 l 897 381 l 878 644 q 874 708 875 678 q 872 782 874 739 l 869 782 q 848 703 858 739 q 831 644 838 667 l 743 381 l 683 381 l 596 646 q 576 711 585 681 q 557 782 568 742 l 554 782 q 551 706 553 742 q 547 644 550 669 l 529 381 l 460 381 l 501 875 z "},"š":{"ha":565,"x_min":49,"x_max":518,"o":"m 461 531 q 378 561 415 553 q 303 569 340 569 q 204 545 236 569 q 172 481 172 521 q 194 430 172 451 q 288 388 217 408 l 329 375 q 470 303 422 347 q 518 185 518 260 q 452 42 518 96 q 268 -12 386 -12 q 148 -1 206 -12 q 49 29 90 10 l 78 125 q 165 94 118 106 q 261 82 213 82 q 360 104 324 82 q 397 178 397 126 q 365 241 397 222 q 274 278 333 260 l 231 292 q 97 365 140 321 q 53 478 53 408 q 71 554 53 519 q 120 613 89 589 q 194 649 151 636 q 289 663 238 663 q 390 653 338 663 q 489 624 442 644 l 461 531 m 86 958 l 192 958 l 289 842 l 386 958 l 497 958 l 338 772 l 242 772 l 86 958 z "},"›":{"ha":429,"x_min":64,"x_max":375,"o":"m 64 106 l 253 328 l 64 551 l 169 551 l 375 328 l 169 106 l 64 106 z "},"œ":{"ha":1176,"x_min":54,"x_max":1122,"o":"m 1122 313 l 667 313 l 667 307 q 723 140 667 199 q 881 82 779 82 q 971 90 933 82 q 1057 118 1008 99 l 1082 28 q 990 -1 1042 10 q 876 -12 939 -12 q 718 19 788 -12 q 608 117 649 51 q 506 19 568 50 q 363 -12 444 -12 q 238 9 294 -12 q 141 73 182 31 q 77 177 100 115 q 54 319 54 239 q 78 465 54 401 q 143 573 101 529 q 242 640 185 617 q 368 663 300 663 q 611 538 528 663 q 710 631 651 600 q 854 663 768 663 q 967 642 917 663 q 1051 583 1017 621 q 1103 493 1085 546 q 1122 376 1122 440 l 1122 313 m 549 326 q 533 438 549 392 q 492 513 518 483 q 433 555 467 542 q 364 568 400 568 q 294 557 328 568 q 236 518 261 546 q 197 444 211 490 q 182 326 182 397 q 197 215 182 261 q 238 139 213 168 q 297 96 264 110 q 367 82 331 82 q 436 94 403 82 q 494 134 469 106 q 534 209 519 163 q 549 326 549 256 m 996 400 q 988 467 996 436 q 963 522 981 499 q 917 560 944 546 q 847 574 889 574 q 726 525 771 574 q 671 397 682 476 l 996 400 z "},"ž":{"ha":571,"x_min":35,"x_max":538,"o":"m 531 582 l 185 92 l 538 92 l 538 0 l 35 0 l 35 75 l 381 561 l 58 561 l 58 653 l 531 653 l 531 582 m 100 958 l 206 958 l 303 842 l 400 958 l 511 958 l 351 772 l 256 772 l 100 958 z "},"Ÿ":{"ha":726,"x_min":14,"x_max":726,"o":"m 154 875 l 372 483 l 592 875 l 726 875 l 431 367 l 431 0 l 303 0 l 303 367 l 14 875 l 154 875 m 188 1057 q 208 1104 188 1083 q 257 1125 229 1125 q 306 1104 285 1125 q 326 1057 326 1083 q 306 1008 326 1029 q 257 986 285 986 q 208 1008 229 986 q 188 1057 188 1029 m 418 1057 q 439 1104 418 1083 q 488 1125 460 1125 q 536 1104 515 1125 q 557 1057 557 1083 q 536 1008 557 1029 q 488 986 515 986 q 439 1008 460 986 q 418 1057 418 1029 z "},"¡":{"ha":342,"x_min":88,"x_max":256,"o":"m 88 571 q 113 635 88 611 q 172 658 138 658 q 231 635 207 658 q 256 571 256 611 q 231 510 256 535 q 172 485 207 485 q 113 510 136 485 q 88 571 89 535 m 107 -340 l 121 356 l 221 356 l 238 -340 l 107 -340 z "},"¢":{"ha":708,"x_min":89,"x_max":608,"o":"m 439 189 q 517 199 483 189 q 582 224 550 208 l 608 132 q 478 96 553 104 l 478 -28 l 374 -28 l 374 97 q 260 128 313 104 q 170 192 208 151 q 110 291 132 233 q 89 425 89 349 q 167 653 89 568 q 374 753 244 738 l 374 888 l 478 888 l 478 753 q 540 742 508 750 q 606 719 571 735 l 578 626 q 510 653 549 643 q 431 663 472 663 q 272 603 329 663 q 214 429 214 543 q 233 313 214 358 q 285 239 253 267 q 357 200 317 211 q 439 189 397 189 z "},"£":{"ha":701,"x_min":76,"x_max":639,"o":"m 104 0 l 76 83 q 197 203 161 129 q 214 382 233 278 l 85 382 l 85 469 l 200 469 q 190 540 194 501 q 185 619 185 579 q 206 731 185 681 q 265 815 228 781 q 355 869 303 850 q 468 888 407 888 q 563 877 519 888 q 628 853 606 867 l 600 761 q 541 781 574 772 q 468 789 508 789 q 341 741 383 789 q 299 618 299 693 q 303 538 299 574 q 315 469 308 503 l 543 469 l 543 382 l 326 382 q 319 226 338 293 q 235 108 301 158 l 236 103 l 639 103 l 639 0 l 104 0 z "},"¤":{"ha":713,"x_min":49,"x_max":664,"o":"m 106 96 l 49 153 l 165 269 q 122 426 122 333 q 133 513 122 474 q 164 582 144 551 l 50 697 l 107 754 l 221 639 q 358 679 278 679 q 429 668 396 679 q 490 638 463 657 l 607 754 l 664 697 l 547 581 q 578 510 567 549 q 590 426 590 471 q 579 338 590 378 q 549 267 568 297 l 664 151 l 607 94 l 490 210 q 428 182 463 192 q 354 172 394 172 q 221 211 279 172 l 106 96 m 497 426 q 463 559 497 511 q 358 607 428 607 q 253 562 292 607 q 215 426 215 517 q 251 292 215 339 q 354 244 288 244 q 409 254 383 244 q 455 286 435 264 q 486 343 475 308 q 497 426 497 378 z "},"¥":{"ha":706,"x_min":4,"x_max":703,"o":"m 656 306 l 656 219 l 411 219 l 411 0 l 289 0 l 289 219 l 44 219 l 44 306 l 289 306 l 289 367 l 254 428 l 44 428 l 44 514 l 206 514 l 4 875 l 144 875 l 356 469 l 568 875 l 703 875 l 494 514 l 656 514 l 656 428 l 446 428 l 411 367 l 411 306 l 656 306 z "},"¦":{"ha":326,"x_min":111,"x_max":215,"o":"m 111 528 l 111 1042 l 215 1042 l 215 528 l 111 528 m 111 -250 l 111 261 l 215 261 l 215 -250 l 111 -250 z "},"§":{"ha":721,"x_min":83,"x_max":638,"o":"m 121 32 q 213 -1 167 10 q 318 -12 260 -12 q 431 17 394 -12 q 468 93 468 47 q 461 129 468 114 q 440 156 454 144 q 401 179 425 168 q 342 203 376 190 l 257 235 q 129 313 175 267 q 83 429 83 360 q 108 523 83 482 q 171 592 133 564 q 139 690 139 632 q 156 768 139 732 q 205 831 172 804 q 284 872 238 857 q 389 888 331 888 q 492 878 443 888 q 589 849 542 869 l 561 761 q 478 792 515 783 q 403 800 440 800 q 290 773 326 800 q 253 700 253 746 q 260 664 253 679 q 281 637 267 649 q 320 614 296 625 q 379 590 344 603 l 464 558 q 592 480 546 526 q 638 364 638 433 q 613 269 638 310 q 550 200 588 228 q 574 156 565 181 q 582 103 582 132 q 565 24 582 61 q 516 -41 549 -14 q 437 -84 483 -68 q 332 -100 390 -100 q 199 -88 257 -100 q 93 -56 140 -76 l 121 32 m 525 349 q 495 422 525 397 q 417 464 465 446 l 332 494 q 285 513 308 503 q 240 535 261 522 q 208 496 221 518 q 196 444 196 474 q 226 372 196 396 q 304 329 256 347 l 389 299 q 435 279 413 289 q 479 258 458 269 q 512 297 499 275 q 525 349 525 318 z "},"¨":{"ha":464,"x_min":47,"x_max":417,"o":"m 47 865 q 68 913 47 892 q 117 933 89 933 q 165 913 144 933 q 186 865 186 892 q 165 816 186 838 q 117 794 144 794 q 68 816 89 794 q 47 865 47 838 m 278 865 q 299 913 278 892 q 347 933 319 933 q 396 913 375 933 q 417 865 417 892 q 396 816 417 838 q 347 794 375 794 q 299 816 319 794 q 278 865 278 838 z "},"©":{"ha":981,"x_min":50,"x_max":931,"o":"m 526 258 q 582 265 558 258 q 629 283 606 272 l 649 217 q 518 190 592 190 q 424 206 468 190 q 346 251 379 221 q 293 326 313 281 q 274 433 274 372 q 292 534 274 489 q 342 611 310 579 q 419 660 374 643 q 518 676 464 676 q 578 672 549 676 q 646 651 607 667 l 626 583 q 528 610 578 610 q 408 565 453 610 q 364 436 364 519 q 378 352 364 386 q 415 297 392 318 q 467 267 438 276 q 526 258 496 258 m 493 888 q 661 859 582 888 q 800 774 740 831 q 895 634 860 718 q 931 438 931 550 q 894 244 931 328 q 797 103 858 160 q 656 17 736 46 q 488 -12 576 -12 q 319 16 399 -12 q 181 101 240 44 q 85 241 121 157 q 50 438 50 325 q 86 631 50 547 q 183 772 122 715 q 324 858 244 829 q 493 888 404 888 m 493 840 q 344 815 415 840 q 221 738 274 789 q 137 611 168 686 q 106 438 106 536 q 136 260 106 336 q 219 135 167 185 q 340 60 271 85 q 488 35 410 35 q 635 60 565 35 q 759 138 706 86 q 844 264 813 189 q 875 438 875 339 q 844 615 875 539 q 762 740 814 690 q 640 815 710 790 q 493 840 571 840 z "},"ª":{"ha":463,"x_min":46,"x_max":404,"o":"m 79 772 q 159 806 124 796 q 243 817 194 817 q 308 809 278 817 q 359 783 338 801 q 392 735 381 765 q 404 661 404 706 l 404 381 l 338 381 l 328 428 l 326 428 q 264 385 299 397 q 189 372 229 372 q 86 405 126 372 q 46 496 46 438 q 99 599 46 564 q 240 633 153 633 l 324 633 l 324 671 q 299 735 324 718 q 235 751 275 751 q 181 744 211 751 q 110 714 150 736 l 79 772 m 324 579 l 256 576 q 158 552 186 574 q 129 499 129 531 q 153 445 129 458 q 207 432 176 432 q 269 446 238 432 q 324 490 300 460 l 324 579 z "},"«":{"ha":679,"x_min":64,"x_max":625,"o":"m 519 106 l 314 328 l 519 551 l 625 551 l 436 328 l 625 106 l 519 106 m 269 106 l 64 328 l 269 551 l 375 551 l 186 328 l 375 106 l 269 106 z "},"®":{"ha":739,"x_min":56,"x_max":683,"o":"m 257 819 l 394 819 q 480 790 450 819 q 510 715 510 760 q 488 648 510 672 q 439 613 467 624 l 529 469 l 461 469 l 382 603 l 313 603 l 313 469 l 257 469 l 257 819 m 313 649 l 371 649 q 428 663 406 649 q 451 713 451 678 q 433 759 451 746 q 379 772 414 772 l 313 772 l 313 649 m 683 650 q 660 512 683 571 q 596 413 638 453 q 497 352 554 372 q 371 332 439 332 q 244 352 301 332 q 144 410 186 372 q 79 506 103 449 q 56 639 56 564 q 78 776 56 717 q 143 874 101 835 q 242 933 185 914 q 368 953 299 953 q 494 933 436 953 q 594 876 553 914 q 660 781 636 838 q 683 650 683 725 m 636 644 q 615 765 636 714 q 556 850 593 817 q 471 900 519 883 q 368 917 422 917 q 266 901 314 917 q 181 853 218 886 q 124 769 144 821 q 103 644 103 717 q 122 522 103 574 q 177 435 142 469 q 262 384 213 401 q 371 367 311 367 q 473 383 425 367 q 558 433 521 399 q 615 519 594 467 q 636 644 636 571 z "},"°":{"ha":543,"x_min":50,"x_max":499,"o":"m 499 649 q 440 473 499 538 q 272 408 381 408 q 111 473 172 408 q 50 649 50 538 q 66 747 50 703 q 112 822 82 790 q 183 870 142 853 q 276 888 225 888 q 367 870 326 888 q 438 822 408 853 q 483 747 467 790 q 499 649 499 703 m 406 649 q 376 769 406 724 q 276 815 346 815 q 176 772 210 815 q 143 649 143 728 q 174 526 143 572 q 272 481 206 481 q 368 521 331 481 q 406 649 406 561 z "},"±":{"ha":651,"x_min":49,"x_max":603,"o":"m 561 85 l 561 0 l 90 0 l 90 85 l 561 85 m 603 515 l 603 431 l 368 431 l 368 196 l 283 196 l 283 431 l 49 431 l 49 515 l 283 515 l 283 750 l 368 750 l 368 515 l 603 515 z "},"´":{"ha":351,"x_min":44,"x_max":278,"o":"m 131 771 l 44 771 l 156 1000 l 278 1000 l 131 771 z "},"¶":{"ha":767,"x_min":49,"x_max":656,"o":"m 571 -250 l 571 794 l 444 794 l 444 -250 l 358 -250 l 358 365 q 126 435 203 365 q 49 624 49 504 q 71 740 49 690 q 134 822 93 789 q 231 871 175 854 q 356 888 288 888 l 656 888 l 656 -250 l 571 -250 z "},"¸":{"ha":397,"x_min":79,"x_max":336,"o":"m 178 0 l 250 0 l 214 -65 q 306 -96 276 -69 q 336 -162 336 -122 q 324 -213 336 -192 q 290 -249 311 -235 q 240 -271 268 -264 q 182 -278 213 -278 q 123 -273 150 -278 q 79 -261 96 -268 l 96 -203 q 133 -212 114 -210 q 172 -215 153 -215 q 231 -203 210 -215 q 253 -165 253 -192 q 225 -123 253 -137 q 126 -108 197 -108 l 178 0 z "},"º":{"ha":1164,"x_min":0,"x_max":0,"o":""},"»":{"ha":679,"x_min":64,"x_max":625,"o":"m 314 106 l 503 328 l 314 551 l 419 551 l 625 328 l 419 106 l 314 106 m 64 106 l 253 328 l 64 551 l 169 551 l 375 328 l 169 106 l 64 106 z "},"¿":{"ha":611,"x_min":88,"x_max":551,"o":"m 354 -347 q 242 -330 292 -347 q 158 -281 193 -312 q 106 -207 124 -250 q 88 -114 88 -164 q 99 -46 88 -79 q 131 18 111 -12 q 176 76 151 49 q 226 126 201 103 q 315 217 283 178 q 347 304 347 256 q 344 339 347 324 q 335 376 342 354 l 439 396 q 452 351 447 375 q 457 303 457 326 q 426 193 457 242 q 336 85 396 144 q 289 38 311 60 q 250 -8 267 15 q 223 -58 233 -32 q 213 -112 213 -83 q 220 -160 213 -137 q 245 -201 228 -183 q 291 -231 263 -219 q 361 -242 319 -242 q 428 -233 393 -242 q 499 -199 464 -224 l 551 -290 q 457 -333 511 -319 q 354 -347 403 -347 m 460 571 q 435 510 460 535 q 375 485 410 485 q 316 510 340 485 q 292 571 292 535 q 316 635 292 611 q 375 658 340 658 q 435 635 410 658 q 460 571 460 611 z "},"À":{"ha":819,"x_min":3,"x_max":818,"o":"m 356 875 l 469 875 l 818 0 l 685 0 l 589 243 l 229 243 l 135 0 l 3 0 l 356 875 m 264 344 l 551 344 l 493 496 q 450 611 469 556 q 411 725 431 667 l 408 725 q 368 613 389 667 q 324 496 347 558 l 264 344 m 213 1158 l 356 1158 l 467 986 l 367 986 l 213 1158 z "},"Á":{"ha":819,"x_min":3,"x_max":818,"o":"m 356 875 l 469 875 l 818 0 l 685 0 l 589 243 l 229 243 l 135 0 l 3 0 l 356 875 m 264 344 l 551 344 l 493 496 q 450 611 469 556 q 411 725 431 667 l 408 725 q 368 613 389 667 q 324 496 347 558 l 264 344 m 454 986 l 354 986 l 465 1158 l 608 1158 l 454 986 z "},"Â":{"ha":819,"x_min":3,"x_max":818,"o":"m 356 875 l 469 875 l 818 0 l 685 0 l 589 243 l 229 243 l 135 0 l 3 0 l 356 875 m 264 344 l 551 344 l 493 496 q 450 611 469 556 q 411 725 431 667 l 408 725 q 368 613 389 667 q 324 496 347 558 l 264 344 m 363 1172 l 458 1172 l 632 986 l 521 986 l 410 1103 l 299 986 l 193 986 l 363 1172 z "},"Ã":{"ha":819,"x_min":3,"x_max":818,"o":"m 356 875 l 469 875 l 818 0 l 685 0 l 589 243 l 229 243 l 135 0 l 3 0 l 356 875 m 264 344 l 551 344 l 493 496 q 450 611 469 556 q 411 725 431 667 l 408 725 q 368 613 389 667 q 324 496 347 558 l 264 344 m 196 986 q 224 1094 196 1050 q 317 1139 253 1139 q 369 1129 346 1139 q 412 1108 392 1119 q 451 1088 432 1097 q 493 1078 471 1078 q 533 1099 521 1078 q 547 1143 544 1119 l 617 1143 q 610 1087 617 1114 q 588 1038 603 1060 q 552 1003 574 1017 q 501 990 531 990 q 447 999 472 990 q 399 1020 421 1008 q 357 1041 376 1032 q 321 1050 338 1050 q 280 1032 292 1050 q 265 986 268 1014 l 196 986 z "},"Ä":{"ha":819,"x_min":3,"x_max":818,"o":"m 356 875 l 469 875 l 818 0 l 685 0 l 589 243 l 229 243 l 135 0 l 3 0 l 356 875 m 264 344 l 551 344 l 493 496 q 450 611 469 556 q 411 725 431 667 l 408 725 q 368 613 389 667 q 324 496 347 558 l 264 344 m 225 1057 q 246 1104 225 1083 q 294 1125 267 1125 q 343 1104 322 1125 q 364 1057 364 1083 q 343 1008 364 1029 q 294 986 322 986 q 246 1008 267 986 q 225 1057 225 1029 m 456 1057 q 476 1104 456 1083 q 525 1125 497 1125 q 574 1104 553 1125 q 594 1057 594 1083 q 574 1008 594 1029 q 525 986 553 986 q 476 1008 497 986 q 456 1057 456 1029 z "},"Å":{"ha":819,"x_min":3,"x_max":818,"o":"m 356 875 l 469 875 l 818 0 l 685 0 l 589 243 l 229 243 l 135 0 l 3 0 l 356 875 m 264 344 l 551 344 l 493 496 q 450 611 469 556 q 411 725 431 667 l 408 725 q 368 613 389 667 q 324 496 347 558 l 264 344 m 276 1056 q 315 1144 276 1117 q 411 1171 354 1171 q 508 1144 469 1171 q 546 1056 546 1118 q 535 1003 546 1025 q 505 967 524 981 q 462 947 486 953 q 411 940 438 940 q 317 969 357 940 q 276 1056 276 997 m 344 1056 q 362 1005 344 1024 q 411 986 379 986 q 460 1005 443 986 q 478 1056 478 1024 q 460 1106 478 1088 q 411 1125 443 1125 q 362 1106 379 1125 q 344 1056 344 1088 z "},"Æ":{"ha":1096,"x_min":3,"x_max":1035,"o":"m 3 0 l 453 875 l 1031 875 l 1031 769 l 658 769 l 658 507 l 994 507 l 994 403 l 658 403 l 658 106 l 1035 106 l 1035 0 l 536 0 l 536 243 l 272 243 l 154 0 l 3 0 m 536 779 l 315 340 l 536 340 l 536 779 z "},"Ç":{"ha":776,"x_min":63,"x_max":731,"o":"m 493 93 q 608 104 563 93 q 697 136 653 115 l 726 33 q 624 0 678 11 q 490 -12 569 -11 l 467 -65 q 532 -76 506 -67 q 574 -102 558 -86 q 596 -137 589 -118 q 603 -176 603 -156 q 555 -266 603 -235 q 435 -297 507 -297 q 376 -292 403 -297 q 332 -281 349 -287 l 349 -222 q 386 -232 367 -229 q 425 -235 406 -235 q 519 -179 519 -235 q 515 -152 519 -165 q 494 -129 510 -139 q 452 -114 479 -119 q 379 -108 425 -108 l 426 -10 q 283 32 349 -1 q 167 122 217 65 q 90 257 118 178 q 63 438 63 336 q 94 628 63 544 q 183 770 126 713 q 317 858 239 828 q 486 888 394 888 q 628 874 572 888 q 731 836 683 860 l 700 736 q 651 756 674 747 q 605 771 628 765 q 558 779 582 776 q 503 782 533 782 q 387 763 442 782 q 291 703 332 744 q 226 595 250 661 q 201 436 201 529 q 225 276 201 342 q 288 171 249 211 q 381 112 328 131 q 493 93 433 93 z "},"È":{"ha":704,"x_min":111,"x_max":643,"o":"m 111 875 l 639 875 l 639 769 l 239 769 l 239 507 l 603 507 l 603 403 l 239 403 l 239 106 l 643 106 l 643 0 l 111 0 l 111 875 m 236 1158 l 379 1158 l 490 986 l 390 986 l 236 1158 z "},"É":{"ha":696,"x_min":111,"x_max":643,"o":"m 111 875 l 639 875 l 639 769 l 239 769 l 239 507 l 603 507 l 603 403 l 239 403 l 239 106 l 643 106 l 643 0 l 111 0 l 111 875 m 381 986 l 281 986 l 392 1158 l 535 1158 l 381 986 z "},"Ê":{"ha":696,"x_min":111,"x_max":643,"o":"m 111 875 l 639 875 l 639 769 l 239 769 l 239 507 l 603 507 l 603 403 l 239 403 l 239 106 l 643 106 l 643 0 l 111 0 l 111 875 m 317 1172 l 413 1172 l 586 986 l 475 986 l 364 1103 l 253 986 l 147 986 l 317 1172 z "},"Ë":{"ha":696,"x_min":111,"x_max":643,"o":"m 111 875 l 639 875 l 639 769 l 239 769 l 239 507 l 603 507 l 603 403 l 239 403 l 239 106 l 643 106 l 643 0 l 111 0 l 111 875 m 193 1057 q 214 1104 193 1083 q 263 1125 235 1125 q 311 1104 290 1125 q 332 1057 332 1083 q 311 1008 332 1029 q 263 986 290 986 q 214 1008 235 986 q 193 1057 193 1029 m 424 1057 q 444 1104 424 1083 q 493 1125 465 1125 q 542 1104 521 1125 q 563 1057 563 1083 q 542 1008 563 1029 q 493 986 521 986 q 444 1008 465 986 q 424 1057 424 1029 z "},"Ì":{"ha":350,"x_min":-29,"x_max":239,"o":"m 239 875 l 239 0 l 111 0 l 111 875 l 239 875 m -29 1158 l 114 1158 l 225 986 l 125 986 l -29 1158 z "},"Í":{"ha":350,"x_min":111,"x_max":378,"o":"m 239 875 l 239 0 l 111 0 l 111 875 l 239 875 m 224 986 l 124 986 l 235 1158 l 378 1158 l 224 986 z "},"Î":{"ha":350,"x_min":-43,"x_max":396,"o":"m 239 875 l 239 0 l 111 0 l 111 875 l 239 875 m 126 1172 l 222 1172 l 396 986 l 285 986 l 174 1103 l 63 986 l -43 986 l 126 1172 z "},"Ï":{"ha":350,"x_min":-12,"x_max":357,"o":"m 239 875 l 239 0 l 111 0 l 111 875 l 239 875 m -12 1057 q 8 1104 -12 1083 q 57 1125 29 1125 q 106 1104 85 1125 q 126 1057 126 1083 q 106 1008 126 1029 q 57 986 85 986 q 8 1008 29 986 q -12 1057 -12 1029 m 218 1057 q 239 1104 218 1083 q 288 1125 260 1125 q 336 1104 315 1125 q 357 1057 357 1083 q 336 1008 357 1029 q 288 986 315 986 q 239 1008 260 986 q 218 1057 218 1029 z "},"Ð":{"ha":933,"x_min":42,"x_max":869,"o":"m 438 875 q 610 849 531 875 q 747 770 689 822 q 837 640 804 718 q 869 457 869 561 q 831 243 869 331 q 726 101 792 156 q 573 24 660 47 q 389 0 486 0 l 153 0 l 153 414 l 42 414 l 42 500 l 153 500 l 153 875 l 438 875 m 458 500 l 458 414 l 281 414 l 281 106 l 376 106 q 507 120 443 106 q 620 174 571 135 q 700 282 669 214 q 731 457 731 350 q 708 590 731 532 q 644 688 686 649 q 544 749 603 728 q 413 769 485 769 l 281 769 l 281 500 l 458 500 z "},"Ñ":{"ha":919,"x_min":111,"x_max":810,"o":"m 111 875 l 306 875 l 599 300 l 682 119 l 686 119 l 685 328 l 685 875 l 810 875 l 810 0 l 615 0 l 332 550 l 239 763 l 235 763 l 236 522 l 236 0 l 111 0 l 111 875 m 275 986 q 303 1094 275 1050 q 396 1139 332 1139 q 448 1129 425 1139 q 491 1108 471 1119 q 531 1088 511 1097 q 572 1078 550 1078 q 612 1099 600 1078 q 626 1143 624 1119 l 696 1143 q 689 1087 696 1114 q 667 1038 682 1060 q 631 1003 653 1017 q 581 990 610 990 q 526 999 551 990 q 478 1020 500 1008 q 436 1041 456 1032 q 400 1050 417 1050 q 359 1032 371 1050 q 344 986 347 1014 l 275 986 z "},"Ò":{"ha":953,"x_min":64,"x_max":889,"o":"m 479 888 q 643 859 568 888 q 773 774 718 831 q 858 634 828 718 q 889 438 889 550 q 857 244 889 328 q 769 103 825 160 q 638 17 714 46 q 474 -12 563 -12 q 310 16 385 -12 q 180 101 235 44 q 94 241 125 157 q 64 438 64 325 q 96 631 64 547 q 183 772 128 715 q 315 858 239 829 q 479 888 390 888 m 203 438 q 224 283 203 349 q 283 175 246 218 q 372 111 321 132 q 479 90 422 90 q 585 111 536 90 q 672 175 635 132 q 729 283 708 218 q 750 438 750 349 q 728 594 750 529 q 669 702 707 660 q 581 765 632 744 q 474 785 531 785 q 367 764 417 785 q 281 700 317 743 q 224 592 244 657 q 203 438 203 526 m 319 1158 l 463 1158 l 574 986 l 474 986 l 319 1158 z "},"Ó":{"ha":953,"x_min":64,"x_max":889,"o":"m 479 888 q 643 859 568 888 q 773 774 718 831 q 858 634 828 718 q 889 438 889 550 q 857 244 889 328 q 769 103 825 160 q 638 17 714 46 q 474 -12 563 -12 q 310 16 385 -12 q 180 101 235 44 q 94 241 125 157 q 64 438 64 325 q 96 631 64 547 q 183 772 128 715 q 315 858 239 829 q 479 888 390 888 m 203 438 q 224 283 203 349 q 283 175 246 218 q 372 111 321 132 q 479 90 422 90 q 585 111 536 90 q 672 175 635 132 q 729 283 708 218 q 750 438 750 349 q 728 594 750 529 q 669 702 707 660 q 581 765 632 744 q 474 785 531 785 q 367 764 417 785 q 281 700 317 743 q 224 592 244 657 q 203 438 203 526 m 464 986 l 364 986 l 475 1158 l 618 1158 l 464 986 z "},"Ô":{"ha":953,"x_min":64,"x_max":889,"o":"m 479 888 q 643 859 568 888 q 773 774 718 831 q 858 634 828 718 q 889 438 889 550 q 857 244 889 328 q 769 103 825 160 q 638 17 714 46 q 474 -12 563 -12 q 310 16 385 -12 q 180 101 235 44 q 94 241 125 157 q 64 438 64 325 q 96 631 64 547 q 183 772 128 715 q 315 858 239 829 q 479 888 390 888 m 203 438 q 224 283 203 349 q 283 175 246 218 q 372 111 321 132 q 479 90 422 90 q 585 111 536 90 q 672 175 635 132 q 729 283 708 218 q 750 438 750 349 q 728 594 750 529 q 669 702 707 660 q 581 765 632 744 q 474 785 531 785 q 367 764 417 785 q 281 700 317 743 q 224 592 244 657 q 203 438 203 526 m 429 1172 l 525 1172 l 699 986 l 588 986 l 476 1103 l 365 986 l 260 986 l 429 1172 z "},"Õ":{"ha":953,"x_min":64,"x_max":889,"o":"m 479 888 q 643 859 568 888 q 773 774 718 831 q 858 634 828 718 q 889 438 889 550 q 857 244 889 328 q 769 103 825 160 q 638 17 714 46 q 474 -12 563 -12 q 310 16 385 -12 q 180 101 235 44 q 94 241 125 157 q 64 438 64 325 q 96 631 64 547 q 183 772 128 715 q 315 858 239 829 q 479 888 390 888 m 203 438 q 224 283 203 349 q 283 175 246 218 q 372 111 321 132 q 479 90 422 90 q 585 111 536 90 q 672 175 635 132 q 729 283 708 218 q 750 438 750 349 q 728 594 750 529 q 669 702 707 660 q 581 765 632 744 q 474 785 531 785 q 367 764 417 785 q 281 700 317 743 q 224 592 244 657 q 203 438 203 526 m 260 988 q 288 1096 260 1051 q 381 1140 317 1140 q 433 1131 410 1140 q 476 1110 456 1121 q 515 1089 496 1099 q 557 1079 535 1079 q 597 1100 585 1079 q 611 1144 608 1121 l 681 1144 q 674 1088 681 1115 q 652 1040 667 1061 q 616 1005 638 1018 q 565 992 594 992 q 510 1001 536 992 q 463 1022 485 1010 q 421 1042 440 1033 q 385 1051 401 1051 q 344 1033 356 1051 q 329 988 332 1015 l 260 988 z "},"Ö":{"ha":953,"x_min":64,"x_max":889,"o":"m 479 888 q 643 859 568 888 q 773 774 718 831 q 858 634 828 718 q 889 438 889 550 q 857 244 889 328 q 769 103 825 160 q 638 17 714 46 q 474 -12 563 -12 q 310 16 385 -12 q 180 101 235 44 q 94 241 125 157 q 64 438 64 325 q 96 631 64 547 q 183 772 128 715 q 315 858 239 829 q 479 888 390 888 m 203 438 q 224 283 203 349 q 283 175 246 218 q 372 111 321 132 q 479 90 422 90 q 585 111 536 90 q 672 175 635 132 q 729 283 708 218 q 750 438 750 349 q 728 594 750 529 q 669 702 707 660 q 581 765 632 744 q 474 785 531 785 q 367 764 417 785 q 281 700 317 743 q 224 592 244 657 q 203 438 203 526 m 290 1057 q 311 1104 290 1083 q 360 1125 332 1125 q 408 1104 388 1125 q 429 1057 429 1083 q 408 1008 429 1029 q 360 986 388 986 q 311 1008 332 986 q 290 1057 290 1029 m 521 1057 q 542 1104 521 1083 q 590 1125 563 1125 q 639 1104 618 1125 q 660 1057 660 1083 q 639 1008 660 1029 q 590 986 618 986 q 542 1008 563 986 q 521 1057 521 1029 z "},"Ø":{"ha":953,"x_min":64,"x_max":889,"o":"m 694 1039 l 750 1019 l 681 843 q 832 693 775 793 q 889 438 889 593 q 857 244 889 328 q 769 103 825 160 q 638 17 714 46 q 474 -12 563 -12 q 401 -7 438 -12 q 333 7 365 -1 l 247 -211 l 192 -187 l 276 29 q 122 180 181 81 q 64 438 64 279 q 96 631 64 547 q 183 772 128 715 q 315 858 239 829 q 479 888 390 888 q 553 882 515 888 q 625 864 592 876 l 694 1039 m 203 438 q 236 251 203 325 q 326 136 269 176 l 578 765 q 474 785 528 785 q 367 764 417 785 q 281 700 317 743 q 224 592 244 657 q 203 438 203 526 m 479 90 q 585 111 536 90 q 672 175 635 132 q 729 283 708 218 q 750 438 750 349 q 717 624 750 550 q 631 738 685 697 l 381 107 q 479 90 426 90 z "},"Ù":{"ha":889,"x_min":100,"x_max":789,"o":"m 100 875 l 228 875 l 228 351 q 279 151 228 211 q 444 92 331 92 q 609 158 557 92 q 661 335 661 225 l 661 875 l 789 875 l 789 339 q 697 74 789 160 q 444 -12 606 -12 q 191 73 282 -12 q 100 346 100 158 l 100 875 m 264 1158 l 407 1158 l 518 986 l 418 986 l 264 1158 z "},"Ú":{"ha":889,"x_min":100,"x_max":789,"o":"m 100 875 l 228 875 l 228 351 q 279 151 228 211 q 444 92 331 92 q 609 158 557 92 q 661 335 661 225 l 661 875 l 789 875 l 789 339 q 697 74 789 160 q 444 -12 606 -12 q 191 73 282 -12 q 100 346 100 158 l 100 875 m 450 986 l 350 986 l 461 1158 l 604 1158 l 450 986 z "},"Û":{"ha":889,"x_min":100,"x_max":789,"o":"m 100 875 l 228 875 l 228 351 q 279 151 228 211 q 444 92 331 92 q 609 158 557 92 q 661 335 661 225 l 661 875 l 789 875 l 789 339 q 697 74 789 160 q 444 -12 606 -12 q 191 73 282 -12 q 100 346 100 158 l 100 875 m 397 1172 l 493 1172 l 667 986 l 556 986 l 444 1103 l 333 986 l 228 986 l 397 1172 z "},"Ü":{"ha":889,"x_min":100,"x_max":789,"o":"m 100 875 l 228 875 l 228 351 q 279 151 228 211 q 444 92 331 92 q 609 158 557 92 q 661 335 661 225 l 661 875 l 789 875 l 789 339 q 697 74 789 160 q 444 -12 606 -12 q 191 73 282 -12 q 100 346 100 158 l 100 875 m 260 1057 q 281 1104 260 1083 q 329 1125 301 1125 q 378 1104 357 1125 q 399 1057 399 1083 q 378 1008 399 1029 q 329 986 357 986 q 281 1008 301 986 q 260 1057 260 1029 m 490 1057 q 511 1104 490 1083 q 560 1125 532 1125 q 608 1104 588 1125 q 629 1057 629 1083 q 608 1008 629 1029 q 560 986 588 986 q 511 1008 532 986 q 490 1057 490 1029 z "},"Ý":{"ha":706,"x_min":-3,"x_max":710,"o":"m 138 875 l 356 483 l 575 875 l 710 875 l 414 367 l 414 0 l 286 0 l 286 367 l -3 875 l 138 875 m 408 986 l 308 986 l 419 1158 l 563 1158 l 408 986 z "},"Þ":{"ha":715,"x_min":100,"x_max":651,"o":"m 100 875 l 219 875 l 219 690 q 278 703 247 699 q 344 708 310 708 q 465 690 408 708 q 563 638 521 672 q 628 556 604 604 q 651 446 651 507 q 626 317 651 372 q 556 226 601 263 q 450 172 511 190 q 318 154 389 154 q 270 156 299 154 q 219 161 242 158 l 219 0 l 100 0 l 100 875 m 219 263 q 266 253 243 256 q 321 251 289 251 q 470 299 414 251 q 526 433 526 346 q 511 513 526 479 q 469 568 496 546 q 406 601 442 590 q 332 613 371 613 q 269 608 300 613 q 219 597 239 604 l 219 263 z "},"ß":{"ha":793,"x_min":103,"x_max":731,"o":"m 103 0 l 103 667 q 121 801 103 739 q 177 906 139 863 q 276 975 215 950 q 419 1000 336 1000 q 515 985 468 1000 q 597 943 561 971 q 656 872 633 915 q 678 774 678 829 q 669 707 678 739 q 650 653 661 675 q 545 608 576 636 q 514 532 514 579 q 540 461 514 489 q 599 410 565 433 q 692 322 653 371 q 731 199 731 274 q 665 47 731 106 q 481 -12 600 -12 q 395 -5 442 -12 q 322 17 349 3 l 350 107 q 472 82 408 82 q 574 115 539 82 q 608 196 608 147 q 582 266 608 238 q 508 331 556 294 q 461 372 482 351 q 425 415 440 392 q 401 466 410 439 q 393 528 393 493 q 433 637 393 590 q 553 708 474 683 q 560 735 558 721 q 561 771 561 750 q 519 871 561 839 q 415 903 478 903 q 335 890 371 903 q 275 847 300 876 q 236 767 250 817 q 222 647 222 718 l 222 0 l 103 0 z "},"à":{"ha":679,"x_min":50,"x_max":594,"o":"m 101 594 q 164 624 135 611 q 222 646 193 638 q 282 658 251 654 q 349 663 313 663 q 448 651 403 663 q 526 611 493 639 q 576 538 558 583 q 594 425 594 493 l 594 0 l 493 0 l 478 72 l 475 72 q 381 7 432 26 q 267 -12 329 -12 q 180 1 219 -12 q 111 38 140 14 q 66 97 82 63 q 50 175 50 132 q 131 331 50 278 q 346 385 213 385 l 471 385 l 471 440 q 435 537 471 511 q 338 563 399 563 q 255 551 301 563 q 149 506 208 539 l 101 594 m 472 301 l 369 299 q 222 262 265 296 q 178 179 178 228 q 188 130 178 150 q 213 99 197 110 q 251 83 229 88 q 296 78 272 78 q 389 99 342 78 q 472 168 436 121 l 472 301 m 181 958 l 324 958 l 421 772 l 321 772 l 181 958 z "},"á":{"ha":679,"x_min":50,"x_max":594,"o":"m 101 594 q 164 624 135 611 q 222 646 193 638 q 282 658 251 654 q 349 663 313 663 q 448 651 403 663 q 526 611 493 639 q 576 538 558 583 q 594 425 594 493 l 594 0 l 493 0 l 478 72 l 475 72 q 381 7 432 26 q 267 -12 329 -12 q 180 1 219 -12 q 111 38 140 14 q 66 97 82 63 q 50 175 50 132 q 131 331 50 278 q 346 385 213 385 l 471 385 l 471 440 q 435 537 471 511 q 338 563 399 563 q 255 551 301 563 q 149 506 208 539 l 101 594 m 472 301 l 369 299 q 222 262 265 296 q 178 179 178 228 q 188 130 178 150 q 213 99 197 110 q 251 83 229 88 q 296 78 272 78 q 389 99 342 78 q 472 168 436 121 l 472 301 m 376 772 l 276 772 l 374 958 l 517 958 l 376 772 z "},"â":{"ha":679,"x_min":50,"x_max":594,"o":"m 101 594 q 164 624 135 611 q 222 646 193 638 q 282 658 251 654 q 349 663 313 663 q 448 651 403 663 q 526 611 493 639 q 576 538 558 583 q 594 425 594 493 l 594 0 l 493 0 l 478 72 l 475 72 q 381 7 432 26 q 267 -12 329 -12 q 180 1 219 -12 q 111 38 140 14 q 66 97 82 63 q 50 175 50 132 q 131 331 50 278 q 346 385 213 385 l 471 385 l 471 440 q 435 537 471 511 q 338 563 399 563 q 255 551 301 563 q 149 506 208 539 l 101 594 m 472 301 l 369 299 q 222 262 265 296 q 178 179 178 228 q 188 130 178 150 q 213 99 197 110 q 251 83 229 88 q 296 78 272 78 q 389 99 342 78 q 472 168 436 121 l 472 301 m 553 772 l 447 772 l 350 889 l 253 772 l 142 772 l 301 958 l 397 958 l 553 772 z "},"ã":{"ha":679,"x_min":50,"x_max":594,"o":"m 101 594 q 164 624 135 611 q 222 646 193 638 q 282 658 251 654 q 349 663 313 663 q 448 651 403 663 q 526 611 493 639 q 576 538 558 583 q 594 425 594 493 l 594 0 l 493 0 l 478 72 l 475 72 q 381 7 432 26 q 267 -12 329 -12 q 180 1 219 -12 q 111 38 140 14 q 66 97 82 63 q 50 175 50 132 q 131 331 50 278 q 346 385 213 385 l 471 385 l 471 440 q 435 537 471 511 q 338 563 399 563 q 255 551 301 563 q 149 506 208 539 l 101 594 m 472 301 l 369 299 q 222 262 265 296 q 178 179 178 228 q 188 130 178 150 q 213 99 197 110 q 251 83 229 88 q 296 78 272 78 q 389 99 342 78 q 472 168 436 121 l 472 301 m 136 772 q 165 881 136 836 q 257 925 193 925 q 309 915 286 925 q 352 894 332 906 q 392 874 372 883 q 433 864 411 864 q 473 885 461 864 q 488 929 485 906 l 557 929 q 550 873 557 900 q 528 824 543 846 q 492 790 514 803 q 442 776 471 776 q 387 785 413 776 q 339 806 361 794 q 297 827 317 818 q 261 836 278 836 q 220 818 232 836 q 206 772 208 800 l 136 772 z "},"ä":{"ha":679,"x_min":50,"x_max":594,"o":"m 101 594 q 164 624 135 611 q 222 646 193 638 q 282 658 251 654 q 349 663 313 663 q 448 651 403 663 q 526 611 493 639 q 576 538 558 583 q 594 425 594 493 l 594 0 l 493 0 l 478 72 l 475 72 q 381 7 432 26 q 267 -12 329 -12 q 180 1 219 -12 q 111 38 140 14 q 66 97 82 63 q 50 175 50 132 q 131 331 50 278 q 346 385 213 385 l 471 385 l 471 440 q 435 537 471 511 q 338 563 399 563 q 255 551 301 563 q 149 506 208 539 l 101 594 m 472 301 l 369 299 q 222 262 265 296 q 178 179 178 228 q 188 130 178 150 q 213 99 197 110 q 251 83 229 88 q 296 78 272 78 q 389 99 342 78 q 472 168 436 121 l 472 301 m 172 865 q 193 913 172 892 q 242 933 214 933 q 290 913 269 933 q 311 865 311 892 q 290 816 311 838 q 242 794 269 794 q 193 816 214 794 q 172 865 172 838 m 403 865 q 424 913 403 892 q 472 933 444 933 q 521 913 500 933 q 542 865 542 892 q 521 816 542 838 q 472 794 500 794 q 424 816 444 794 q 403 865 403 838 z "},"å":{"ha":679,"x_min":50,"x_max":594,"o":"m 101 594 q 164 624 135 611 q 222 646 193 638 q 282 658 251 654 q 349 663 313 663 q 448 651 403 663 q 526 611 493 639 q 576 538 558 583 q 594 425 594 493 l 594 0 l 493 0 l 478 72 l 475 72 q 381 7 432 26 q 267 -12 329 -12 q 180 1 219 -12 q 111 38 140 14 q 66 97 82 63 q 50 175 50 132 q 131 331 50 278 q 346 385 213 385 l 471 385 l 471 440 q 435 537 471 511 q 338 563 399 563 q 255 551 301 563 q 149 506 208 539 l 101 594 m 472 301 l 369 299 q 222 262 265 296 q 178 179 178 228 q 188 130 178 150 q 213 99 197 110 q 251 83 229 88 q 296 78 272 78 q 389 99 342 78 q 472 168 436 121 l 472 301 m 222 865 q 261 952 222 924 q 351 981 300 981 q 442 952 404 981 q 481 865 481 924 q 469 815 481 836 q 440 778 458 793 q 399 757 422 764 q 351 750 376 750 q 262 780 301 750 q 222 865 222 810 m 285 865 q 302 815 285 833 q 351 796 319 796 q 401 815 383 796 q 418 865 418 833 q 401 916 418 897 q 351 935 383 935 q 302 916 319 935 q 285 865 285 897 z "},"æ":{"ha":1090,"x_min":50,"x_max":1040,"o":"m 1040 306 l 586 306 l 586 300 q 642 137 586 192 q 799 82 697 82 q 892 90 851 82 q 982 118 933 99 l 1007 28 q 912 -1 967 10 q 794 -12 857 -12 q 639 15 707 -12 q 529 107 571 43 l 526 107 q 422 18 482 49 q 271 -12 363 -12 q 183 1 224 -12 q 113 38 143 14 q 67 97 83 63 q 50 175 50 132 q 131 331 50 278 q 346 385 213 385 l 475 385 l 475 440 q 437 537 475 511 q 338 563 399 563 q 255 551 301 563 q 149 506 208 539 l 101 594 q 164 624 135 611 q 222 646 193 638 q 282 658 251 654 q 349 663 313 663 q 472 642 424 663 q 551 568 519 621 l 554 568 q 653 642 599 621 q 772 663 708 663 q 885 642 836 663 q 969 583 935 621 q 1022 490 1004 544 q 1040 369 1040 436 l 1040 306 m 178 179 q 188 130 178 150 q 213 99 197 110 q 251 83 229 88 q 296 78 272 78 q 405 103 354 78 q 492 183 456 128 q 478 238 483 210 q 472 301 474 267 l 369 299 q 222 262 265 296 q 178 179 178 228 m 914 389 q 906 458 914 425 q 881 517 899 492 q 835 558 863 543 q 765 574 807 574 q 642 524 689 574 q 588 388 594 474 l 914 389 z "},"ç":{"ha":614,"x_min":54,"x_max":574,"o":"m 404 82 q 482 92 449 82 q 547 117 515 101 l 574 25 q 394 -12 499 -12 l 367 -65 q 459 -96 429 -69 q 489 -162 489 -122 q 476 -213 489 -192 q 442 -249 464 -235 q 393 -271 421 -264 q 335 -278 365 -278 q 276 -273 303 -278 q 232 -261 249 -268 l 249 -203 q 286 -212 267 -210 q 325 -215 306 -215 q 384 -203 363 -215 q 406 -165 406 -192 q 378 -123 406 -137 q 279 -108 350 -108 l 328 -7 q 219 26 269 1 q 132 93 168 51 q 75 192 96 135 q 54 325 54 250 q 79 465 54 403 q 149 572 104 528 q 256 639 193 615 q 393 663 318 663 q 477 656 436 663 q 571 626 518 650 l 543 533 q 406 569 479 569 q 242 506 304 569 q 179 329 179 443 q 199 211 179 258 q 250 135 218 164 q 322 94 282 107 q 404 82 363 82 z "},"è":{"ha":700,"x_min":54,"x_max":650,"o":"m 650 313 l 182 313 l 182 307 q 241 140 182 199 q 401 82 300 82 q 495 90 454 82 q 585 118 536 99 l 610 28 q 515 -1 569 10 q 397 -12 460 -12 q 265 7 326 -12 q 156 67 203 26 q 81 172 108 108 q 54 325 54 236 q 77 464 54 401 q 142 570 100 526 q 242 638 183 614 q 375 663 301 663 q 488 642 438 663 q 575 583 539 621 q 631 493 611 546 q 650 376 650 440 l 650 313 m 524 400 q 515 467 524 436 q 487 522 506 499 q 439 560 468 546 q 368 574 410 574 q 244 525 292 574 q 185 397 196 476 l 524 400 m 346 958 l 443 772 l 343 772 l 203 958 l 346 958 z "},"é":{"ha":700,"x_min":54,"x_max":650,"o":"m 650 313 l 182 313 l 182 307 q 241 140 182 199 q 401 82 300 82 q 495 90 454 82 q 585 118 536 99 l 610 28 q 515 -1 569 10 q 397 -12 460 -12 q 265 7 326 -12 q 156 67 203 26 q 81 172 108 108 q 54 325 54 236 q 77 464 54 401 q 142 570 100 526 q 242 638 183 614 q 375 663 301 663 q 488 642 438 663 q 575 583 539 621 q 631 493 611 546 q 650 376 650 440 l 650 313 m 524 400 q 515 467 524 436 q 487 522 506 499 q 439 560 468 546 q 368 574 410 574 q 244 525 292 574 q 185 397 196 476 l 524 400 m 535 958 l 394 772 l 294 772 l 392 958 l 535 958 z "},"ê":{"ha":700,"x_min":54,"x_max":650,"o":"m 650 313 l 182 313 l 182 307 q 241 140 182 199 q 401 82 300 82 q 495 90 454 82 q 585 118 536 99 l 610 28 q 515 -1 569 10 q 397 -12 460 -12 q 265 7 326 -12 q 156 67 203 26 q 81 172 108 108 q 54 325 54 236 q 77 464 54 401 q 142 570 100 526 q 242 638 183 614 q 375 663 301 663 q 488 642 438 663 q 575 583 539 621 q 631 493 611 546 q 650 376 650 440 l 650 313 m 524 400 q 515 467 524 436 q 487 522 506 499 q 439 560 468 546 q 368 574 410 574 q 244 525 292 574 q 185 397 196 476 l 524 400 m 465 772 l 368 889 l 271 772 l 160 772 l 319 958 l 415 958 l 571 772 l 465 772 z "},"ë":{"ha":700,"x_min":54,"x_max":650,"o":"m 650 313 l 182 313 l 182 307 q 241 140 182 199 q 401 82 300 82 q 495 90 454 82 q 585 118 536 99 l 610 28 q 515 -1 569 10 q 397 -12 460 -12 q 265 7 326 -12 q 156 67 203 26 q 81 172 108 108 q 54 325 54 236 q 77 464 54 401 q 142 570 100 526 q 242 638 183 614 q 375 663 301 663 q 488 642 438 663 q 575 583 539 621 q 631 493 611 546 q 650 376 650 440 l 650 313 m 524 400 q 515 467 524 436 q 487 522 506 499 q 439 560 468 546 q 368 574 410 574 q 244 525 292 574 q 185 397 196 476 l 524 400 m 186 865 q 207 913 186 892 q 256 933 228 933 q 304 913 283 933 q 325 865 325 892 q 304 816 325 838 q 256 794 283 794 q 207 816 228 794 q 186 865 186 838 m 417 865 q 438 913 417 892 q 486 933 458 933 q 535 913 514 933 q 556 865 556 892 q 535 816 556 838 q 486 794 514 794 q 438 816 458 794 q 417 865 417 838 z "},"ì":{"ha":344,"x_min":-7,"x_max":233,"o":"m 111 0 l 111 653 l 233 653 l 233 0 l 111 0 m -7 958 l 136 958 l 233 772 l 133 772 l -7 958 z "},"í":{"ha":344,"x_min":111,"x_max":351,"o":"m 111 0 l 111 653 l 233 653 l 233 0 l 111 0 m 211 772 l 111 772 l 208 958 l 351 958 l 211 772 z "},"î":{"ha":344,"x_min":-36,"x_max":374,"o":"m 111 0 l 111 653 l 233 653 l 233 0 l 111 0 m 374 772 l 268 772 l 172 889 l 75 772 l -36 772 l 124 958 l 219 958 l 374 772 z "},"ï":{"ha":344,"x_min":-19,"x_max":350,"o":"m 111 0 l 111 653 l 233 653 l 233 0 l 111 0 m -19 865 q 1 913 -19 892 q 50 933 22 933 q 99 913 78 933 q 119 865 119 892 q 99 816 119 838 q 50 794 78 794 q 1 816 22 794 q -19 865 -19 838 m 211 865 q 232 913 211 892 q 281 933 253 933 q 329 913 308 933 q 350 865 350 892 q 329 816 350 838 q 281 794 308 794 q 232 816 253 794 q 211 865 211 838 z "},"ð":{"ha":733,"x_min":56,"x_max":664,"o":"m 344 635 q 445 613 396 635 q 526 553 494 592 l 531 553 q 467 694 511 628 q 367 801 422 761 l 214 725 l 182 779 l 311 843 q 247 876 279 863 q 175 900 215 889 l 221 979 q 324 940 272 967 q 422 879 376 913 l 550 944 l 582 890 l 474 836 q 543 751 508 799 q 604 644 578 704 q 647 512 631 585 q 664 350 664 439 q 644 204 664 271 q 586 90 625 138 q 490 15 547 42 q 358 -12 433 -12 q 252 6 306 -12 q 155 64 199 25 q 83 164 111 103 q 56 311 56 225 q 78 448 56 388 q 140 550 100 508 q 231 613 179 592 q 344 635 283 635 m 361 542 q 297 531 329 542 q 238 493 264 519 q 195 423 211 467 q 179 315 179 379 q 196 204 179 249 q 239 133 213 160 q 299 94 265 106 q 365 82 332 82 q 438 99 404 82 q 494 148 471 117 q 532 222 518 179 q 546 317 546 265 q 531 413 546 371 q 490 483 515 454 q 431 526 464 511 q 361 542 397 542 z "},"ñ":{"ha":739,"x_min":92,"x_max":644,"o":"m 214 0 l 92 0 l 92 653 l 188 653 l 206 563 q 308 637 254 611 q 431 663 361 663 q 588 606 531 663 q 644 450 644 550 l 644 0 l 522 0 l 522 432 q 491 527 522 492 q 396 563 460 563 q 214 475 299 563 l 214 0 m 157 772 q 185 881 157 836 q 278 925 214 925 q 330 915 307 925 q 373 894 353 906 q 413 874 393 883 q 454 864 432 864 q 494 885 482 864 q 508 929 506 906 l 578 929 q 571 873 578 900 q 549 824 564 846 q 513 790 535 803 q 463 776 492 776 q 408 785 433 776 q 360 806 382 794 q 318 827 338 818 q 282 836 299 836 q 241 818 253 836 q 226 772 229 800 l 157 772 z "},"ò":{"ha":747,"x_min":54,"x_max":693,"o":"m 693 333 q 668 187 693 251 q 599 78 643 122 q 497 10 556 33 q 371 -12 439 -12 q 245 9 303 -12 q 145 73 188 31 q 78 177 103 115 q 54 319 54 239 q 79 465 54 401 q 148 573 104 529 q 250 640 192 617 q 376 663 308 663 q 502 642 444 663 q 602 579 560 621 q 669 476 644 538 q 693 333 693 414 m 565 326 q 549 438 565 392 q 505 513 532 483 q 443 555 478 542 q 372 568 408 568 q 301 557 336 568 q 240 518 267 546 q 198 444 214 490 q 182 326 182 397 q 199 215 182 261 q 242 139 215 168 q 304 96 269 110 q 375 82 339 82 q 446 94 411 82 q 507 134 481 106 q 549 209 533 163 q 565 326 565 256 m 219 958 l 363 958 l 460 772 l 360 772 l 219 958 z "},"ó":{"ha":747,"x_min":54,"x_max":693,"o":"m 693 333 q 668 187 693 251 q 599 78 643 122 q 497 10 556 33 q 371 -12 439 -12 q 245 9 303 -12 q 145 73 188 31 q 78 177 103 115 q 54 319 54 239 q 79 465 54 401 q 148 573 104 529 q 250 640 192 617 q 376 663 308 663 q 502 642 444 663 q 602 579 560 621 q 669 476 644 538 q 693 333 693 414 m 565 326 q 549 438 565 392 q 505 513 532 483 q 443 555 478 542 q 372 568 408 568 q 301 557 336 568 q 240 518 267 546 q 198 444 214 490 q 182 326 182 397 q 199 215 182 261 q 242 139 215 168 q 304 96 269 110 q 375 82 339 82 q 446 94 411 82 q 507 134 481 106 q 549 209 533 163 q 565 326 565 256 m 399 772 l 299 772 l 396 958 l 539 958 l 399 772 z "},"ô":{"ha":747,"x_min":54,"x_max":693,"o":"m 693 333 q 668 187 693 251 q 599 78 643 122 q 497 10 556 33 q 371 -12 439 -12 q 245 9 303 -12 q 145 73 188 31 q 78 177 103 115 q 54 319 54 239 q 79 465 54 401 q 148 573 104 529 q 250 640 192 617 q 376 663 308 663 q 502 642 444 663 q 602 579 560 621 q 669 476 644 538 q 693 333 693 414 m 565 326 q 549 438 565 392 q 505 513 532 483 q 443 555 478 542 q 372 568 408 568 q 301 557 336 568 q 240 518 267 546 q 198 444 214 490 q 182 326 182 397 q 199 215 182 261 q 242 139 215 168 q 304 96 269 110 q 375 82 339 82 q 446 94 411 82 q 507 134 481 106 q 549 209 533 163 q 565 326 565 256 m 575 772 l 469 772 l 372 889 l 275 772 l 164 772 l 324 958 l 419 958 l 575 772 z "},"õ":{"ha":747,"x_min":54,"x_max":693,"o":"m 693 333 q 668 187 693 251 q 599 78 643 122 q 497 10 556 33 q 371 -12 439 -12 q 245 9 303 -12 q 145 73 188 31 q 78 177 103 115 q 54 319 54 239 q 79 465 54 401 q 148 573 104 529 q 250 640 192 617 q 376 663 308 663 q 502 642 444 663 q 602 579 560 621 q 669 476 644 538 q 693 333 693 414 m 565 326 q 549 438 565 392 q 505 513 532 483 q 443 555 478 542 q 372 568 408 568 q 301 557 336 568 q 240 518 267 546 q 198 444 214 490 q 182 326 182 397 q 199 215 182 261 q 242 139 215 168 q 304 96 269 110 q 375 82 339 82 q 446 94 411 82 q 507 134 481 106 q 549 209 533 163 q 565 326 565 256 m 163 772 q 191 881 163 836 q 283 925 219 925 q 335 915 313 925 q 378 894 358 906 q 418 874 399 883 q 460 864 438 864 q 499 885 488 864 q 514 929 511 906 l 583 929 q 576 873 583 900 q 555 824 569 846 q 519 790 540 803 q 468 776 497 776 q 413 785 439 776 q 365 806 388 794 q 324 827 343 818 q 288 836 304 836 q 247 818 258 836 q 232 772 235 800 l 163 772 z "},"ö":{"ha":747,"x_min":54,"x_max":693,"o":"m 693 333 q 668 187 693 251 q 599 78 643 122 q 497 10 556 33 q 371 -12 439 -12 q 245 9 303 -12 q 145 73 188 31 q 78 177 103 115 q 54 319 54 239 q 79 465 54 401 q 148 573 104 529 q 250 640 192 617 q 376 663 308 663 q 502 642 444 663 q 602 579 560 621 q 669 476 644 538 q 693 333 693 414 m 565 326 q 549 438 565 392 q 505 513 532 483 q 443 555 478 542 q 372 568 408 568 q 301 557 336 568 q 240 518 267 546 q 198 444 214 490 q 182 326 182 397 q 199 215 182 261 q 242 139 215 168 q 304 96 269 110 q 375 82 339 82 q 446 94 411 82 q 507 134 481 106 q 549 209 533 163 q 565 326 565 256 m 182 865 q 203 913 182 892 q 251 933 224 933 q 300 913 279 933 q 321 865 321 892 q 300 816 321 838 q 251 794 279 794 q 203 816 224 794 q 182 865 182 838 m 413 865 q 433 913 413 892 q 482 933 454 933 q 531 913 510 933 q 551 865 551 892 q 531 816 551 838 q 482 794 510 794 q 433 816 454 794 q 413 865 413 838 z "},"ø":{"ha":747,"x_min":54,"x_max":693,"o":"m 497 789 l 556 775 l 513 638 q 642 528 592 601 q 693 333 693 454 q 668 187 693 251 q 599 78 643 122 q 497 10 556 33 q 371 -12 439 -12 q 333 -10 351 -12 q 297 -6 314 -8 l 260 -126 l 203 -111 l 242 11 q 106 122 157 47 q 54 319 54 197 q 79 465 54 401 q 148 573 104 529 q 250 640 192 617 q 376 663 308 663 q 456 654 415 663 l 497 789 m 372 568 q 301 557 336 568 q 240 518 267 546 q 198 444 214 490 q 182 326 182 397 q 209 188 182 240 q 278 108 236 135 l 419 563 q 396 567 408 565 q 372 568 383 568 m 565 326 q 540 460 565 410 q 474 538 514 511 l 333 86 q 375 82 354 82 q 446 94 411 82 q 507 134 481 106 q 549 209 533 163 q 565 326 565 256 z "},"ù":{"ha":749,"x_min":94,"x_max":654,"o":"m 532 653 l 654 653 l 654 0 l 558 0 l 542 82 l 536 82 q 447 15 500 42 q 322 -12 393 -12 q 158 45 221 -12 q 94 219 94 103 l 94 653 l 217 653 l 217 235 q 227 164 217 193 q 255 117 238 135 q 296 92 272 100 q 347 85 319 85 q 447 108 403 85 q 532 174 492 132 l 532 653 m 203 958 l 346 958 l 443 772 l 343 772 l 203 958 z "},"ú":{"ha":749,"x_min":94,"x_max":654,"o":"m 532 653 l 654 653 l 654 0 l 558 0 l 542 82 l 536 82 q 447 15 500 42 q 322 -12 393 -12 q 158 45 221 -12 q 94 219 94 103 l 94 653 l 217 653 l 217 235 q 227 164 217 193 q 255 117 238 135 q 296 92 272 100 q 347 85 319 85 q 447 108 403 85 q 532 174 492 132 l 532 653 m 399 772 l 299 772 l 396 958 l 539 958 l 399 772 z "},"û":{"ha":749,"x_min":94,"x_max":654,"o":"m 532 653 l 654 653 l 654 0 l 558 0 l 542 82 l 536 82 q 447 15 500 42 q 322 -12 393 -12 q 158 45 221 -12 q 94 219 94 103 l 94 653 l 217 653 l 217 235 q 227 164 217 193 q 255 117 238 135 q 296 92 272 100 q 347 85 319 85 q 447 108 403 85 q 532 174 492 132 l 532 653 m 576 772 l 471 772 l 374 889 l 276 772 l 165 772 l 325 958 l 421 958 l 576 772 z "},"ü":{"ha":749,"x_min":94,"x_max":654,"o":"m 532 653 l 654 653 l 654 0 l 558 0 l 542 82 l 536 82 q 447 15 500 42 q 322 -12 393 -12 q 158 45 221 -12 q 94 219 94 103 l 94 653 l 217 653 l 217 235 q 227 164 217 193 q 255 117 238 135 q 296 92 272 100 q 347 85 319 85 q 447 108 403 85 q 532 174 492 132 l 532 653 m 189 865 q 210 913 189 892 q 258 933 231 933 q 307 913 286 933 q 328 865 328 892 q 307 816 328 838 q 258 794 286 794 q 210 816 231 794 q 189 865 189 838 m 419 865 q 440 913 419 892 q 489 933 461 933 q 538 913 517 933 q 558 865 558 892 q 538 816 558 838 q 489 794 517 794 q 440 816 461 794 q 419 865 419 838 z "},"ý":{"ha":640,"x_min":13,"x_max":631,"o":"m 13 653 l 143 653 l 282 279 l 329 124 l 332 124 l 379 279 l 506 653 l 631 653 l 379 -56 q 274 -240 338 -174 q 124 -337 211 -307 l 71 -240 q 187 -168 136 -215 q 265 -37 238 -121 l 278 0 l 13 653 m 346 772 l 246 772 l 343 958 l 486 958 l 346 772 z "},"þ":{"ha":751,"x_min":96,"x_max":697,"o":"m 697 326 q 674 186 697 249 q 610 79 650 124 q 515 11 569 35 q 400 -12 461 -12 q 298 -1 342 -12 q 217 42 254 11 l 217 -222 l 96 -222 l 96 986 l 217 986 l 217 575 q 315 642 261 622 q 426 663 368 663 q 624 574 551 663 q 697 326 697 485 m 569 325 q 524 498 569 433 q 394 563 478 563 q 299 541 342 563 q 217 476 256 519 l 217 151 q 283 100 246 118 q 368 82 319 82 q 444 96 407 82 q 508 140 481 110 q 553 215 536 169 q 569 325 569 261 z "},"ÿ":{"ha":640,"x_min":13,"x_max":631,"o":"m 13 653 l 143 653 l 282 279 l 329 124 l 332 124 l 379 279 l 506 653 l 631 653 l 379 -56 q 274 -240 338 -174 q 124 -337 211 -307 l 71 -240 q 187 -168 136 -215 q 265 -37 238 -121 l 278 0 l 13 653 m 131 865 q 151 913 131 892 q 200 933 172 933 q 249 913 228 933 q 269 865 269 892 q 249 816 269 838 q 200 794 228 794 q 151 816 172 794 q 131 865 131 838 m 361 865 q 382 913 361 892 q 431 933 403 933 q 479 913 458 933 q 500 865 500 892 q 479 816 500 838 q 431 794 458 794 q 382 816 403 794 q 361 865 361 838 z "},"¬":{"ha":2006,"x_min":0,"x_max":0,"o":""},"˘":{"ha":410,"x_min":21,"x_max":394,"o":"m 108 944 q 133 874 114 900 q 208 847 151 847 q 280 872 257 847 q 308 944 303 897 l 394 944 q 347 821 394 869 q 208 772 299 772 q 123 787 158 772 q 65 826 88 801 q 31 881 42 850 q 21 944 21 913 l 108 944 z "},"ˇ":{"ha":496,"x_min":50,"x_max":461,"o":"m 50 958 l 156 958 l 253 842 l 350 958 l 461 958 l 301 772 l 206 772 l 50 958 z "},"ˉ":{"ha":397,"x_min":43,"x_max":356,"o":"m 356 917 l 356 838 l 43 838 l 43 917 l 356 917 z "},"˙":{"ha":238,"x_min":42,"x_max":194,"o":"m 42 879 q 65 931 42 908 q 118 954 88 954 q 172 931 150 954 q 194 879 194 908 q 172 824 194 847 q 118 801 150 801 q 65 824 88 801 q 42 879 42 847 z "},"˝":{"ha":450,"x_min":44,"x_max":508,"o":"m 139 772 l 44 772 l 149 958 l 286 958 l 139 772 m 361 772 l 267 772 l 371 958 l 508 958 l 361 772 z "},"¯":{"ha":397,"x_min":43,"x_max":356,"o":"m 356 917 l 356 838 l 43 838 l 43 917 l 356 917 z "},"˛":{"ha":347,"x_min":35,"x_max":294,"o":"m 271 0 q 169 -60 208 -31 q 131 -132 131 -89 q 152 -184 131 -165 q 207 -203 174 -203 q 276 -192 247 -203 l 294 -257 q 183 -286 246 -286 q 77 -251 119 -286 q 35 -151 35 -217 q 45 -101 35 -125 q 72 -58 56 -78 q 108 -24 88 -39 q 149 0 128 -10 l 271 0 z "},"˚":{"ha":342,"x_min":39,"x_max":297,"o":"m 39 865 q 78 952 39 924 q 168 981 117 981 q 259 952 221 981 q 297 865 297 924 q 286 815 297 836 q 257 778 275 793 q 216 757 239 764 q 168 750 193 750 q 78 780 118 750 q 39 865 39 810 m 101 865 q 119 815 101 833 q 168 796 136 796 q 217 815 200 796 q 235 865 235 833 q 217 916 235 897 q 168 935 200 935 q 119 916 136 935 q 101 865 101 897 z "},"Ă":{"ha":819,"x_min":3,"x_max":818,"o":"m 356 875 l 469 875 l 818 0 l 685 0 l 589 243 l 229 243 l 135 0 l 3 0 l 356 875 m 264 344 l 551 344 l 493 496 q 450 611 469 556 q 411 725 431 667 l 408 725 q 368 613 389 667 q 324 496 347 558 l 264 344 m 310 1158 q 334 1088 315 1114 q 410 1061 353 1061 q 481 1086 458 1061 q 510 1158 504 1111 l 596 1158 q 548 1035 596 1083 q 410 986 500 986 q 324 1001 360 986 q 266 1040 289 1015 q 233 1095 243 1064 q 222 1158 222 1126 l 310 1158 z "},"Ā":{"ha":819,"x_min":3,"x_max":818,"o":"m 356 875 l 469 875 l 818 0 l 685 0 l 589 243 l 229 243 l 135 0 l 3 0 l 356 875 m 264 344 l 551 344 l 493 496 q 450 611 469 556 q 411 725 431 667 l 408 725 q 368 613 389 667 q 324 496 347 558 l 264 344 m 578 1072 l 578 986 l 238 986 l 238 1072 l 578 1072 z "},"Ą":{"ha":818,"x_min":3,"x_max":836,"o":"m 356 875 l 469 875 l 818 0 q 706 -62 739 -31 q 672 -131 672 -93 q 694 -184 672 -165 q 749 -203 715 -203 q 818 -192 789 -203 l 836 -257 q 725 -286 788 -286 q 619 -251 661 -286 q 576 -151 576 -217 q 608 -60 576 -99 q 685 0 640 -22 l 589 243 l 229 243 l 135 0 l 3 0 l 356 875 m 264 344 l 551 344 l 493 496 q 450 611 469 556 q 411 725 431 667 l 408 725 q 368 613 389 667 q 324 496 347 558 l 264 344 z "},"Ǽ":{"ha":1096,"x_min":3,"x_max":1035,"o":"m 3 0 l 453 875 l 1031 875 l 1031 769 l 658 769 l 658 507 l 994 507 l 994 403 l 658 403 l 658 106 l 1035 106 l 1035 0 l 536 0 l 536 243 l 272 243 l 154 0 l 3 0 m 536 779 l 315 340 l 536 340 l 536 779 m 601 986 l 501 986 l 613 1158 l 756 1158 l 601 986 z "},"Ć":{"ha":776,"x_min":63,"x_max":731,"o":"m 493 93 q 608 104 563 93 q 697 136 653 115 l 726 33 q 620 -1 678 10 q 479 -12 563 -12 q 317 17 393 -12 q 184 103 240 46 q 95 244 128 160 q 63 438 63 328 q 94 628 63 544 q 183 770 126 713 q 317 858 239 828 q 486 888 394 888 q 628 874 572 888 q 731 836 683 860 l 700 736 q 651 756 674 747 q 605 771 628 765 q 558 779 582 776 q 503 782 533 782 q 387 763 442 782 q 291 703 332 744 q 226 595 250 661 q 201 436 201 529 q 225 276 201 342 q 288 171 249 211 q 381 112 328 131 q 493 93 433 93 m 450 986 l 350 986 l 461 1158 l 604 1158 l 450 986 z "},"Č":{"ha":776,"x_min":63,"x_max":731,"o":"m 493 93 q 608 104 563 93 q 697 136 653 115 l 726 33 q 620 -1 678 10 q 479 -12 563 -12 q 317 17 393 -12 q 184 103 240 46 q 95 244 128 160 q 63 438 63 328 q 94 628 63 544 q 183 770 126 713 q 317 858 239 828 q 486 888 394 888 q 628 874 572 888 q 731 836 683 860 l 700 736 q 651 756 674 747 q 605 771 628 765 q 558 779 582 776 q 503 782 533 782 q 387 763 442 782 q 291 703 332 744 q 226 595 250 661 q 201 436 201 529 q 225 276 201 342 q 288 171 249 211 q 381 112 328 131 q 493 93 433 93 m 258 1174 l 369 1174 l 478 1053 l 588 1174 l 697 1174 l 524 988 l 428 988 l 258 1174 z "},"Ĉ":{"ha":776,"x_min":63,"x_max":731,"o":"m 493 93 q 608 104 563 93 q 697 136 653 115 l 726 33 q 620 -1 678 10 q 479 -12 563 -12 q 317 17 393 -12 q 184 103 240 46 q 95 244 128 160 q 63 438 63 328 q 94 628 63 544 q 183 770 126 713 q 317 858 239 828 q 486 888 394 888 q 628 874 572 888 q 731 836 683 860 l 700 736 q 651 756 674 747 q 605 771 628 765 q 558 779 582 776 q 503 782 533 782 q 387 763 442 782 q 291 703 332 744 q 226 595 250 661 q 201 436 201 529 q 225 276 201 342 q 288 171 249 211 q 381 112 328 131 q 493 93 433 93 m 414 1172 l 510 1172 l 683 986 l 572 986 l 461 1103 l 350 986 l 244 986 l 414 1172 z "},"Ċ":{"ha":776,"x_min":63,"x_max":731,"o":"m 493 93 q 608 104 563 93 q 697 136 653 115 l 726 33 q 620 -1 678 10 q 479 -12 563 -12 q 317 17 393 -12 q 184 103 240 46 q 95 244 128 160 q 63 438 63 328 q 94 628 63 544 q 183 770 126 713 q 317 858 239 828 q 486 888 394 888 q 628 874 572 888 q 731 836 683 860 l 700 736 q 651 756 674 747 q 605 771 628 765 q 558 779 582 776 q 503 782 533 782 q 387 763 442 782 q 291 703 332 744 q 226 595 250 661 q 201 436 201 529 q 225 276 201 342 q 288 171 249 211 q 381 112 328 131 q 493 93 433 93 m 401 1065 q 425 1118 401 1094 q 479 1142 449 1142 q 534 1118 511 1142 q 557 1065 557 1094 q 534 1010 557 1033 q 479 986 511 986 q 425 1010 449 986 q 401 1065 401 1033 z "},"Ď":{"ha":892,"x_min":111,"x_max":828,"o":"m 396 875 q 568 849 489 875 q 705 770 647 822 q 795 640 763 718 q 828 457 828 561 q 789 243 828 331 q 684 101 750 156 q 531 24 618 47 q 347 0 444 0 l 111 0 l 111 875 l 396 875 m 239 106 l 335 106 q 465 120 401 106 q 578 174 529 135 q 658 282 628 214 q 689 457 689 350 q 667 590 689 532 q 603 688 644 649 q 502 749 561 728 q 371 769 443 769 l 239 769 l 239 106 m 189 1174 l 294 1174 l 406 1057 l 517 1174 l 628 1174 l 454 988 l 358 988 l 189 1174 z "},"Đ":{"ha":933,"x_min":42,"x_max":869,"o":"m 438 875 q 610 849 531 875 q 747 770 689 822 q 837 640 804 718 q 869 457 869 561 q 831 243 869 331 q 726 101 792 156 q 573 24 660 47 q 389 0 486 0 l 153 0 l 153 414 l 42 414 l 42 500 l 153 500 l 153 875 l 438 875 m 458 500 l 458 414 l 281 414 l 281 106 l 376 106 q 507 120 443 106 q 620 174 571 135 q 700 282 669 214 q 731 457 731 350 q 708 590 731 532 q 644 688 686 649 q 544 749 603 728 q 413 769 485 769 l 281 769 l 281 500 l 458 500 z "},"Ĕ":{"ha":696,"x_min":111,"x_max":643,"o":"m 111 875 l 639 875 l 639 769 l 239 769 l 239 507 l 603 507 l 603 403 l 239 403 l 239 106 l 643 106 l 643 0 l 111 0 l 111 875 m 289 1175 q 313 1104 294 1131 q 389 1078 332 1078 q 460 1103 438 1078 q 489 1175 483 1128 l 575 1175 q 527 1051 575 1100 q 389 1003 479 1003 q 303 1017 339 1003 q 245 1056 268 1032 q 212 1112 222 1081 q 201 1175 201 1143 l 289 1175 z "},"Ě":{"ha":696,"x_min":111,"x_max":643,"o":"m 111 875 l 639 875 l 639 769 l 239 769 l 239 507 l 603 507 l 603 403 l 239 403 l 239 106 l 643 106 l 643 0 l 111 0 l 111 875 m 174 1174 l 285 1174 l 393 1053 l 503 1174 l 613 1174 l 439 988 l 343 988 l 174 1174 z "},"Ė":{"ha":696,"x_min":111,"x_max":643,"o":"m 111 875 l 639 875 l 639 769 l 239 769 l 239 507 l 603 507 l 603 403 l 239 403 l 239 106 l 643 106 l 643 0 l 111 0 l 111 875 m 318 1065 q 342 1118 318 1094 q 396 1142 365 1142 q 451 1118 428 1142 q 474 1065 474 1094 q 451 1010 474 1033 q 396 986 428 986 q 342 1010 365 986 q 318 1065 318 1033 z "},"Ē":{"ha":696,"x_min":111,"x_max":643,"o":"m 111 875 l 639 875 l 639 769 l 239 769 l 239 507 l 603 507 l 603 403 l 239 403 l 239 106 l 643 106 l 643 0 l 111 0 l 111 875 m 546 1072 l 546 986 l 206 986 l 206 1072 l 546 1072 z "},"Ę":{"ha":696,"x_min":111,"x_max":665,"o":"m 643 0 q 541 -58 581 -28 q 501 -132 501 -89 q 523 -184 501 -165 q 578 -203 544 -203 q 647 -192 618 -203 l 665 -257 q 554 -286 617 -286 q 448 -251 490 -286 q 406 -151 406 -217 q 440 -60 406 -99 q 518 -3 474 -22 l 518 0 l 111 0 l 111 875 l 639 875 l 639 769 l 239 769 l 239 507 l 603 507 l 603 403 l 239 403 l 239 106 l 643 106 l 643 0 z "},"Ğ":{"ha":858,"x_min":63,"x_max":778,"o":"m 493 888 q 631 876 569 888 q 746 838 693 865 l 715 738 q 615 772 664 761 q 508 783 565 783 q 392 765 447 783 q 294 706 336 747 q 226 599 251 665 q 201 436 201 533 q 278 181 201 268 q 493 93 354 93 q 584 99 546 93 q 658 118 622 104 l 658 361 l 493 361 l 493 461 l 778 461 l 778 39 q 654 2 722 17 q 493 -12 586 -12 q 324 17 403 -12 q 188 103 246 46 q 96 243 129 160 q 63 436 63 326 q 95 631 63 546 q 185 772 128 715 q 321 858 242 829 q 493 888 400 888 m 399 1175 q 423 1104 404 1131 q 499 1078 442 1078 q 570 1103 547 1078 q 599 1175 593 1128 l 685 1175 q 637 1051 685 1100 q 499 1003 589 1003 q 413 1017 449 1003 q 355 1056 378 1032 q 322 1112 332 1081 q 311 1175 311 1143 l 399 1175 z "},"Ĝ":{"ha":858,"x_min":63,"x_max":778,"o":"m 493 888 q 631 876 569 888 q 746 838 693 865 l 715 738 q 615 772 664 761 q 508 783 565 783 q 392 765 447 783 q 294 706 336 747 q 226 599 251 665 q 201 436 201 533 q 278 181 201 268 q 493 93 354 93 q 584 99 546 93 q 658 118 622 104 l 658 361 l 493 361 l 493 461 l 778 461 l 778 39 q 654 2 722 17 q 493 -12 586 -12 q 324 17 403 -12 q 188 103 246 46 q 96 243 129 160 q 63 436 63 326 q 95 631 63 546 q 185 772 128 715 q 321 858 242 829 q 493 888 400 888 m 425 1172 l 521 1172 l 694 986 l 583 986 l 472 1103 l 361 986 l 256 986 l 425 1172 z "},"Ģ":{"ha":858,"x_min":63,"x_max":778,"o":"m 493 888 q 631 876 569 888 q 746 838 693 865 l 715 738 q 615 772 663 761 q 508 783 567 783 q 392 765 447 783 q 294 706 336 747 q 226 599 251 665 q 201 436 201 533 q 278 181 201 268 q 493 93 354 93 q 584 99 546 93 q 658 118 622 104 l 658 361 l 493 361 l 493 461 l 778 461 l 778 39 q 654 2 722 17 q 493 -12 586 -12 q 324 17 403 -12 q 188 103 246 46 q 96 243 129 160 q 63 436 63 326 q 95 631 63 546 q 185 772 128 715 q 321 858 242 829 q 493 888 400 888 m 468 -253 q 423 -228 447 -249 q 399 -172 399 -208 q 420 -115 399 -139 q 481 -90 442 -90 q 514 -97 497 -90 q 545 -119 531 -104 q 569 -156 560 -133 q 578 -212 578 -179 q 567 -277 578 -244 q 535 -340 556 -310 q 486 -397 514 -371 q 425 -440 458 -422 l 390 -392 q 460 -331 429 -368 q 493 -258 490 -294 l 468 -253 z "},"Ġ":{"ha":858,"x_min":63,"x_max":778,"o":"m 493 888 q 631 876 569 888 q 746 838 693 865 l 715 738 q 615 772 664 761 q 508 783 565 783 q 392 765 447 783 q 294 706 336 747 q 226 599 251 665 q 201 436 201 533 q 278 181 201 268 q 493 93 354 93 q 584 99 546 93 q 658 118 622 104 l 658 361 l 493 361 l 493 461 l 778 461 l 778 39 q 654 2 722 17 q 493 -12 586 -12 q 324 17 403 -12 q 188 103 246 46 q 96 243 129 160 q 63 436 63 326 q 95 631 63 546 q 185 772 128 715 q 321 858 242 829 q 493 888 400 888 m 415 1065 q 439 1118 415 1094 q 493 1142 463 1142 q 548 1118 525 1142 q 571 1065 571 1094 q 548 1010 571 1033 q 493 986 525 986 q 439 1010 463 986 q 415 1065 415 1033 z "},"Ħ":{"ha":892,"x_min":28,"x_max":865,"o":"m 865 764 l 865 678 l 782 678 l 782 0 l 654 0 l 654 399 l 239 399 l 239 0 l 111 0 l 111 678 l 28 678 l 28 764 l 111 764 l 111 875 l 239 875 l 239 764 l 654 764 l 654 875 l 782 875 l 782 764 l 865 764 m 654 507 l 654 678 l 239 678 l 239 507 l 654 507 z "},"Ĥ":{"ha":892,"x_min":111,"x_max":782,"o":"m 111 0 l 111 875 l 239 875 l 239 507 l 654 507 l 654 875 l 782 875 l 782 0 l 654 0 l 654 399 l 239 399 l 239 0 l 111 0 m 401 1172 l 497 1172 l 671 986 l 560 986 l 449 1103 l 338 986 l 232 986 l 401 1172 z "},"Ĭ":{"ha":350,"x_min":-10,"x_max":364,"o":"m 239 875 l 239 0 l 111 0 l 111 875 l 239 875 m 78 1158 q 102 1088 83 1114 q 178 1061 121 1061 q 249 1086 226 1061 q 278 1158 272 1111 l 364 1158 q 316 1035 364 1083 q 178 986 268 986 q 92 1001 128 986 q 34 1040 57 1015 q 1 1095 11 1064 q -10 1158 -10 1126 l 78 1158 z "},"İ":{"ha":350,"x_min":94,"x_max":250,"o":"m 239 875 l 239 0 l 111 0 l 111 875 l 239 875 m 94 1065 q 118 1118 94 1094 q 172 1142 142 1142 q 227 1118 204 1142 q 250 1065 250 1094 q 227 1010 250 1033 q 172 986 204 986 q 118 1010 142 986 q 94 1065 94 1033 z "},"Ī":{"ha":350,"x_min":8,"x_max":349,"o":"m 239 875 l 239 0 l 111 0 l 111 875 l 239 875 m 349 1072 l 349 986 l 8 986 l 8 1072 l 349 1072 z "},"Į":{"ha":350,"x_min":3,"x_max":263,"o":"m 239 0 q 138 -60 176 -31 q 99 -132 99 -89 q 120 -184 99 -165 q 175 -203 142 -203 q 244 -192 215 -203 l 263 -257 q 151 -286 214 -286 q 45 -249 88 -286 q 3 -147 3 -212 q 12 -98 3 -121 q 36 -56 21 -75 q 71 -24 51 -37 q 111 0 90 -10 l 111 875 l 239 875 l 239 0 z "},"Ĩ":{"ha":350,"x_min":-46,"x_max":375,"o":"m 239 875 l 239 0 l 111 0 l 111 875 l 239 875 m -46 988 q -17 1096 -46 1051 q 75 1140 11 1140 q 127 1131 104 1140 q 170 1110 150 1121 q 210 1089 190 1099 q 251 1079 229 1079 q 291 1100 279 1079 q 306 1144 303 1121 l 375 1144 q 368 1088 375 1115 q 347 1040 361 1061 q 310 1005 332 1018 q 260 992 289 992 q 205 1001 231 992 q 157 1022 179 1010 q 115 1042 135 1033 q 79 1051 96 1051 q 38 1033 50 1051 q 24 988 26 1015 l -46 988 z "},"Ĳ":{"ha":676,"x_min":111,"x_max":576,"o":"m 239 875 l 239 0 l 111 0 l 111 875 l 239 875 m 576 875 l 576 160 q 567 0 576 63 q 524 -110 558 -62 q 415 -191 482 -168 q 282 -215 349 -214 l 282 -111 q 408 -60 364 -110 q 441 8 433 -32 q 449 93 449 49 l 449 875 l 576 875 z "},"Ĵ":{"ha":374,"x_min":-21,"x_max":433,"o":"m 274 875 l 274 160 q 265 0 274 63 q 221 -110 256 -62 q 113 -191 179 -168 q -21 -215 46 -214 l -21 -111 q 106 -60 61 -110 q 138 8 131 -32 q 146 93 146 49 l 146 875 l 274 875 m 164 1172 l 260 1172 l 433 986 l 322 986 l 211 1103 l 100 986 l -6 986 l 164 1172 z "},"Ķ":{"ha":800,"x_min":111,"x_max":793,"o":"m 111 0 l 111 875 l 239 875 l 239 479 l 607 875 l 765 875 l 404 488 l 793 0 l 632 0 l 313 400 l 239 321 l 239 0 l 111 0 m 413 -253 q 367 -228 392 -249 q 343 -172 343 -208 q 365 -115 343 -139 q 425 -90 386 -90 q 458 -97 442 -90 q 490 -119 475 -104 q 513 -156 504 -133 q 522 -212 522 -179 q 511 -277 522 -244 q 479 -340 500 -310 q 431 -397 458 -371 q 369 -440 403 -422 l 335 -392 q 404 -331 374 -368 q 438 -258 435 -294 l 413 -253 z "},"Ĺ":{"ha":633,"x_min":111,"x_max":613,"o":"m 111 875 l 239 875 l 239 108 l 613 108 l 613 0 l 111 0 l 111 875 m 225 986 l 125 986 l 236 1158 l 379 1158 l 225 986 z "},"Ľ":{"ha":633,"x_min":111,"x_max":613,"o":"m 111 875 l 239 875 l 239 108 l 613 108 l 613 0 l 111 0 l 111 875 m 433 867 q 388 891 413 871 q 364 947 364 911 q 385 1005 364 981 q 446 1029 407 1029 q 479 1022 463 1029 q 510 1001 496 1015 q 534 963 525 986 q 543 907 543 940 q 532 842 543 875 q 500 779 521 810 q 451 723 479 749 q 390 679 424 697 l 356 728 q 425 788 394 751 q 458 861 456 825 l 433 867 z "},"Ļ":{"ha":633,"x_min":111,"x_max":613,"o":"m 111 875 l 239 875 l 239 108 l 613 108 l 613 0 l 111 0 l 111 875 m 343 -253 q 298 -228 322 -249 q 274 -172 274 -208 q 295 -115 274 -139 q 356 -90 317 -90 q 389 -97 372 -90 q 420 -119 406 -104 q 444 -156 435 -133 q 453 -212 453 -179 q 442 -277 453 -244 q 410 -340 431 -310 q 361 -397 389 -371 q 300 -440 333 -422 l 265 -392 q 335 -331 304 -368 q 368 -258 365 -294 l 343 -253 z "},"Ŀ":{"ha":633,"x_min":111,"x_max":613,"o":"m 111 875 l 239 875 l 239 108 l 613 108 l 613 0 l 111 0 l 111 875 m 353 460 q 376 522 353 496 q 436 547 400 547 q 492 522 468 547 q 515 460 515 496 q 492 399 515 425 q 436 374 468 374 q 376 399 400 374 q 353 460 353 425 z "},"Ł":{"ha":633,"x_min":-40,"x_max":613,"o":"m 426 682 l 472 626 l 239 431 l 239 108 l 613 108 l 613 0 l 111 0 l 111 346 l 6 258 l -40 314 l 111 440 l 111 875 l 239 875 l 239 525 l 426 682 z "},"Ń":{"ha":933,"x_min":111,"x_max":824,"o":"m 485 986 l 385 986 l 496 1158 l 639 1158 l 485 986 m 111 875 l 222 875 l 621 321 q 664 258 643 290 q 701 196 685 226 l 704 196 q 700 293 701 244 q 699 390 699 342 l 699 875 l 824 875 l 824 0 l 713 0 l 318 547 q 275 613 297 576 q 233 686 253 650 l 231 686 q 235 569 233 628 q 236 453 236 511 l 236 0 l 111 0 l 111 875 z "},"Ň":{"ha":933,"x_min":111,"x_max":824,"o":"m 265 1174 l 376 1174 l 485 1053 l 594 1174 l 704 1174 l 531 988 l 435 988 l 265 1174 m 111 875 l 222 875 l 621 321 q 664 258 643 290 q 701 196 685 226 l 704 196 q 700 293 701 244 q 699 390 699 342 l 699 875 l 824 875 l 824 0 l 713 0 l 318 547 q 275 613 297 576 q 233 686 253 650 l 231 686 q 235 569 233 628 q 236 453 236 511 l 236 0 l 111 0 l 111 875 z "},"Ņ":{"ha":933,"x_min":111,"x_max":824,"o":"m 447 -253 q 402 -228 426 -249 q 378 -172 378 -208 q 399 -115 378 -139 q 460 -90 421 -90 q 493 -97 476 -90 q 524 -119 510 -104 q 548 -156 539 -133 q 557 -212 557 -179 q 546 -277 557 -244 q 514 -340 535 -310 q 465 -397 493 -371 q 404 -440 438 -422 l 369 -392 q 439 -331 408 -368 q 472 -258 469 -294 l 447 -253 m 111 875 l 222 875 l 621 321 q 664 258 643 290 q 701 196 685 226 l 704 196 q 700 293 701 244 q 699 390 699 342 l 699 875 l 824 875 l 824 0 l 713 0 l 318 547 q 275 613 297 576 q 233 686 253 650 l 231 686 q 235 569 233 628 q 236 453 236 511 l 236 0 l 111 0 l 111 875 z "},"Ŏ":{"ha":953,"x_min":64,"x_max":889,"o":"m 479 888 q 643 859 568 888 q 773 774 718 831 q 858 634 828 718 q 889 438 889 550 q 857 244 889 328 q 769 103 825 160 q 638 17 714 46 q 474 -12 563 -12 q 310 16 385 -12 q 180 101 235 44 q 94 241 125 157 q 64 438 64 325 q 96 631 64 547 q 183 772 128 715 q 315 858 239 829 q 479 888 390 888 m 203 438 q 224 283 203 349 q 283 175 246 218 q 372 111 321 132 q 479 90 422 90 q 585 111 536 90 q 672 175 635 132 q 729 283 708 218 q 750 438 750 349 q 728 594 750 529 q 669 702 707 660 q 581 765 632 744 q 474 785 531 785 q 367 764 417 785 q 281 700 317 743 q 224 592 244 657 q 203 438 203 526 m 375 1158 q 399 1088 381 1114 q 475 1061 418 1061 q 547 1086 524 1061 q 575 1158 569 1111 l 661 1158 q 613 1035 661 1083 q 475 986 565 986 q 390 1001 425 986 q 331 1040 354 1015 q 298 1095 308 1064 q 288 1158 288 1126 l 375 1158 z "},"Ő":{"ha":953,"x_min":64,"x_max":889,"o":"m 525 986 l 636 1160 l 772 1160 l 625 986 l 525 986 m 267 986 l 378 1160 l 514 1160 l 367 986 l 267 986 m 203 438 q 224 283 203 349 q 283 175 246 218 q 372 111 321 132 q 479 90 422 90 q 585 111 536 90 q 672 175 635 132 q 729 283 708 218 q 750 438 750 349 q 728 594 750 529 q 669 702 707 660 q 581 765 632 744 q 474 785 531 785 q 367 764 417 785 q 281 700 317 743 q 224 592 244 657 q 203 438 203 526 m 479 888 q 643 859 568 888 q 773 774 718 831 q 858 634 828 718 q 889 438 889 550 q 857 244 889 328 q 769 103 825 160 q 638 17 714 46 q 474 -12 563 -12 q 310 16 385 -12 q 180 101 235 44 q 94 241 125 157 q 64 438 64 325 q 96 631 64 547 q 183 772 128 715 q 315 858 239 829 q 479 888 390 888 z "},"Ō":{"ha":953,"x_min":64,"x_max":889,"o":"m 479 888 q 643 859 568 888 q 773 774 718 831 q 858 634 828 718 q 889 438 889 550 q 857 244 889 328 q 769 103 825 160 q 638 17 714 46 q 474 -12 563 -12 q 310 16 385 -12 q 180 101 235 44 q 94 241 125 157 q 64 438 64 325 q 96 631 64 547 q 183 772 128 715 q 315 858 239 829 q 479 888 390 888 m 203 438 q 224 283 203 349 q 283 175 246 218 q 372 111 321 132 q 479 90 422 90 q 585 111 536 90 q 672 175 635 132 q 729 283 708 218 q 750 438 750 349 q 728 594 750 529 q 669 702 707 660 q 581 765 632 744 q 474 785 531 785 q 367 764 417 785 q 281 700 317 743 q 224 592 244 657 q 203 438 203 526 m 657 1072 l 657 986 l 317 986 l 317 1072 l 657 1072 z "},"Ǿ":{"ha":953,"x_min":64,"x_max":889,"o":"m 450 986 l 350 986 l 461 1158 l 604 1158 l 450 986 m 694 1039 l 750 1019 l 681 843 q 832 693 775 793 q 889 438 889 593 q 857 244 889 328 q 769 103 825 160 q 638 17 714 46 q 474 -12 563 -12 q 401 -7 438 -12 q 333 7 365 -1 l 247 -211 l 192 -187 l 276 29 q 122 180 181 81 q 64 438 64 279 q 96 631 64 547 q 183 772 128 715 q 315 858 239 829 q 479 888 390 888 q 553 882 515 888 q 625 864 592 876 l 694 1039 m 203 438 q 236 251 203 325 q 326 136 269 176 l 578 765 q 474 785 528 785 q 367 764 417 785 q 281 700 317 743 q 224 592 244 657 q 203 438 203 526 m 479 90 q 585 111 536 90 q 672 175 635 132 q 729 283 708 218 q 750 438 750 349 q 717 624 750 550 q 631 738 685 697 l 381 107 q 479 90 426 90 z "},"Ŕ":{"ha":746,"x_min":111,"x_max":725,"o":"m 111 875 l 396 875 q 516 856 464 875 q 603 801 568 836 q 656 719 638 767 q 674 614 674 671 q 658 524 674 564 q 618 453 643 483 q 560 402 593 424 q 494 367 528 381 l 725 0 l 582 0 l 375 343 l 232 343 l 232 0 l 111 0 l 111 875 m 232 447 l 338 447 q 417 456 381 447 q 481 484 454 465 q 524 533 508 503 q 540 607 540 564 q 494 732 540 692 q 358 772 447 772 l 232 772 l 232 447 m 367 986 l 267 986 l 378 1158 l 521 1158 l 367 986 z "},"Ř":{"ha":746,"x_min":111,"x_max":725,"o":"m 111 875 l 396 875 q 516 856 464 875 q 603 801 568 836 q 656 719 638 767 q 674 614 674 671 q 658 524 674 564 q 618 453 643 483 q 560 402 593 424 q 494 367 528 381 l 725 0 l 582 0 l 375 343 l 232 343 l 232 0 l 111 0 l 111 875 m 232 447 l 338 447 q 417 456 381 447 q 481 484 454 465 q 524 533 508 503 q 540 607 540 564 q 494 732 540 692 q 358 772 447 772 l 232 772 l 232 447 m 133 1174 l 244 1174 l 353 1053 l 463 1174 l 572 1174 l 399 988 l 303 988 l 133 1174 z "},"Ŗ":{"ha":746,"x_min":111,"x_max":725,"o":"m 111 875 l 396 875 q 516 856 464 875 q 603 801 568 836 q 656 719 638 767 q 674 614 674 671 q 658 524 674 564 q 618 453 643 483 q 560 402 593 424 q 494 367 528 381 l 725 0 l 582 0 l 375 343 l 232 343 l 232 0 l 111 0 l 111 875 m 232 447 l 338 447 q 417 456 381 447 q 481 484 454 465 q 524 533 508 503 q 540 607 540 564 q 494 732 540 692 q 358 772 447 772 l 232 772 l 232 447 m 385 -253 q 340 -228 364 -249 q 315 -172 315 -208 q 337 -115 315 -139 q 397 -90 358 -90 q 431 -97 414 -90 q 462 -119 447 -104 q 485 -156 476 -133 q 494 -212 494 -179 q 483 -277 494 -244 q 451 -340 472 -310 q 403 -397 431 -371 q 342 -440 375 -422 l 307 -392 q 376 -331 346 -368 q 410 -258 407 -294 l 385 -253 z "},"Ś":{"ha":701,"x_min":61,"x_max":643,"o":"m 357 888 q 481 877 421 888 q 599 839 540 867 l 568 733 q 460 773 508 761 q 363 785 413 785 q 238 750 283 785 q 192 653 192 715 q 226 568 192 600 q 338 513 260 536 l 425 485 q 594 383 544 447 q 643 238 643 318 q 620 134 643 181 q 556 55 597 88 q 460 5 515 22 q 338 -12 404 -12 q 202 -1 271 -12 q 65 43 133 11 l 96 147 q 213 104 156 118 q 332 90 269 90 q 460 125 407 90 q 513 228 513 160 q 505 274 513 253 q 478 315 497 296 q 428 351 460 335 q 347 383 396 368 l 260 411 q 113 494 164 442 q 61 638 61 547 q 137 820 61 753 q 357 888 213 888 m 339 986 l 239 986 l 350 1158 l 493 1158 l 339 986 z "},"Ş":{"ha":701,"x_min":61,"x_max":643,"o":"m 357 888 q 481 877 421 888 q 599 839 540 867 l 568 733 q 460 773 508 761 q 363 785 413 785 q 238 750 283 785 q 192 653 192 715 q 226 568 192 600 q 338 513 260 536 l 425 485 q 594 383 544 447 q 643 238 643 318 q 624 142 643 185 q 569 67 604 99 q 487 15 535 35 q 381 -10 439 -4 l 356 -65 q 421 -76 394 -67 q 463 -102 447 -86 q 485 -137 478 -118 q 492 -176 492 -156 q 444 -266 492 -235 q 324 -297 396 -297 q 265 -292 292 -297 q 221 -281 238 -287 l 238 -222 q 275 -232 256 -229 q 314 -235 294 -235 q 408 -179 408 -235 q 403 -152 408 -165 q 383 -129 399 -139 q 341 -114 368 -119 q 268 -108 314 -108 l 314 -12 q 190 2 251 -10 q 65 43 128 14 l 96 147 q 213 104 156 118 q 332 90 269 90 q 460 125 407 90 q 513 228 513 160 q 505 274 513 253 q 478 315 497 296 q 428 351 460 335 q 347 383 396 368 l 260 411 q 113 494 164 442 q 61 638 61 547 q 137 820 61 753 q 357 888 213 888 z "},"Ŝ":{"ha":701,"x_min":61,"x_max":643,"o":"m 357 888 q 481 877 421 888 q 599 839 540 867 l 568 733 q 460 773 508 761 q 363 785 413 785 q 238 750 283 785 q 192 653 192 715 q 226 568 192 600 q 338 513 260 536 l 425 485 q 594 383 544 447 q 643 238 643 318 q 620 134 643 181 q 556 55 597 88 q 460 5 515 22 q 338 -12 404 -12 q 202 -1 271 -12 q 65 43 133 11 l 96 147 q 213 104 156 118 q 332 90 269 90 q 460 125 407 90 q 513 228 513 160 q 505 274 513 253 q 478 315 497 296 q 428 351 460 335 q 347 383 396 368 l 260 411 q 113 494 164 442 q 61 638 61 547 q 137 820 61 753 q 357 888 213 888 m 303 1172 l 399 1172 l 572 986 l 461 986 l 350 1103 l 239 986 l 133 986 l 303 1172 z "},"Ș":{"ha":701,"x_min":61,"x_max":643,"o":"m 568 733 q 460 773 508 761 q 363 785 413 785 q 238 750 283 785 q 192 653 192 715 q 205 594 192 617 q 247 553 218 571 q 319 519 275 535 q 425 485 363 504 q 594 383 544 446 q 643 238 643 319 q 620 134 643 181 q 556 55 597 88 q 460 5 515 22 q 338 -12 404 -12 q 202 -1 271 -12 q 65 43 133 11 l 96 147 q 213 104 156 118 q 332 90 269 90 q 460 125 407 90 q 513 228 513 160 q 501 285 513 261 q 461 328 490 308 q 383 367 432 349 q 260 411 335 386 q 113 494 164 443 q 61 638 61 546 q 137 820 61 753 q 357 888 213 888 q 481 877 421 888 q 599 839 540 867 l 568 733 m 315 -253 q 270 -228 294 -249 q 246 -172 246 -208 q 267 -115 246 -139 q 328 -90 289 -90 q 361 -97 344 -90 q 392 -119 378 -104 q 416 -156 407 -133 q 425 -212 425 -179 q 414 -277 425 -244 q 382 -340 403 -310 q 333 -397 361 -371 q 272 -440 306 -422 l 238 -392 q 307 -331 276 -368 q 340 -258 338 -294 l 315 -253 z "},"Ŧ":{"ha":696,"x_min":14,"x_max":683,"o":"m 549 500 l 549 414 l 410 414 l 410 0 l 282 0 l 282 414 l 143 414 l 143 500 l 282 500 l 282 767 l 14 767 l 14 875 l 683 875 l 683 767 l 410 767 l 410 500 l 549 500 z "},"Ť":{"ha":696,"x_min":14,"x_max":683,"o":"m 683 875 l 683 767 l 410 767 l 410 0 l 282 0 l 282 767 l 14 767 l 14 875 l 683 875 m 133 1174 l 239 1174 l 350 1057 l 461 1174 l 572 1174 l 399 988 l 303 988 l 133 1174 z "},"Ţ":{"ha":696,"x_min":14,"x_max":683,"o":"m 683 875 l 683 767 l 410 767 l 410 0 l 282 0 l 282 767 l 14 767 l 14 875 l 683 875 m 329 -253 q 284 -228 308 -249 q 260 -172 260 -208 q 281 -115 260 -139 q 342 -90 303 -90 q 375 -97 358 -90 q 406 -119 392 -104 q 430 -156 421 -133 q 439 -212 439 -179 q 428 -277 439 -244 q 396 -340 417 -310 q 347 -397 375 -371 q 286 -440 319 -422 l 251 -392 q 321 -331 290 -368 q 354 -258 351 -294 l 329 -253 z "},"Ŭ":{"ha":889,"x_min":100,"x_max":789,"o":"m 100 875 l 228 875 l 228 351 q 279 151 228 211 q 444 92 331 92 q 609 158 557 92 q 661 335 661 225 l 661 875 l 789 875 l 789 339 q 697 74 789 160 q 444 -12 606 -12 q 191 73 282 -12 q 100 346 100 158 l 100 875 m 344 1158 q 369 1088 350 1114 q 444 1061 388 1061 q 516 1086 493 1061 q 544 1158 539 1111 l 631 1158 q 583 1035 631 1083 q 444 986 535 986 q 359 1001 394 986 q 301 1040 324 1015 q 267 1095 278 1064 q 257 1158 257 1126 l 344 1158 z "},"Ű":{"ha":889,"x_min":100,"x_max":789,"o":"m 100 875 l 228 875 l 228 351 q 279 151 228 211 q 444 92 331 92 q 609 158 557 92 q 661 335 661 225 l 661 875 l 789 875 l 789 339 q 697 74 789 160 q 444 -12 606 -12 q 191 73 282 -12 q 100 346 100 158 l 100 875 m 357 986 l 257 986 l 368 1160 l 504 1160 l 357 986 m 615 986 l 515 986 l 626 1160 l 763 1160 l 615 986 z "},"Ū":{"ha":889,"x_min":100,"x_max":789,"o":"m 100 875 l 228 875 l 228 351 q 279 151 228 211 q 444 92 331 92 q 609 158 557 92 q 661 335 661 225 l 661 875 l 789 875 l 789 339 q 697 74 789 160 q 444 -12 606 -12 q 191 73 282 -12 q 100 346 100 158 l 100 875 m 614 1072 l 614 986 l 274 986 l 274 1072 l 614 1072 z "},"Ų":{"ha":889,"x_min":100,"x_max":789,"o":"m 100 875 l 228 875 l 228 351 q 279 151 228 211 q 444 92 331 92 q 609 158 557 92 q 661 335 661 225 l 661 875 l 789 875 l 789 339 q 713 90 789 175 q 501 -10 638 4 q 414 -65 447 -37 q 381 -132 381 -92 q 402 -184 381 -165 q 457 -203 424 -203 q 526 -192 497 -203 l 544 -257 q 433 -286 496 -286 q 327 -251 369 -286 q 285 -151 285 -217 q 315 -66 285 -103 q 381 -8 344 -29 q 173 92 246 7 q 100 346 100 176 l 100 875 z "},"Ů":{"ha":889,"x_min":100,"x_max":789,"o":"m 100 875 l 228 875 l 228 351 q 279 151 228 211 q 444 92 331 92 q 609 158 557 92 q 661 335 661 225 l 661 875 l 789 875 l 789 339 q 697 74 789 160 q 444 -12 606 -12 q 191 73 282 -12 q 100 346 100 158 l 100 875 m 308 1056 q 347 1142 308 1114 q 443 1171 386 1171 q 540 1142 501 1171 q 578 1056 578 1114 q 567 1005 578 1026 q 537 969 556 983 q 494 947 518 954 q 443 940 469 940 q 349 970 389 940 q 308 1056 308 1000 m 371 1056 q 391 1005 371 1024 q 443 986 411 986 q 495 1005 475 986 q 515 1056 515 1024 q 495 1106 515 1088 q 443 1125 475 1125 q 391 1106 411 1125 q 371 1056 371 1088 z "},"Ũ":{"ha":889,"x_min":100,"x_max":789,"o":"m 100 875 l 228 875 l 228 351 q 279 151 228 211 q 444 92 331 92 q 609 158 557 92 q 661 335 661 225 l 661 875 l 789 875 l 789 339 q 697 74 789 160 q 444 -12 606 -12 q 191 73 282 -12 q 100 346 100 158 l 100 875 m 228 986 q 256 1094 228 1050 q 349 1139 285 1139 q 401 1129 378 1139 q 444 1108 424 1119 q 483 1088 464 1097 q 525 1078 503 1078 q 565 1099 553 1078 q 579 1143 576 1119 l 649 1143 q 642 1087 649 1114 q 620 1038 635 1060 q 584 1003 606 1017 q 533 990 563 990 q 478 999 504 990 q 431 1020 453 1008 q 389 1041 408 1032 q 353 1050 369 1050 q 312 1032 324 1050 q 297 986 300 1014 l 228 986 z "},"Ẃ":{"ha":1193,"x_min":11,"x_max":1182,"o":"m 632 986 l 532 986 l 643 1158 l 786 1158 l 632 986 m 142 875 l 290 360 q 302 317 296 343 q 315 263 308 292 q 328 206 322 235 q 336 153 333 178 l 339 153 q 349 206 343 178 q 363 263 356 235 q 376 317 369 292 q 388 360 382 342 l 540 875 l 654 875 l 813 360 q 824 317 818 342 q 837 264 831 292 q 849 207 843 236 q 860 153 856 178 l 863 153 q 873 208 867 179 q 886 266 879 238 q 899 319 893 294 q 910 360 906 343 l 1053 875 l 1182 875 l 925 0 l 796 0 l 663 465 q 644 531 653 500 q 627 589 635 561 q 612 645 619 617 q 596 706 604 674 l 593 706 q 563 581 579 643 q 531 465 546 518 l 401 0 l 274 0 l 11 875 l 142 875 z "},"Ŵ":{"ha":1193,"x_min":11,"x_max":1182,"o":"m 546 1172 l 642 1172 l 815 986 l 704 986 l 593 1103 l 482 986 l 376 986 l 546 1172 m 142 875 l 290 360 q 302 317 296 343 q 315 263 308 292 q 328 206 322 235 q 336 153 333 178 l 339 153 q 349 206 343 178 q 363 263 356 235 q 376 317 369 292 q 388 360 382 342 l 540 875 l 654 875 l 813 360 q 824 317 818 342 q 837 264 831 292 q 849 207 843 236 q 860 153 856 178 l 863 153 q 873 208 867 179 q 886 266 879 238 q 899 319 893 294 q 910 360 906 343 l 1053 875 l 1182 875 l 925 0 l 796 0 l 663 465 q 644 531 653 500 q 627 589 635 561 q 612 645 619 617 q 596 706 604 674 l 593 706 q 563 581 579 643 q 531 465 546 518 l 401 0 l 274 0 l 11 875 l 142 875 z "},"Ẅ":{"ha":1193,"x_min":11,"x_max":1182,"o":"m 410 1057 q 431 1104 410 1083 q 479 1125 451 1125 q 528 1104 507 1125 q 549 1057 549 1083 q 528 1008 549 1029 q 479 986 507 986 q 431 1008 451 986 q 410 1057 410 1029 m 640 1057 q 661 1104 640 1083 q 710 1125 682 1125 q 758 1104 738 1125 q 779 1057 779 1083 q 758 1008 779 1029 q 710 986 738 986 q 661 1008 682 986 q 640 1057 640 1029 m 142 875 l 290 360 q 302 317 296 343 q 315 263 308 292 q 328 206 322 235 q 336 153 333 178 l 339 153 q 349 206 343 178 q 363 263 356 235 q 376 317 369 292 q 388 360 382 342 l 540 875 l 654 875 l 813 360 q 824 317 818 342 q 837 264 831 292 q 849 207 843 236 q 860 153 856 178 l 863 153 q 873 208 867 179 q 886 266 879 238 q 899 319 893 294 q 910 360 906 343 l 1053 875 l 1182 875 l 925 0 l 796 0 l 663 465 q 644 531 653 500 q 627 589 635 561 q 612 645 619 617 q 596 706 604 674 l 593 706 q 563 581 579 643 q 531 465 546 518 l 401 0 l 274 0 l 11 875 l 142 875 z "},"Ẁ":{"ha":1193,"x_min":11,"x_max":1182,"o":"m 393 1158 l 536 1158 l 647 986 l 547 986 l 393 1158 m 142 875 l 290 360 q 302 317 296 343 q 315 263 308 292 q 328 206 322 235 q 336 153 333 178 l 339 153 q 349 206 343 178 q 363 263 356 235 q 376 317 369 292 q 388 360 382 342 l 540 875 l 654 875 l 813 360 q 824 317 818 342 q 837 264 831 292 q 849 207 843 236 q 860 153 856 178 l 863 153 q 873 208 867 179 q 886 266 879 238 q 899 319 893 294 q 910 360 906 343 l 1053 875 l 1182 875 l 925 0 l 796 0 l 663 465 q 644 531 653 500 q 627 589 635 561 q 612 645 619 617 q 596 706 604 674 l 593 706 q 563 581 579 643 q 531 465 546 518 l 401 0 l 274 0 l 11 875 l 142 875 z "},"Ŷ":{"ha":726,"x_min":14,"x_max":726,"o":"m 154 875 l 372 483 l 592 875 l 726 875 l 431 367 l 431 0 l 303 0 l 303 367 l 14 875 l 154 875 m 324 1172 l 419 1172 l 593 986 l 482 986 l 371 1103 l 260 986 l 154 986 l 324 1172 z "},"Ỳ":{"ha":726,"x_min":14,"x_max":726,"o":"m 154 875 l 372 483 l 592 875 l 726 875 l 431 367 l 431 0 l 303 0 l 303 367 l 14 875 l 154 875 m 211 1158 l 354 1158 l 465 986 l 365 986 l 211 1158 z "},"Ź":{"ha":710,"x_min":36,"x_max":675,"o":"m 668 875 l 668 799 l 188 103 l 675 103 l 675 0 l 36 0 l 36 90 l 508 772 l 57 772 l 57 875 l 668 875 m 381 986 l 281 986 l 392 1158 l 535 1158 l 381 986 z "},"Ż":{"ha":710,"x_min":36,"x_max":675,"o":"m 668 875 l 668 799 l 188 103 l 675 103 l 675 0 l 36 0 l 36 90 l 508 772 l 57 772 l 57 875 l 668 875 m 290 1065 q 314 1118 290 1094 q 368 1142 338 1142 q 423 1118 400 1142 q 446 1065 446 1094 q 423 1010 446 1033 q 368 986 400 986 q 314 1010 338 986 q 290 1065 290 1033 z "},"⁄":{"ha":615,"x_min":-21,"x_max":636,"o":"m -21 -12 l 546 888 l 636 888 l 69 -12 l -21 -12 z "},"₨":{"ha":708,"x_min":0,"x_max":597,"o":"m 0 564 l 0 653 l 331 653 q 304 728 324 693 q 265 786 285 763 l 0 786 l 0 875 l 597 875 l 597 786 l 388 786 q 419 733 403 767 q 446 653 436 700 l 597 653 l 597 564 l 450 564 q 428 481 447 519 q 376 411 410 442 q 297 363 343 381 q 196 342 251 344 l 442 49 l 347 -14 l 153 242 q 108 297 129 274 q 71 339 88 321 l 35 375 l 69 443 q 106 433 89 436 q 149 429 124 429 q 282 468 235 429 q 335 564 329 507 l 0 564 z "},"":{"ha":646,"x_min":3,"x_max":644,"o":"m 3 0 l 264 653 l 378 653 l 644 0 l 519 0 l 454 172 l 190 172 l 122 0 l 3 0 m 224 265 l 421 265 l 379 375 q 350 452 364 414 q 325 524 336 490 l 324 524 q 297 453 313 492 q 267 375 282 414 l 224 265 z "},"":{"ha":650,"x_min":111,"x_max":596,"o":"m 351 653 q 513 608 460 653 q 567 492 567 564 q 535 403 567 439 q 453 351 503 368 q 559 294 522 335 q 596 186 596 253 q 581 113 596 147 q 534 54 565 79 q 457 15 503 29 q 350 0 411 0 l 111 0 l 111 653 l 351 653 m 215 386 l 325 386 q 408 406 374 386 q 442 475 442 426 q 414 536 442 514 q 322 558 386 558 l 215 558 l 215 386 m 215 94 l 321 94 q 429 118 390 94 q 468 197 468 142 q 462 233 468 215 q 442 264 456 250 q 406 286 429 278 q 350 294 383 294 l 215 294 l 215 94 z "},"":{"ha":624,"x_min":63,"x_max":589,"o":"m 419 82 q 497 92 464 82 q 563 117 531 101 l 589 25 q 410 -12 514 -12 q 273 8 336 -12 q 163 72 210 29 q 89 177 115 114 q 63 325 63 240 q 88 465 63 403 q 158 572 113 528 q 267 639 203 615 q 408 663 331 663 q 492 656 451 663 q 586 626 533 650 l 558 533 q 421 569 494 569 q 251 506 314 569 q 188 329 188 443 q 207 211 188 258 q 259 135 226 164 q 333 94 292 107 q 419 82 375 82 z "},"":{"ha":743,"x_min":111,"x_max":681,"o":"m 338 653 q 466 636 404 653 q 576 582 528 619 q 652 485 624 544 q 681 342 681 426 q 653 188 681 253 q 579 82 626 124 q 467 20 532 40 q 329 0 403 0 l 111 0 l 111 653 l 338 653 m 233 96 l 301 96 q 385 104 340 96 q 468 138 431 113 q 531 211 506 164 q 556 338 556 258 q 491 503 556 449 q 301 557 426 557 l 233 557 l 233 96 z "},"":{"ha":615,"x_min":111,"x_max":554,"o":"m 111 653 l 551 653 l 551 558 l 231 558 l 231 383 l 521 383 l 521 290 l 231 290 l 231 94 l 554 94 l 554 0 l 111 0 l 111 653 z "},"":{"ha":588,"x_min":111,"x_max":539,"o":"m 539 653 l 539 558 l 233 558 l 233 368 l 514 368 l 514 274 l 233 274 l 233 0 l 111 0 l 111 653 l 539 653 z "},"":{"ha":701,"x_min":63,"x_max":625,"o":"m 419 82 q 474 85 447 82 q 524 96 500 89 l 524 257 l 390 257 l 390 347 l 625 347 l 625 26 q 525 -3 582 7 q 410 -12 468 -12 q 273 8 336 -12 q 163 72 210 29 q 89 177 115 114 q 63 325 63 240 q 88 465 63 403 q 158 572 113 528 q 267 639 203 615 q 408 663 331 663 q 502 658 451 663 q 606 629 553 653 l 578 536 q 503 563 544 556 q 421 569 461 569 q 251 506 314 569 q 188 329 188 443 q 207 211 188 258 q 259 135 226 164 q 333 94 292 107 q 419 82 375 82 z "},"":{"ha":764,"x_min":111,"x_max":654,"o":"m 111 0 l 111 653 l 229 653 l 229 393 l 535 393 l 535 653 l 654 653 l 654 0 l 535 0 l 535 293 l 229 293 l 229 0 l 111 0 z "},"":{"ha":343,"x_min":111,"x_max":233,"o":"m 233 653 l 233 0 l 111 0 l 111 653 l 233 653 z "},"":{"ha":343,"x_min":0,"x_max":243,"o":"m 243 653 l 243 101 q 237 -25 243 31 q 203 -126 231 -81 q 117 -204 169 -182 q 0 -226 64 -226 l 0 -126 q 51 -117 25 -126 q 94 -81 78 -107 q 116 -11 111 -53 q 121 61 121 31 l 121 653 l 243 653 z "},"":{"ha":656,"x_min":111,"x_max":649,"o":"m 111 0 l 111 653 l 233 653 l 233 371 l 481 653 l 625 653 l 364 365 l 649 0 l 501 0 l 286 290 l 233 231 l 233 0 l 111 0 z "},"":{"ha":554,"x_min":111,"x_max":533,"o":"m 111 653 l 233 653 l 233 100 l 533 100 l 533 0 l 111 0 l 111 653 z "},"":{"ha":922,"x_min":83,"x_max":844,"o":"m 139 653 l 289 653 l 426 238 l 464 115 l 465 115 q 483 174 474 144 q 503 238 492 204 l 638 653 l 788 653 l 844 0 l 724 0 l 697 347 q 692 433 694 385 q 688 535 689 482 l 685 535 q 674 482 681 510 q 660 429 667 454 q 647 383 654 404 q 636 347 640 361 l 521 0 l 406 0 l 290 349 q 261 439 275 392 q 238 535 247 486 l 235 535 q 232 437 235 486 q 226 347 229 388 l 201 0 l 83 0 l 139 653 z "},"":{"ha":779,"x_min":111,"x_max":669,"o":"m 111 653 l 221 653 l 478 301 q 499 270 488 288 q 520 235 510 253 q 540 201 531 217 q 553 175 549 185 l 556 175 q 551 266 553 222 q 550 349 550 310 l 550 653 l 669 653 l 669 0 l 561 0 l 301 360 q 262 422 281 392 q 229 483 243 451 l 226 483 q 230 383 229 433 q 231 283 231 333 l 231 0 l 111 0 l 111 653 z "},"":{"ha":767,"x_min":64,"x_max":703,"o":"m 703 333 q 678 187 703 251 q 609 78 653 122 q 507 10 565 33 q 381 -12 449 -12 q 255 9 313 -12 q 155 73 197 31 q 88 177 113 115 q 64 319 64 239 q 89 465 64 401 q 158 573 114 529 q 260 640 201 617 q 386 663 318 663 q 512 642 454 663 q 612 579 569 621 q 678 476 654 538 q 703 333 703 414 m 575 326 q 558 438 575 392 q 515 513 542 483 q 453 555 488 542 q 382 568 418 568 q 311 557 346 568 q 250 518 276 546 q 208 444 224 490 q 192 326 192 397 q 208 215 192 261 q 252 139 225 168 q 314 96 279 110 q 385 82 349 82 q 456 94 421 82 q 517 134 490 106 q 559 209 543 163 q 575 326 575 256 z "},"":{"ha":632,"x_min":113,"x_max":593,"o":"m 113 653 l 357 653 q 447 640 404 653 q 523 600 490 626 q 574 536 556 574 q 593 451 593 499 q 567 343 593 385 q 499 278 540 301 q 407 247 458 256 q 306 239 356 239 l 235 239 l 235 0 l 113 0 l 113 653 m 233 333 l 310 333 q 366 338 338 333 q 417 356 394 343 q 454 390 440 368 q 468 447 468 413 q 454 503 468 482 q 419 538 440 525 q 369 554 397 550 q 314 558 342 558 l 233 558 l 233 333 z "},"":{"ha":744,"x_min":64,"x_max":758,"o":"m 449 -8 q 491 -22 471 -12 q 532 -41 511 -31 q 576 -59 553 -51 q 631 -67 600 -67 q 688 -60 667 -67 q 728 -42 708 -53 l 758 -132 q 706 -153 738 -144 q 635 -162 674 -162 q 549 -149 586 -162 q 478 -119 511 -136 q 412 -90 444 -103 q 339 -76 379 -76 q 258 -90 292 -76 q 193 -124 225 -103 l 149 -40 q 205 -9 174 -21 q 264 8 236 3 l 264 13 q 188 51 224 24 q 124 119 151 79 q 80 212 96 160 q 64 325 64 264 q 89 469 64 406 q 157 575 114 532 q 258 640 200 618 q 385 663 317 663 q 510 641 453 663 q 611 577 568 619 q 678 473 654 535 q 703 331 703 411 q 682 199 703 257 q 626 98 661 140 q 544 30 590 56 q 449 -6 499 4 l 449 -8 m 575 324 q 558 435 575 389 q 515 511 542 482 q 452 554 488 540 q 381 568 417 568 q 310 557 344 568 q 250 519 276 546 q 208 447 224 492 q 192 332 192 401 q 208 219 192 267 q 250 141 224 172 q 311 94 276 110 q 382 79 346 79 q 453 91 418 79 q 515 131 488 103 q 558 206 542 160 q 575 324 575 253 z "},"":{"ha":621,"x_min":111,"x_max":600,"o":"m 111 653 l 356 653 q 441 640 400 653 q 513 603 482 628 q 563 542 544 579 q 582 454 582 504 q 547 332 582 379 q 446 258 511 285 l 600 0 l 464 0 l 344 236 l 226 236 l 226 0 l 111 0 l 111 653 m 225 329 l 314 329 q 419 357 379 329 q 460 447 460 385 q 420 534 460 510 q 311 558 381 558 l 225 558 l 225 329 z "},"":{"ha":589,"x_min":58,"x_max":528,"o":"m 471 531 q 388 561 425 553 q 313 569 350 569 q 214 545 246 569 q 182 481 182 521 q 204 428 182 447 q 297 388 226 408 l 339 375 q 480 303 432 347 q 528 185 528 260 q 462 42 528 96 q 278 -12 396 -12 q 158 -1 215 -12 q 58 29 100 10 l 88 125 q 175 94 128 106 q 271 82 222 82 q 370 104 333 82 q 407 178 407 126 q 375 241 407 222 q 283 278 343 260 l 240 292 q 106 363 150 321 q 63 478 63 404 q 81 554 63 519 q 130 613 99 589 q 204 649 161 636 q 299 663 247 663 q 399 653 347 663 q 499 624 451 644 l 471 531 z "},"":{"ha":550,"x_min":14,"x_max":538,"o":"m 538 653 l 538 558 l 335 558 l 335 0 l 213 0 l 213 558 l 14 558 l 14 653 l 538 653 z "},"":{"ha":763,"x_min":97,"x_max":665,"o":"m 97 653 l 219 653 l 219 313 q 232 197 219 242 q 267 128 244 153 q 320 93 289 103 q 389 83 351 83 q 503 133 463 83 q 543 299 543 182 l 543 653 l 665 653 l 665 308 q 595 67 665 146 q 386 -12 525 -12 q 170 65 243 -12 q 97 307 97 143 l 97 653 z "},"":{"ha":639,"x_min":4,"x_max":636,"o":"m 133 653 l 261 308 q 292 220 276 267 q 319 133 308 174 l 322 133 q 348 219 332 171 q 379 310 364 268 l 508 653 l 636 653 l 378 0 l 257 0 l 4 653 l 133 653 z "},"":{"ha":928,"x_min":11,"x_max":917,"o":"m 136 653 l 242 290 q 250 260 246 278 q 259 222 254 242 q 269 181 264 201 q 276 142 274 160 l 279 142 q 294 215 286 176 q 313 289 301 253 l 422 653 l 507 653 l 621 288 q 630 259 625 276 q 640 222 635 242 q 649 181 644 201 q 657 142 654 160 l 660 142 q 674 222 665 179 q 690 293 683 265 l 792 653 l 917 653 l 724 0 l 600 0 l 500 349 q 491 381 496 361 q 481 421 486 400 q 471 462 475 442 q 464 499 467 482 l 461 499 q 455 463 458 483 q 447 422 451 443 q 437 382 442 401 q 428 349 432 363 l 332 0 l 208 0 l 11 653 l 136 653 z "},"":{"ha":610,"x_min":8,"x_max":603,"o":"m 374 331 l 603 0 l 464 0 l 351 164 l 300 249 l 253 165 l 144 0 l 8 0 l 235 331 l 19 653 l 157 653 l 260 493 l 310 410 l 358 493 l 454 653 l 588 653 l 374 331 z "},"":{"ha":557,"x_min":-3,"x_max":557,"o":"m 132 653 l 278 350 l 429 653 l 557 653 l 332 250 l 332 0 l 214 0 l 214 250 l -3 653 l 132 653 z "},"":{"ha":574,"x_min":35,"x_max":538,"o":"m 531 579 l 185 94 l 538 94 l 538 0 l 35 0 l 35 78 l 381 558 l 58 558 l 58 653 l 531 653 l 531 579 z "},"ă":{"ha":679,"x_min":50,"x_max":594,"o":"m 101 594 q 164 624 135 611 q 222 646 193 638 q 282 658 251 654 q 349 663 313 663 q 448 651 403 663 q 526 611 493 639 q 576 538 558 583 q 594 425 594 493 l 594 0 l 493 0 l 478 72 l 475 72 q 381 7 432 26 q 267 -12 329 -12 q 180 1 219 -12 q 111 38 140 14 q 66 97 82 63 q 50 175 50 132 q 131 331 50 278 q 346 385 213 385 l 471 385 l 471 440 q 435 537 471 511 q 338 563 399 563 q 255 551 301 563 q 149 506 208 539 l 101 594 m 472 301 l 369 299 q 222 262 265 296 q 178 179 178 228 q 188 130 178 150 q 213 99 197 110 q 251 83 229 88 q 296 78 272 78 q 389 99 342 78 q 472 168 436 121 l 472 301 m 253 944 q 277 874 258 900 q 353 847 296 847 q 424 872 401 847 q 453 944 447 897 l 539 944 q 491 821 539 869 q 353 772 443 772 q 267 787 303 772 q 209 826 232 801 q 176 881 186 850 q 165 944 165 913 l 253 944 z "},"ā":{"ha":679,"x_min":50,"x_max":594,"o":"m 101 594 q 164 624 135 611 q 222 646 193 638 q 282 658 251 654 q 349 663 313 663 q 448 651 403 663 q 526 611 493 639 q 576 538 558 583 q 594 425 594 493 l 594 0 l 493 0 l 478 72 l 475 72 q 381 7 432 26 q 267 -12 329 -12 q 180 1 219 -12 q 111 38 140 14 q 66 97 82 63 q 50 175 50 132 q 131 331 50 278 q 346 385 213 385 l 471 385 l 471 440 q 435 537 471 511 q 338 563 399 563 q 255 551 301 563 q 149 506 208 539 l 101 594 m 472 301 l 369 299 q 222 262 265 296 q 178 179 178 228 q 188 130 178 150 q 213 99 197 110 q 251 83 229 88 q 296 78 272 78 q 389 99 342 78 q 472 168 436 121 l 472 301 m 526 906 l 526 819 l 186 819 l 186 906 l 526 906 z "},"ą":{"ha":679,"x_min":50,"x_max":654,"o":"m 594 0 q 520 -62 550 -29 q 490 -132 490 -96 q 512 -184 490 -165 q 567 -203 533 -203 q 636 -192 607 -203 l 654 -257 q 543 -286 606 -286 q 437 -251 479 -286 q 394 -151 394 -217 q 403 -102 394 -125 q 427 -60 413 -79 q 459 -26 442 -40 q 493 0 476 -11 l 478 72 l 475 72 q 381 7 432 26 q 267 -12 329 -12 q 180 1 219 -12 q 111 38 140 14 q 66 97 82 63 q 50 175 50 132 q 131 331 50 278 q 346 385 213 385 l 471 385 l 471 440 q 435 537 471 511 q 338 563 399 563 q 255 551 301 563 q 149 506 208 539 l 101 594 q 164 624 135 611 q 222 646 193 638 q 282 658 251 654 q 349 663 313 663 q 448 651 403 663 q 526 611 493 639 q 576 538 558 583 q 594 425 594 493 l 594 0 m 472 301 l 369 299 q 222 262 265 296 q 178 179 178 228 q 188 130 178 150 q 213 99 197 110 q 251 83 229 88 q 296 78 272 78 q 389 99 342 78 q 472 168 436 121 l 472 301 z "},"ǽ":{"ha":1090,"x_min":50,"x_max":1040,"o":"m 1040 306 l 586 306 l 586 300 q 642 137 586 192 q 799 82 697 82 q 892 90 851 82 q 982 118 933 99 l 1007 28 q 912 -1 967 10 q 794 -12 857 -12 q 639 15 707 -12 q 529 107 571 43 l 526 107 q 422 18 482 49 q 271 -12 363 -12 q 183 1 224 -12 q 113 38 143 14 q 67 97 83 63 q 50 175 50 132 q 131 331 50 278 q 346 385 213 385 l 475 385 l 475 440 q 437 537 475 511 q 338 563 399 563 q 255 551 301 563 q 149 506 208 539 l 101 594 q 164 624 135 611 q 222 646 193 638 q 282 658 251 654 q 349 663 313 663 q 472 642 424 663 q 551 568 519 621 l 554 568 q 653 642 599 621 q 772 663 708 663 q 885 642 836 663 q 969 583 935 621 q 1022 490 1004 544 q 1040 369 1040 436 l 1040 306 m 178 179 q 188 130 178 150 q 213 99 197 110 q 251 83 229 88 q 296 78 272 78 q 405 103 354 78 q 492 183 456 128 q 478 238 483 210 q 472 301 474 267 l 369 299 q 222 262 265 296 q 178 179 178 228 m 914 389 q 906 458 914 425 q 881 517 899 492 q 835 558 863 543 q 765 574 807 574 q 642 524 689 574 q 588 388 594 474 l 914 389 m 739 958 l 599 772 l 499 772 l 596 958 l 739 958 z "},"ć":{"ha":614,"x_min":54,"x_max":574,"o":"m 404 82 q 482 92 449 82 q 547 117 515 101 l 574 25 q 394 -12 499 -12 q 262 8 324 -12 q 153 72 200 29 q 81 177 107 114 q 54 325 54 240 q 79 465 54 403 q 149 572 104 528 q 256 639 193 615 q 393 663 318 663 q 477 656 436 663 q 571 626 518 650 l 543 533 q 406 569 479 569 q 242 506 304 569 q 179 329 179 443 q 199 211 179 258 q 250 135 218 164 q 322 94 282 107 q 404 82 363 82 m 385 772 l 285 772 l 382 958 l 525 958 l 385 772 z "},"č":{"ha":614,"x_min":54,"x_max":574,"o":"m 404 82 q 482 92 449 82 q 547 117 515 101 l 574 25 q 394 -12 499 -12 q 262 8 324 -12 q 153 72 200 29 q 81 177 107 114 q 54 325 54 240 q 79 465 54 403 q 149 572 104 528 q 256 639 193 615 q 393 663 318 663 q 477 656 436 663 q 571 626 518 650 l 543 533 q 406 569 479 569 q 242 506 304 569 q 179 329 179 443 q 199 211 179 258 q 250 135 218 164 q 322 94 282 107 q 404 82 363 82 m 160 958 l 265 958 l 363 842 l 460 958 l 571 958 l 411 772 l 315 772 l 160 958 z "},"ĉ":{"ha":614,"x_min":54,"x_max":574,"o":"m 404 82 q 482 92 449 82 q 547 117 515 101 l 574 25 q 394 -12 499 -12 q 262 8 324 -12 q 153 72 200 29 q 81 177 107 114 q 54 325 54 240 q 79 465 54 403 q 149 572 104 528 q 256 639 193 615 q 393 663 318 663 q 477 656 436 663 q 571 626 518 650 l 543 533 q 406 569 479 569 q 242 506 304 569 q 179 329 179 443 q 199 211 179 258 q 250 135 218 164 q 322 94 282 107 q 404 82 363 82 m 561 772 l 456 772 l 358 889 l 261 772 l 150 772 l 310 958 l 406 958 l 561 772 z "},"ċ":{"ha":614,"x_min":54,"x_max":574,"o":"m 404 82 q 482 92 449 82 q 547 117 515 101 l 574 25 q 394 -12 499 -12 q 262 8 324 -12 q 153 72 200 29 q 81 177 107 114 q 54 325 54 240 q 79 465 54 403 q 149 572 104 528 q 256 639 193 615 q 393 663 318 663 q 477 656 436 663 q 571 626 518 650 l 543 533 q 406 569 479 569 q 242 506 304 569 q 179 329 179 443 q 199 211 179 258 q 250 135 218 164 q 322 94 282 107 q 404 82 363 82 m 292 867 q 315 919 292 896 q 368 942 338 942 q 422 919 400 942 q 444 867 444 896 q 422 812 444 835 q 368 789 400 789 q 315 812 338 789 q 292 867 292 835 z "},"ď":{"ha":900,"x_min":54,"x_max":935,"o":"m 528 986 l 650 986 l 650 0 l 547 0 l 532 72 l 528 72 q 441 8 485 28 q 331 -12 397 -12 q 228 8 278 -12 q 140 71 179 29 q 78 176 101 113 q 54 325 54 239 q 74 464 54 401 q 132 571 94 526 q 224 639 169 615 q 347 663 278 663 q 445 647 399 663 q 528 599 492 631 l 528 986 m 528 496 q 374 569 463 569 q 301 556 336 569 q 238 514 265 543 q 194 439 211 485 q 178 329 178 393 q 193 216 178 263 q 234 140 208 169 q 292 96 260 110 q 358 82 325 82 q 528 172 463 82 l 528 496 m 825 867 q 780 891 804 871 q 756 947 756 911 q 777 1005 756 981 q 838 1029 799 1029 q 871 1022 854 1029 q 902 1001 888 1015 q 926 963 917 986 q 935 907 935 940 q 924 842 935 875 q 892 779 913 810 q 843 723 871 749 q 782 679 815 697 l 747 728 q 817 788 786 751 q 850 861 847 825 l 825 867 z "},"≤":{"ha":603,"x_min":56,"x_max":547,"o":"m 547 119 l 57 119 l 57 204 l 547 204 l 547 119 m 56 572 l 547 807 l 547 703 l 167 529 l 547 358 l 547 256 l 56 490 l 56 572 z "},"≥":{"ha":603,"x_min":56,"x_max":547,"o":"m 56 204 l 546 204 l 546 119 l 56 119 l 56 204 m 547 490 l 56 256 l 56 360 l 436 533 l 56 704 l 56 807 l 547 572 l 547 490 z "},"đ":{"ha":749,"x_min":54,"x_max":763,"o":"m 528 986 l 650 986 l 650 875 l 763 875 l 763 789 l 650 789 l 650 0 l 547 0 l 532 72 l 528 72 q 441 8 485 28 q 331 -12 397 -12 q 228 8 278 -12 q 140 71 179 29 q 78 176 101 113 q 54 325 54 239 q 74 464 54 401 q 132 571 94 526 q 224 639 169 615 q 347 663 278 663 q 445 647 399 663 q 528 599 492 631 l 528 789 l 374 789 l 374 875 l 528 875 l 528 986 m 528 496 q 374 569 463 569 q 301 556 336 569 q 238 514 265 543 q 194 439 211 485 q 178 329 178 393 q 193 216 178 263 q 234 140 208 169 q 292 96 260 110 q 358 82 325 82 q 528 172 463 82 l 528 496 z "},"ĕ":{"ha":700,"x_min":54,"x_max":650,"o":"m 650 313 l 182 313 l 182 307 q 241 140 182 199 q 401 82 300 82 q 495 90 454 82 q 585 118 536 99 l 610 28 q 515 -1 569 10 q 397 -12 460 -12 q 265 7 326 -12 q 156 67 203 26 q 81 172 108 108 q 54 325 54 236 q 77 464 54 401 q 142 570 100 526 q 242 638 183 614 q 375 663 301 663 q 488 642 438 663 q 575 583 539 621 q 631 493 611 546 q 650 376 650 440 l 650 313 m 524 400 q 515 467 524 436 q 487 522 506 499 q 439 560 468 546 q 368 574 410 574 q 244 525 292 574 q 185 397 196 476 l 524 400 m 275 944 q 299 874 281 900 q 375 847 318 847 q 447 872 424 847 q 475 944 469 897 l 561 944 q 513 821 561 869 q 375 772 465 772 q 290 787 325 772 q 231 826 254 801 q 198 881 208 850 q 188 944 188 913 l 275 944 z "},"ě":{"ha":700,"x_min":54,"x_max":650,"o":"m 650 313 l 182 313 l 182 307 q 241 140 182 199 q 401 82 300 82 q 495 90 454 82 q 585 118 536 99 l 610 28 q 515 -1 569 10 q 397 -12 460 -12 q 265 7 326 -12 q 156 67 203 26 q 81 172 108 108 q 54 325 54 236 q 77 464 54 401 q 142 570 100 526 q 242 638 183 614 q 375 663 301 663 q 488 642 438 663 q 575 583 539 621 q 631 493 611 546 q 650 376 650 440 l 650 313 m 524 400 q 515 467 524 436 q 487 522 506 499 q 439 560 468 546 q 368 574 410 574 q 244 525 292 574 q 185 397 196 476 l 524 400 m 571 958 l 415 772 l 319 772 l 160 958 l 271 958 l 368 842 l 465 958 l 571 958 z "},"ė":{"ha":700,"x_min":54,"x_max":650,"o":"m 650 313 l 182 313 l 182 307 q 241 140 182 199 q 401 82 300 82 q 495 90 454 82 q 585 118 536 99 l 610 28 q 515 -1 569 10 q 397 -12 460 -12 q 265 7 326 -12 q 156 67 203 26 q 81 172 108 108 q 54 325 54 236 q 77 464 54 401 q 142 570 100 526 q 242 638 183 614 q 375 663 301 663 q 488 642 438 663 q 575 583 539 621 q 631 493 611 546 q 650 376 650 440 l 650 313 m 524 400 q 515 467 524 436 q 487 522 506 499 q 439 560 468 546 q 368 574 410 574 q 244 525 292 574 q 185 397 196 476 l 524 400 m 293 867 q 316 919 293 896 q 369 942 339 942 q 424 919 401 942 q 446 867 446 896 q 424 812 446 835 q 369 789 401 789 q 316 812 339 789 q 293 867 293 835 z "},"ē":{"ha":700,"x_min":54,"x_max":650,"o":"m 650 313 l 182 313 l 182 307 q 241 140 182 199 q 401 82 300 82 q 495 90 454 82 q 585 118 536 99 l 610 28 q 515 -1 569 10 q 397 -12 460 -12 q 265 7 326 -12 q 156 67 203 26 q 81 172 108 108 q 54 325 54 236 q 77 464 54 401 q 142 570 100 526 q 242 638 183 614 q 375 663 301 663 q 488 642 438 663 q 575 583 539 621 q 631 493 611 546 q 650 376 650 440 l 650 313 m 524 400 q 515 467 524 436 q 487 522 506 499 q 439 560 468 546 q 368 574 410 574 q 244 525 292 574 q 185 397 196 476 l 524 400 m 535 906 l 535 819 l 194 819 l 194 906 l 535 906 z "},"ę":{"ha":700,"x_min":54,"x_max":650,"o":"m 650 313 l 182 313 l 182 307 q 241 140 182 199 q 401 82 300 82 q 495 90 454 82 q 585 118 536 99 l 610 28 q 549 -2 576 11 q 503 -29 522 -15 q 473 -60 483 -43 q 463 -104 463 -78 q 484 -156 463 -137 q 539 -175 506 -175 q 608 -164 579 -175 l 626 -229 q 515 -258 578 -258 q 409 -226 451 -258 q 367 -128 367 -193 q 384 -65 367 -96 q 436 -15 401 -35 l 436 -11 q 417 -12 426 -11 q 397 -12 407 -12 q 265 7 326 -12 q 156 67 203 26 q 81 172 108 108 q 54 325 54 236 q 77 464 54 401 q 142 570 100 526 q 242 638 183 614 q 375 663 301 663 q 488 642 438 663 q 575 583 539 621 q 631 493 611 546 q 650 376 650 440 l 650 313 m 524 400 q 515 467 524 436 q 487 522 506 499 q 439 560 468 546 q 368 574 410 574 q 244 525 292 574 q 185 397 196 476 l 524 400 z "},"ﬀ":{"ha":849,"x_min":26,"x_max":883,"o":"m 740 993 q 883 960 817 993 l 851 875 q 807 890 824 886 q 767 893 790 893 q 672 856 700 893 q 643 728 643 818 l 643 653 l 842 653 l 842 561 l 643 561 l 643 0 l 522 0 l 522 561 l 243 561 l 243 0 l 122 0 l 122 561 l 26 561 l 26 653 l 122 653 l 122 768 q 178 935 122 876 q 340 993 235 993 q 483 960 417 993 l 451 875 q 407 890 424 886 q 367 893 390 893 q 272 856 300 893 q 243 728 243 818 l 243 653 l 522 653 l 522 768 q 578 935 522 876 q 740 993 635 993 z "},"ﬃ":{"ha":1133,"x_min":26,"x_max":1039,"o":"m 340 993 q 483 960 417 993 l 451 875 q 407 890 424 886 q 367 893 390 893 q 272 856 300 893 q 243 728 243 818 l 243 653 l 519 653 l 519 726 q 539 834 519 785 q 594 919 558 883 q 680 974 629 954 q 793 993 731 993 q 881 982 832 993 q 964 954 931 971 l 939 869 q 879 887 911 881 q 819 893 847 893 q 686 853 732 893 q 640 714 640 814 l 640 653 l 1039 653 l 1039 0 l 917 0 l 917 561 l 640 561 l 640 0 l 519 0 l 519 561 l 243 561 l 243 0 l 122 0 l 122 561 l 26 561 l 26 653 l 122 653 l 122 768 q 178 935 122 876 q 340 993 235 993 z "},"ﬄ":{"ha":1115,"x_min":26,"x_max":1035,"o":"m 340 993 q 483 960 417 993 l 451 875 q 407 890 424 886 q 367 893 390 893 q 272 856 300 893 q 243 728 243 818 l 243 653 l 518 653 l 518 726 q 538 834 518 785 q 592 919 557 883 q 679 974 628 954 q 793 993 731 993 q 931 974 871 993 q 1035 932 992 956 l 1035 0 l 915 0 l 915 561 l 639 561 l 639 0 l 518 0 l 518 561 l 243 561 l 243 0 l 122 0 l 122 561 l 26 561 l 26 653 l 122 653 l 122 768 q 178 935 122 876 q 340 993 235 993 m 639 653 l 915 653 l 915 876 q 866 888 892 883 q 818 893 840 893 q 685 853 731 893 q 639 714 639 814 l 639 653 z "},"ﬁ":{"ha":729,"x_min":26,"x_max":642,"o":"m 519 0 l 519 561 l 243 561 l 243 0 l 122 0 l 122 561 l 26 561 l 26 653 l 122 653 l 122 726 q 142 834 122 785 q 197 919 161 883 q 283 974 232 954 q 396 993 333 993 q 484 982 435 993 q 567 954 533 971 l 542 869 q 482 887 514 881 q 422 893 450 893 q 289 853 335 893 q 243 714 243 814 l 243 653 l 642 653 l 642 0 l 519 0 z "},"ﬂ":{"ha":736,"x_min":26,"x_max":639,"o":"m 519 0 l 519 561 l 243 561 l 243 0 l 122 0 l 122 561 l 26 561 l 26 653 l 122 653 l 122 726 q 142 834 122 785 q 197 919 161 883 q 283 974 232 954 q 397 993 335 993 q 535 974 475 993 q 639 932 596 956 l 639 0 l 519 0 m 243 653 l 519 653 l 519 876 q 470 888 496 883 q 422 893 444 893 q 289 853 335 893 q 243 714 243 814 l 243 653 z "},"ğ":{"ha":751,"x_min":44,"x_max":710,"o":"m 85 436 q 104 533 85 490 q 159 604 124 575 q 243 648 194 633 q 349 663 292 663 q 389 660 369 663 q 428 653 408 657 l 710 653 l 710 563 l 667 563 l 556 578 q 597 514 582 550 q 611 438 611 478 q 592 341 611 383 q 538 269 572 299 q 454 226 503 240 q 349 211 406 211 q 274 217 306 211 q 229 188 242 206 q 217 151 217 171 q 238 108 217 119 q 296 97 260 97 l 468 97 q 634 48 576 97 q 692 -86 692 -1 q 668 -183 692 -140 q 601 -257 644 -226 q 494 -303 557 -287 q 354 -319 432 -319 q 128 -269 213 -319 q 44 -119 44 -218 q 77 -33 44 -68 q 163 19 110 1 q 121 60 135 39 q 107 118 107 82 q 133 192 107 161 q 203 240 158 222 q 116 313 147 265 q 85 436 85 361 m 233 0 q 163 -100 163 -32 q 360 -222 163 -222 q 458 -211 418 -222 q 524 -182 499 -200 q 560 -142 549 -164 q 572 -96 572 -119 q 533 -19 572 -37 q 433 0 493 0 l 233 0 m 488 433 q 449 542 488 507 q 349 576 411 576 q 248 542 286 576 q 210 439 210 507 q 248 333 210 367 q 349 299 286 299 q 449 332 411 299 q 488 433 488 365 m 282 944 q 306 874 288 900 q 382 847 325 847 q 453 872 431 847 q 482 944 476 897 l 568 944 q 520 821 568 869 q 382 772 472 772 q 297 787 332 772 q 238 826 261 801 q 205 881 215 850 q 194 944 194 913 l 282 944 z "},"ĝ":{"ha":751,"x_min":44,"x_max":710,"o":"m 85 436 q 104 533 85 490 q 159 604 124 575 q 243 648 194 633 q 349 663 292 663 q 389 660 369 663 q 428 653 408 657 l 710 653 l 710 563 l 667 563 l 556 578 q 597 514 582 550 q 611 438 611 478 q 592 341 611 383 q 538 269 572 299 q 454 226 503 240 q 349 211 406 211 q 274 217 306 211 q 229 188 242 206 q 217 151 217 171 q 238 108 217 119 q 296 97 260 97 l 468 97 q 634 48 576 97 q 692 -86 692 -1 q 668 -183 692 -140 q 601 -257 644 -226 q 494 -303 557 -287 q 354 -319 432 -319 q 128 -269 213 -319 q 44 -119 44 -218 q 77 -33 44 -68 q 163 19 110 1 q 121 60 135 39 q 107 118 107 82 q 133 192 107 161 q 203 240 158 222 q 116 313 147 265 q 85 436 85 361 m 233 0 q 163 -100 163 -32 q 360 -222 163 -222 q 458 -211 418 -222 q 524 -182 499 -200 q 560 -142 549 -164 q 572 -96 572 -119 q 533 -19 572 -37 q 433 0 493 0 l 233 0 m 488 433 q 449 542 488 507 q 349 576 411 576 q 248 542 286 576 q 210 439 210 507 q 248 333 210 367 q 349 299 286 299 q 449 332 411 299 q 488 433 488 365 m 565 772 l 460 772 l 363 889 l 265 772 l 154 772 l 314 958 l 410 958 l 565 772 z "},"ģ":{"ha":751,"x_min":44,"x_max":710,"o":"m 85 436 q 104 533 85 490 q 159 604 124 575 q 243 648 194 633 q 349 663 292 663 q 389 660 369 663 q 428 653 408 657 l 710 653 l 710 563 l 667 563 l 556 578 q 597 514 582 550 q 611 438 611 478 q 592 341 611 383 q 538 269 572 299 q 454 226 503 240 q 349 211 406 211 q 274 217 306 211 q 229 188 242 206 q 217 151 217 171 q 238 108 217 119 q 296 97 260 97 l 468 97 q 634 48 576 97 q 692 -86 692 -1 q 668 -183 692 -140 q 601 -257 644 -226 q 494 -303 557 -287 q 354 -319 432 -319 q 128 -269 213 -319 q 44 -119 44 -218 q 77 -33 44 -68 q 163 19 110 1 q 121 60 135 39 q 107 118 107 82 q 133 192 107 161 q 203 240 158 222 q 116 313 147 265 q 85 436 85 361 m 233 0 q 163 -100 163 -32 q 360 -222 163 -222 q 458 -211 418 -222 q 524 -182 499 -200 q 560 -142 549 -164 q 572 -96 572 -119 q 533 -19 572 -37 q 433 0 493 0 l 233 0 m 488 433 q 449 542 488 507 q 349 576 411 576 q 248 542 286 576 q 210 439 210 507 q 248 333 210 367 q 349 299 286 299 q 449 332 411 299 q 488 433 488 365 m 361 935 q 406 910 382 931 q 431 854 431 890 q 409 797 431 821 q 349 772 388 772 q 315 778 332 772 q 284 799 299 785 q 260 838 269 814 q 251 894 251 861 q 263 959 251 926 q 294 1022 274 992 q 343 1078 315 1051 q 404 1122 371 1104 l 439 1074 q 369 1013 400 1050 q 336 940 339 976 l 361 935 z "},"ġ":{"ha":751,"x_min":44,"x_max":710,"o":"m 85 436 q 104 533 85 490 q 159 604 124 575 q 243 648 194 633 q 349 663 292 663 q 389 660 369 663 q 428 653 408 657 l 710 653 l 710 563 l 667 563 l 556 578 q 597 514 582 550 q 611 438 611 478 q 592 341 611 383 q 538 269 572 299 q 454 226 503 240 q 349 211 406 211 q 274 217 306 211 q 229 188 242 206 q 217 151 217 171 q 238 108 217 119 q 296 97 260 97 l 468 97 q 634 48 576 97 q 692 -86 692 -1 q 668 -183 692 -140 q 601 -257 644 -226 q 494 -303 557 -287 q 354 -319 432 -319 q 128 -269 213 -319 q 44 -119 44 -218 q 77 -33 44 -68 q 163 19 110 1 q 121 60 135 39 q 107 118 107 82 q 133 192 107 161 q 203 240 158 222 q 116 313 147 265 q 85 436 85 361 m 233 0 q 163 -100 163 -32 q 360 -222 163 -222 q 458 -211 418 -222 q 524 -182 499 -200 q 560 -142 549 -164 q 572 -96 572 -119 q 533 -19 572 -37 q 433 0 493 0 l 233 0 m 488 433 q 449 542 488 507 q 349 576 411 576 q 248 542 286 576 q 210 439 210 507 q 248 333 210 367 q 349 299 286 299 q 449 332 411 299 q 488 433 488 365 m 274 867 q 297 919 274 896 q 350 942 319 942 q 404 919 382 942 q 426 867 426 896 q 404 812 426 835 q 350 789 382 789 q 297 812 319 789 q 274 867 274 835 z "},"ħ":{"ha":751,"x_min":-14,"x_max":656,"o":"m 375 875 l 375 789 l 219 789 l 219 569 q 321 636 265 610 q 443 663 376 663 q 538 647 497 663 q 603 602 578 631 q 642 535 629 574 q 656 450 656 496 l 656 0 l 533 0 l 533 419 q 503 528 533 494 q 410 563 472 563 q 315 539 363 563 q 219 472 267 515 l 219 0 l 97 0 l 97 789 l -14 789 l -14 875 l 97 875 l 97 986 l 219 986 l 219 875 l 375 875 z "},"ĥ":{"ha":750,"x_min":-51,"x_max":654,"o":"m 218 0 l 96 0 l 96 944 l 218 944 l 218 569 q 319 636 264 610 q 442 663 375 663 q 536 647 496 663 q 602 602 576 631 q 641 535 628 574 q 654 450 654 496 l 654 0 l 532 0 l 532 419 q 501 528 532 494 q 408 563 471 563 q 313 539 361 563 q 218 472 265 515 l 218 0 m 360 1022 l 254 1022 l 157 1139 l 60 1022 l -51 1022 l 108 1208 l 204 1208 l 360 1022 z "},"ĭ":{"ha":344,"x_min":-14,"x_max":360,"o":"m 111 0 l 111 653 l 233 653 l 233 0 l 111 0 m 74 944 q 98 874 79 900 q 174 847 117 847 q 245 872 222 847 q 274 944 268 897 l 360 944 q 312 821 360 869 q 174 772 264 772 q 88 787 124 772 q 30 826 53 801 q -3 881 7 850 q -14 944 -14 913 l 74 944 z "},"ī":{"ha":344,"x_min":1,"x_max":342,"o":"m 111 0 l 111 653 l 233 653 l 233 0 l 111 0 m 342 906 l 342 819 l 1 819 l 1 906 l 342 906 z "},"į":{"ha":344,"x_min":-3,"x_max":257,"o":"m 233 0 q 132 -60 171 -31 q 93 -132 93 -89 q 115 -184 93 -165 q 169 -203 136 -203 q 239 -192 210 -203 l 257 -257 q 146 -286 208 -286 q 40 -251 82 -286 q -3 -151 -3 -217 q 8 -101 -3 -125 q 34 -58 18 -78 q 70 -24 50 -39 q 111 0 90 -10 l 111 653 l 233 653 l 233 0 m 172 825 q 119 846 140 825 q 99 899 99 867 q 119 951 99 931 q 172 972 140 972 q 224 951 203 972 q 246 899 246 931 q 224 846 246 867 q 172 825 203 825 z "},"ĩ":{"ha":344,"x_min":-37,"x_max":383,"o":"m 111 0 l 111 653 l 233 653 l 233 0 l 111 0 m -37 772 q -9 881 -37 836 q 83 925 19 925 q 135 915 113 925 q 178 894 158 906 q 218 874 199 883 q 260 864 238 864 q 299 885 288 864 q 314 929 311 906 l 383 929 q 376 873 383 900 q 355 824 369 846 q 319 790 340 803 q 268 776 297 776 q 213 785 239 776 q 165 806 188 794 q 124 827 143 818 q 88 836 104 836 q 47 818 58 836 q 32 772 35 800 l -37 772 z "},"ĳ":{"ha":615,"x_min":99,"x_max":526,"o":"m 115 0 l 115 653 l 238 653 l 238 0 l 115 0 m 176 821 q 122 842 144 821 q 99 896 99 864 q 122 950 99 928 q 176 972 144 972 q 231 950 207 972 q 254 896 254 928 q 231 842 254 864 q 176 821 207 821 m 389 653 l 511 653 l 511 99 q 502 -47 511 19 q 468 -166 493 -112 q 399 -261 443 -219 q 285 -333 354 -303 l 228 -242 q 302 -196 271 -219 q 352 -137 333 -172 q 380 -49 371 -101 q 389 83 389 3 l 389 653 m 449 821 q 394 842 417 821 q 371 896 371 864 q 394 950 371 928 q 449 972 417 972 q 503 950 479 972 q 526 896 526 928 q 503 842 526 864 q 449 821 479 821 z "},"ĵ":{"ha":339,"x_min":-54,"x_max":383,"o":"m 107 653 l 229 653 l 229 99 q 220 -47 229 19 q 186 -166 211 -112 q 117 -261 161 -219 q 3 -333 72 -303 l -54 -242 q 20 -196 -11 -219 q 70 -137 51 -172 q 98 -49 89 -101 q 107 83 107 3 l 107 653 m 383 772 l 278 772 l 181 889 l 83 772 l -28 772 l 132 958 l 228 958 l 383 772 z "},"ķ":{"ha":649,"x_min":96,"x_max":643,"o":"m 217 239 l 217 0 l 96 0 l 96 986 l 217 986 l 217 372 l 479 653 l 631 653 l 363 378 l 643 0 l 499 0 l 282 304 l 217 239 m 329 -253 q 284 -228 308 -249 q 260 -172 260 -208 q 281 -115 260 -139 q 342 -90 303 -90 q 375 -97 358 -90 q 406 -119 392 -104 q 430 -156 421 -133 q 439 -212 439 -179 q 428 -277 439 -244 q 396 -340 417 -310 q 347 -397 375 -371 q 286 -440 319 -422 l 251 -392 q 321 -331 290 -368 q 354 -258 351 -294 l 329 -253 z "},"ĺ":{"ha":310,"x_min":96,"x_max":336,"o":"m 96 0 l 96 944 l 215 944 l 215 0 l 96 0 m 196 1042 l 96 1042 l 193 1228 l 336 1228 l 196 1042 z "},"ľ":{"ha":476,"x_min":96,"x_max":504,"o":"m 96 0 l 96 986 l 215 986 l 215 0 l 96 0 m 394 867 q 349 891 374 871 q 325 947 325 911 q 347 1005 325 981 q 407 1029 368 1029 q 440 1022 424 1029 q 472 1001 457 1015 q 495 963 486 986 q 504 907 504 940 q 493 842 504 875 q 461 779 482 810 q 413 723 440 749 q 351 679 385 697 l 317 728 q 386 788 356 751 q 419 861 417 825 l 394 867 z "},"ļ":{"ha":310,"x_min":57,"x_max":244,"o":"m 96 0 l 96 986 l 215 986 l 215 0 l 96 0 m 135 -253 q 90 -228 114 -249 q 65 -172 65 -208 q 87 -115 65 -139 q 147 -90 108 -90 q 181 -97 164 -90 q 212 -119 197 -104 q 235 -156 226 -133 q 244 -212 244 -179 q 233 -277 244 -244 q 201 -340 222 -310 q 153 -397 181 -371 q 92 -440 125 -422 l 57 -392 q 126 -331 96 -368 q 160 -258 157 -294 l 135 -253 z "},"ŀ":{"ha":392,"x_min":96,"x_max":475,"o":"m 96 0 l 96 986 l 215 986 l 215 0 l 96 0 m 313 460 q 336 522 313 496 q 396 547 360 547 q 451 522 428 547 q 475 460 475 496 q 451 399 475 425 q 396 374 428 374 q 336 399 360 374 q 313 460 313 425 z "},"ł":{"ha":481,"x_min":-1,"x_max":483,"o":"m 432 697 l 483 646 l 288 450 l 288 0 l 168 0 l 168 358 l 50 240 l -1 292 l 168 461 l 168 986 l 288 986 l 288 553 l 432 697 z "},"ń":{"ha":739,"x_min":92,"x_max":644,"o":"m 214 0 l 92 0 l 92 653 l 188 653 l 206 563 q 308 637 254 611 q 431 663 361 663 q 588 606 531 663 q 644 450 644 550 l 644 0 l 522 0 l 522 432 q 491 527 522 492 q 396 563 460 563 q 214 475 299 563 l 214 0 m 426 772 l 326 772 l 424 958 l 567 958 l 426 772 z "},"ŉ":{"ha":768,"x_min":-28,"x_max":674,"o":"m 243 0 l 121 0 l 121 653 l 217 653 l 235 563 q 337 637 283 611 q 460 663 390 663 q 617 606 560 663 q 674 450 674 550 l 674 0 l 551 0 l 551 432 q 520 527 551 492 q 425 563 489 563 q 243 475 328 563 l 243 0 m 50 867 q 5 891 29 871 q -19 947 -19 911 q 2 1005 -19 981 q 63 1029 24 1029 q 96 1022 79 1029 q 127 1001 113 1015 q 151 963 142 986 q 160 907 160 940 q 149 842 160 875 q 117 779 138 810 q 68 723 96 749 q 7 679 40 697 l -28 728 q 42 788 11 751 q 75 861 72 825 l 50 867 z "},"ň":{"ha":739,"x_min":92,"x_max":644,"o":"m 214 0 l 92 0 l 92 653 l 188 653 l 206 563 q 308 637 254 611 q 431 663 361 663 q 588 606 531 663 q 644 450 644 550 l 644 0 l 522 0 l 522 432 q 491 527 522 492 q 396 563 460 563 q 214 475 299 563 l 214 0 m 429 772 l 333 772 l 174 958 l 285 958 l 382 842 l 479 958 l 585 958 l 429 772 z "},"ņ":{"ha":739,"x_min":92,"x_max":644,"o":"m 214 0 l 92 0 l 92 653 l 188 653 l 206 563 q 308 637 254 611 q 431 663 361 663 q 588 606 531 663 q 644 450 644 550 l 644 0 l 522 0 l 522 432 q 491 527 522 492 q 396 563 460 563 q 214 475 299 563 l 214 0 m 357 -253 q 312 -228 336 -249 q 288 -172 288 -208 q 309 -115 288 -139 q 369 -90 331 -90 q 403 -97 386 -90 q 434 -119 419 -104 q 458 -156 449 -133 q 467 -212 467 -179 q 456 -277 467 -244 q 424 -340 444 -310 q 375 -397 403 -371 q 314 -440 347 -422 l 279 -392 q 349 -331 318 -368 q 382 -258 379 -294 l 357 -253 z "},"ŏ":{"ha":747,"x_min":54,"x_max":693,"o":"m 693 333 q 668 187 693 251 q 599 78 643 122 q 497 10 556 33 q 371 -12 439 -12 q 245 9 303 -12 q 145 73 188 31 q 78 177 103 115 q 54 319 54 239 q 79 465 54 401 q 148 573 104 529 q 250 640 192 617 q 376 663 308 663 q 502 642 444 663 q 602 579 560 621 q 669 476 644 538 q 693 333 693 414 m 565 326 q 549 438 565 392 q 505 513 532 483 q 443 555 478 542 q 372 568 408 568 q 301 557 336 568 q 240 518 267 546 q 198 444 214 490 q 182 326 182 397 q 199 215 182 261 q 242 139 215 168 q 304 96 269 110 q 375 82 339 82 q 446 94 411 82 q 507 134 481 106 q 549 209 533 163 q 565 326 565 256 m 279 944 q 303 874 285 900 q 379 847 322 847 q 451 872 428 847 q 479 944 474 897 l 565 944 q 517 821 565 869 q 379 772 469 772 q 294 787 329 772 q 235 826 258 801 q 202 881 213 850 q 192 944 192 913 l 279 944 z "},"ő":{"ha":747,"x_min":54,"x_max":693,"o":"m 693 333 q 668 187 693 251 q 599 78 643 122 q 497 10 556 33 q 371 -12 439 -12 q 245 9 303 -12 q 145 73 188 31 q 78 177 103 115 q 54 319 54 239 q 79 465 54 401 q 148 573 104 529 q 250 640 192 617 q 376 663 308 663 q 502 642 444 663 q 602 579 560 621 q 669 476 644 538 q 693 333 693 414 m 565 326 q 549 438 565 392 q 505 513 532 483 q 443 555 478 542 q 372 568 408 568 q 301 557 336 568 q 240 518 267 546 q 198 444 214 490 q 182 326 182 397 q 199 215 182 261 q 242 139 215 168 q 304 96 269 110 q 375 82 339 82 q 446 94 411 82 q 507 134 481 106 q 549 209 533 163 q 565 326 565 256 m 285 772 l 190 772 l 294 958 l 432 958 l 285 772 m 507 772 l 413 772 l 517 958 l 654 958 l 507 772 z "},"ō":{"ha":747,"x_min":54,"x_max":693,"o":"m 693 333 q 668 187 693 251 q 599 78 643 122 q 497 10 556 33 q 371 -12 439 -12 q 245 9 303 -12 q 145 73 188 31 q 78 177 103 115 q 54 319 54 239 q 79 465 54 401 q 148 573 104 529 q 250 640 192 617 q 376 663 308 663 q 502 642 444 663 q 602 579 560 621 q 669 476 644 538 q 693 333 693 414 m 565 326 q 549 438 565 392 q 505 513 532 483 q 443 555 478 542 q 372 568 408 568 q 301 557 336 568 q 240 518 267 546 q 198 444 214 490 q 182 326 182 397 q 199 215 182 261 q 242 139 215 168 q 304 96 269 110 q 375 82 339 82 q 446 94 411 82 q 507 134 481 106 q 549 209 533 163 q 565 326 565 256 m 546 906 l 546 819 l 206 819 l 206 906 l 546 906 z "},"ǿ":{"ha":747,"x_min":54,"x_max":693,"o":"m 497 789 l 556 775 l 513 638 q 642 528 592 601 q 693 333 693 454 q 668 187 693 251 q 599 78 643 122 q 497 10 556 33 q 371 -12 439 -12 q 333 -10 351 -12 q 297 -6 314 -8 l 260 -126 l 203 -111 l 242 11 q 106 122 157 47 q 54 319 54 197 q 79 465 54 401 q 148 573 104 529 q 250 640 192 617 q 376 663 308 663 q 456 654 415 663 l 497 789 m 372 568 q 301 557 336 568 q 240 518 267 546 q 198 444 214 490 q 182 326 182 397 q 209 188 182 240 q 278 108 236 135 l 419 563 q 396 567 408 565 q 372 568 383 568 m 565 326 q 540 460 565 410 q 474 538 514 511 l 333 86 q 375 82 354 82 q 446 94 411 82 q 507 134 481 106 q 549 209 533 163 q 565 326 565 256 m 357 772 l 257 772 l 354 958 l 497 958 l 357 772 z "},"ŕ":{"ha":517,"x_min":92,"x_max":510,"o":"m 92 0 l 92 653 l 183 653 l 204 522 q 282 624 228 585 q 407 663 336 663 q 467 657 443 663 q 510 643 490 651 l 486 536 q 449 550 469 544 q 401 556 429 556 q 327 542 361 556 q 267 500 293 528 q 227 431 242 472 q 213 338 213 390 l 213 0 l 92 0 m 218 772 l 118 772 l 215 958 l 358 958 l 218 772 z "},"ř":{"ha":517,"x_min":76,"x_max":510,"o":"m 92 0 l 92 653 l 183 653 l 204 522 q 282 624 228 585 q 407 663 336 663 q 467 657 443 663 q 510 643 490 651 l 486 536 q 449 550 469 544 q 401 556 429 556 q 327 542 361 556 q 267 500 293 528 q 227 431 242 472 q 213 338 213 390 l 213 0 l 92 0 m 332 772 l 236 772 l 76 958 l 188 958 l 285 842 l 382 958 l 488 958 l 332 772 z "},"ŗ":{"ha":517,"x_min":60,"x_max":510,"o":"m 92 0 l 92 653 l 183 653 l 204 522 q 282 624 228 585 q 407 663 336 663 q 467 657 443 663 q 510 643 490 651 l 486 536 q 449 550 469 544 q 401 556 429 556 q 327 542 361 556 q 267 500 293 528 q 227 431 242 472 q 213 338 213 390 l 213 0 l 92 0 m 138 -253 q 92 -228 117 -249 q 68 -172 68 -208 q 90 -115 68 -139 q 150 -90 111 -90 q 183 -97 167 -90 q 215 -119 200 -104 q 238 -156 229 -133 q 247 -212 247 -179 q 236 -277 247 -244 q 204 -340 225 -310 q 156 -397 183 -371 q 94 -440 128 -422 l 60 -392 q 129 -331 99 -368 q 163 -258 160 -294 l 138 -253 z "},"ś":{"ha":565,"x_min":49,"x_max":518,"o":"m 461 531 q 378 561 415 553 q 303 569 340 569 q 204 545 236 569 q 172 481 172 521 q 194 430 172 451 q 288 388 217 408 l 329 375 q 470 303 422 347 q 518 185 518 260 q 452 42 518 96 q 268 -12 386 -12 q 148 -1 206 -12 q 49 29 90 10 l 78 125 q 165 94 118 106 q 261 82 213 82 q 360 104 324 82 q 397 178 397 126 q 365 241 397 222 q 274 278 333 260 l 231 292 q 97 365 140 321 q 53 478 53 408 q 71 554 53 519 q 120 613 89 589 q 194 649 151 636 q 289 663 238 663 q 390 653 338 663 q 489 624 442 644 l 461 531 m 288 772 l 188 772 l 285 958 l 428 958 l 288 772 z "},"ş":{"ha":565,"x_min":49,"x_max":518,"o":"m 461 531 q 378 561 415 553 q 303 569 340 569 q 204 545 236 569 q 172 481 172 521 q 194 430 172 451 q 288 388 217 408 l 329 375 q 470 303 422 347 q 518 185 518 260 q 463 51 518 103 q 308 -10 408 -1 l 279 -65 q 372 -96 342 -69 q 401 -162 401 -122 q 389 -213 401 -192 q 355 -249 376 -235 q 306 -271 333 -264 q 247 -278 278 -278 q 188 -273 215 -278 q 144 -261 161 -268 l 161 -203 q 199 -212 179 -210 q 238 -215 218 -215 q 297 -203 275 -215 q 318 -165 318 -192 q 290 -123 318 -137 q 192 -108 263 -108 l 238 -11 q 134 1 183 -8 q 49 29 85 11 l 78 125 q 165 94 118 106 q 261 82 213 82 q 360 104 324 82 q 397 178 397 126 q 365 241 397 222 q 274 278 333 260 l 231 292 q 97 365 140 321 q 53 478 53 408 q 71 554 53 519 q 120 613 89 589 q 194 649 151 636 q 289 663 238 663 q 390 653 338 663 q 489 624 442 644 l 461 531 z "},"ŝ":{"ha":565,"x_min":49,"x_max":518,"o":"m 461 531 q 378 561 415 553 q 303 569 340 569 q 204 545 236 569 q 172 481 172 521 q 194 430 172 451 q 288 388 217 408 l 329 375 q 470 303 422 347 q 518 185 518 260 q 452 42 518 96 q 268 -12 386 -12 q 148 -1 206 -12 q 49 29 90 10 l 78 125 q 165 94 118 106 q 261 82 213 82 q 360 104 324 82 q 397 178 397 126 q 365 241 397 222 q 274 278 333 260 l 231 292 q 97 365 140 321 q 53 478 53 408 q 71 554 53 519 q 120 613 89 589 q 194 649 151 636 q 289 663 238 663 q 390 653 338 663 q 489 624 442 644 l 461 531 m 494 772 l 389 772 l 292 889 l 194 772 l 83 772 l 243 958 l 339 958 l 494 772 z "},"ș":{"ha":565,"x_min":49,"x_max":518,"o":"m 461 531 q 378 561 415 553 q 303 569 340 569 q 204 545 236 569 q 172 481 172 521 q 194 430 172 451 q 288 388 217 408 l 329 375 q 470 303 422 347 q 518 185 518 260 q 452 42 518 96 q 268 -12 386 -12 q 148 -1 206 -12 q 49 29 90 10 l 78 125 q 165 94 118 106 q 261 82 213 82 q 360 104 324 82 q 397 178 397 126 q 386 219 397 203 q 353 248 375 236 q 301 269 332 260 q 231 292 269 279 q 97 365 140 319 q 53 478 53 410 q 71 554 53 519 q 120 613 89 589 q 194 649 151 636 q 289 663 238 663 q 390 653 338 663 q 489 624 442 644 l 461 531 m 263 -253 q 217 -228 242 -249 q 193 -172 193 -208 q 215 -115 193 -139 q 275 -90 236 -90 q 308 -97 292 -90 q 340 -119 325 -104 q 363 -156 354 -133 q 372 -212 372 -179 q 361 -277 372 -244 q 329 -340 350 -310 q 281 -397 308 -371 q 219 -440 253 -422 l 185 -392 q 254 -331 224 -368 q 288 -258 285 -294 l 263 -253 z "},"ﬆ":{"ha":1054,"x_min":49,"x_max":1021,"o":"m 674 725 q 635 884 674 829 q 521 939 596 939 q 469 930 494 939 q 424 903 444 921 q 392 858 404 885 q 379 799 379 832 q 411 687 379 728 q 489 624 443 646 l 461 531 q 378 561 415 553 q 303 569 340 569 q 204 545 236 569 q 172 481 172 521 q 194 430 172 451 q 288 388 217 408 l 329 375 q 470 303 422 347 q 518 185 518 260 q 452 42 518 96 q 268 -12 386 -12 q 148 -1 206 -12 q 49 29 90 10 l 78 125 q 165 94 118 106 q 261 82 213 82 q 360 104 324 82 q 397 178 397 126 q 365 241 397 222 q 274 278 333 260 l 231 292 q 97 365 140 321 q 53 478 53 408 q 114 613 53 563 q 279 663 175 663 q 303 662 288 663 q 328 660 318 661 l 331 665 q 310 686 322 674 q 288 717 299 699 q 270 760 278 735 q 263 821 263 785 q 283 904 263 865 q 337 972 303 943 q 418 1017 371 1000 q 519 1033 465 1033 q 647 1010 594 1033 q 732 944 699 986 q 780 846 765 903 q 794 724 794 789 l 794 653 l 986 653 l 986 561 l 794 561 l 794 182 q 819 117 794 133 q 882 100 843 100 q 943 106 910 100 q 1001 121 976 113 l 1021 28 q 950 8 993 17 q 860 0 907 0 q 718 42 763 0 q 674 165 674 85 l 674 561 l 590 561 l 590 653 l 674 653 l 674 725 z "},"ŧ":{"ha":506,"x_min":28,"x_max":472,"o":"m 424 417 l 424 331 l 246 331 l 246 182 q 270 117 246 133 q 333 100 294 100 q 394 106 361 100 q 453 121 428 113 l 472 28 q 401 8 444 17 q 311 0 358 0 q 169 42 214 0 q 125 165 125 85 l 125 331 l 28 331 l 28 417 l 125 417 l 125 561 l 28 561 l 28 653 l 125 653 l 125 861 l 246 861 l 246 653 l 438 653 l 438 561 l 246 561 l 246 417 l 424 417 z "},"ť":{"ha":650,"x_min":28,"x_max":678,"o":"m 438 561 l 246 561 l 246 182 q 270 117 246 133 q 333 100 294 100 q 394 106 361 100 q 453 121 428 113 l 472 28 q 401 8 444 17 q 311 0 358 0 q 169 42 214 0 q 125 165 125 85 l 125 561 l 28 561 l 28 653 l 125 653 l 125 861 l 246 861 l 246 653 l 438 653 l 438 561 m 568 867 q 523 891 547 871 q 499 947 499 911 q 520 1005 499 981 q 581 1029 542 1029 q 614 1022 597 1029 q 645 1001 631 1015 q 669 963 660 986 q 678 907 678 940 q 667 842 678 875 q 635 779 656 810 q 586 723 614 749 q 525 679 558 697 l 490 728 q 560 788 529 751 q 593 861 590 825 l 568 867 z "},"ţ":{"ha":506,"x_min":28,"x_max":472,"o":"m 438 561 l 246 561 l 246 182 q 270 117 246 133 q 333 100 294 100 q 394 106 361 100 q 453 121 428 113 l 472 28 q 401 8 444 17 q 311 0 358 0 q 169 42 214 0 q 125 165 125 85 l 125 561 l 28 561 l 28 653 l 125 653 l 125 861 l 246 861 l 246 653 l 438 653 l 438 561 m 264 -253 q 219 -228 243 -249 q 194 -172 194 -208 q 216 -115 194 -139 q 276 -90 238 -90 q 310 -97 293 -90 q 341 -119 326 -104 q 365 -156 356 -133 q 374 -212 374 -179 q 363 -277 374 -244 q 331 -340 351 -310 q 282 -397 310 -371 q 221 -440 254 -422 l 186 -392 q 256 -331 225 -368 q 289 -258 286 -294 l 264 -253 z "},"ŭ":{"ha":749,"x_min":94,"x_max":654,"o":"m 532 653 l 654 653 l 654 0 l 558 0 l 542 82 l 536 82 q 447 15 500 42 q 322 -12 393 -12 q 158 45 221 -12 q 94 219 94 103 l 94 653 l 217 653 l 217 235 q 227 164 217 193 q 255 117 238 135 q 296 92 272 100 q 347 85 319 85 q 447 108 403 85 q 532 174 492 132 l 532 653 m 271 944 q 295 874 276 900 q 371 847 314 847 q 442 872 419 847 q 471 944 465 897 l 557 944 q 509 821 557 869 q 371 772 461 772 q 285 787 321 772 q 227 826 250 801 q 194 881 204 850 q 183 944 183 913 l 271 944 z "},"ű":{"ha":763,"x_min":94,"x_max":668,"o":"m 532 653 l 654 653 l 654 0 l 558 0 l 542 82 l 536 82 q 447 15 500 42 q 322 -12 393 -12 q 158 45 221 -12 q 94 219 94 103 l 94 653 l 217 653 l 217 235 q 227 164 217 193 q 255 117 238 135 q 296 92 272 100 q 347 85 319 85 q 447 108 403 85 q 532 174 492 132 l 532 653 m 299 772 l 204 772 l 308 958 l 446 958 l 299 772 m 521 772 l 426 772 l 531 958 l 668 958 l 521 772 z "},"ū":{"ha":749,"x_min":94,"x_max":654,"o":"m 532 653 l 654 653 l 654 0 l 558 0 l 542 82 l 536 82 q 447 15 500 42 q 322 -12 393 -12 q 158 45 221 -12 q 94 219 94 103 l 94 653 l 217 653 l 217 235 q 227 164 217 193 q 255 117 238 135 q 296 92 272 100 q 347 85 319 85 q 447 108 403 85 q 532 174 492 132 l 532 653 m 546 906 l 546 819 l 206 819 l 206 906 l 546 906 z "},"ų":{"ha":749,"x_min":94,"x_max":719,"o":"m 532 653 l 654 653 l 654 0 q 583 -62 610 -29 q 556 -132 556 -96 q 577 -184 556 -165 q 632 -203 599 -203 q 701 -192 672 -203 l 719 -257 q 608 -286 671 -286 q 502 -251 544 -286 q 460 -151 460 -217 q 469 -102 460 -125 q 492 -60 478 -79 q 524 -26 507 -40 q 558 0 542 -11 l 542 82 l 536 82 q 447 15 500 42 q 322 -12 393 -12 q 158 45 221 -12 q 94 219 94 103 l 94 653 l 217 653 l 217 235 q 227 164 217 193 q 255 117 238 135 q 296 92 272 100 q 347 85 319 85 q 447 108 403 85 q 532 174 492 132 l 532 653 z "},"ů":{"ha":749,"x_min":94,"x_max":654,"o":"m 532 653 l 654 653 l 654 0 l 558 0 l 542 82 l 536 82 q 447 15 500 42 q 322 -12 393 -12 q 158 45 221 -12 q 94 219 94 103 l 94 653 l 217 653 l 217 235 q 227 164 217 193 q 255 117 238 135 q 296 92 272 100 q 347 85 319 85 q 447 108 403 85 q 532 174 492 132 l 532 653 m 246 865 q 285 952 246 924 q 375 981 324 981 q 466 952 428 981 q 504 865 504 924 q 493 815 504 836 q 464 778 482 793 q 423 757 446 764 q 375 750 400 750 q 285 780 325 750 q 246 865 246 810 m 308 865 q 326 815 308 833 q 375 796 343 796 q 424 815 407 796 q 442 865 442 833 q 424 916 442 897 q 375 935 407 935 q 326 916 343 935 q 308 865 308 897 z "},"ũ":{"ha":749,"x_min":94,"x_max":654,"o":"m 532 653 l 654 653 l 654 0 l 558 0 l 542 82 l 536 82 q 447 15 500 42 q 322 -12 393 -12 q 158 45 221 -12 q 94 219 94 103 l 94 653 l 217 653 l 217 235 q 227 164 217 193 q 255 117 238 135 q 296 92 272 100 q 347 85 319 85 q 447 108 403 85 q 532 174 492 132 l 532 653 m 158 772 q 187 881 158 836 q 279 925 215 925 q 331 915 308 925 q 374 894 354 906 q 414 874 394 883 q 456 864 433 864 q 495 885 483 864 q 510 929 507 906 l 579 929 q 572 873 579 900 q 551 824 565 846 q 515 790 536 803 q 464 776 493 776 q 409 785 435 776 q 361 806 383 794 q 319 827 339 818 q 283 836 300 836 q 242 818 254 836 q 228 772 231 800 l 158 772 z "},"ẃ":{"ha":989,"x_min":15,"x_max":976,"o":"m 15 653 l 146 653 l 257 242 l 282 96 l 288 96 l 318 242 l 431 653 l 563 653 l 678 242 l 707 96 l 713 96 l 743 242 l 851 653 l 976 653 l 778 0 l 639 0 l 528 400 l 496 561 l 463 400 l 349 0 l 217 0 l 15 653 m 504 772 l 404 772 l 501 958 l 644 958 l 504 772 z "},"ŵ":{"ha":989,"x_min":15,"x_max":976,"o":"m 15 653 l 146 653 l 257 242 l 282 96 l 288 96 l 318 242 l 431 653 l 563 653 l 678 242 l 707 96 l 713 96 l 743 242 l 851 653 l 976 653 l 778 0 l 639 0 l 528 400 l 496 561 l 463 400 l 349 0 l 217 0 l 15 653 m 699 772 l 593 772 l 496 889 l 399 772 l 288 772 l 447 958 l 543 958 l 699 772 z "},"ẅ":{"ha":989,"x_min":15,"x_max":976,"o":"m 15 653 l 146 653 l 257 242 l 282 96 l 288 96 l 318 242 l 431 653 l 563 653 l 678 242 l 707 96 l 713 96 l 743 242 l 851 653 l 976 653 l 778 0 l 639 0 l 528 400 l 496 561 l 463 400 l 349 0 l 217 0 l 15 653 m 310 865 q 331 913 310 892 q 379 933 351 933 q 428 913 407 933 q 449 865 449 892 q 428 816 449 838 q 379 794 407 794 q 331 816 351 794 q 310 865 310 838 m 540 865 q 561 913 540 892 q 610 933 582 933 q 658 913 638 933 q 679 865 679 892 q 658 816 679 838 q 610 794 638 794 q 561 816 582 794 q 540 865 540 838 z "},"ẁ":{"ha":989,"x_min":15,"x_max":976,"o":"m 15 653 l 146 653 l 257 242 l 282 96 l 288 96 l 318 242 l 431 653 l 563 653 l 678 242 l 707 96 l 713 96 l 743 242 l 851 653 l 976 653 l 778 0 l 639 0 l 528 400 l 496 561 l 463 400 l 349 0 l 217 0 l 15 653 m 351 958 l 494 958 l 592 772 l 492 772 l 351 958 z "},"ŷ":{"ha":640,"x_min":13,"x_max":631,"o":"m 13 653 l 143 653 l 282 279 l 329 124 l 332 124 l 379 279 l 506 653 l 631 653 l 379 -56 q 274 -240 338 -174 q 124 -337 211 -307 l 71 -240 q 187 -168 136 -215 q 265 -37 238 -121 l 278 0 l 13 653 m 535 772 l 429 772 l 332 889 l 235 772 l 124 772 l 283 958 l 379 958 l 535 772 z "},"ỳ":{"ha":640,"x_min":13,"x_max":631,"o":"m 13 653 l 143 653 l 282 279 l 329 124 l 332 124 l 379 279 l 506 653 l 631 653 l 379 -56 q 274 -240 338 -174 q 124 -337 211 -307 l 71 -240 q 187 -168 136 -215 q 265 -37 238 -121 l 278 0 l 13 653 m 182 958 l 325 958 l 422 772 l 322 772 l 182 958 z "},"ź":{"ha":571,"x_min":35,"x_max":538,"o":"m 531 582 l 185 92 l 538 92 l 538 0 l 35 0 l 35 75 l 381 561 l 58 561 l 58 653 l 531 653 l 531 582 m 313 772 l 213 772 l 310 958 l 453 958 l 313 772 z "},"ż":{"ha":571,"x_min":35,"x_max":538,"o":"m 531 582 l 185 92 l 538 92 l 538 0 l 35 0 l 35 75 l 381 561 l 58 561 l 58 653 l 531 653 l 531 582 m 218 867 q 241 919 218 896 q 294 942 264 942 q 349 919 326 942 q 371 867 371 896 q 349 812 371 835 q 294 789 326 789 q 241 812 264 789 q 218 867 218 835 z "},"Ŋ":{"ha":933,"x_min":111,"x_max":824,"o":"m 111 875 l 222 875 l 621 293 q 665 224 643 260 q 703 154 686 188 l 706 154 q 701 272 703 213 q 699 390 699 332 l 699 875 l 824 875 l 824 92 q 815 -52 824 13 q 781 -169 806 -117 q 711 -262 756 -221 q 597 -333 667 -303 l 540 -242 q 605 -201 578 -222 q 651 -151 632 -179 q 683 -88 671 -124 q 699 -7 694 -53 l 318 547 q 275 613 297 576 q 233 686 253 650 l 231 686 q 235 569 233 628 q 236 453 236 511 l 236 0 l 111 0 l 111 875 z "},"ŋ":{"ha":742,"x_min":94,"x_max":647,"o":"m 647 92 q 638 -52 647 13 q 604 -169 629 -117 q 535 -262 579 -221 q 421 -333 490 -303 l 364 -242 q 436 -199 406 -221 q 486 -144 467 -176 q 515 -65 506 -111 q 525 53 525 -18 l 525 432 q 494 527 525 492 q 399 563 463 563 q 217 475 301 563 l 217 0 l 94 0 l 94 653 l 190 653 l 208 563 q 310 637 257 611 q 433 663 364 663 q 590 606 533 663 q 647 450 647 550 l 647 92 z "},"₹":{"ha":708,"x_min":0,"x_max":597,"o":"m 0 564 l 0 653 l 331 653 q 304 728 324 693 q 265 786 285 763 l 0 786 l 0 875 l 597 875 l 597 786 l 388 786 q 419 733 403 767 q 446 653 436 700 l 597 653 l 597 564 l 450 564 q 428 481 447 519 q 376 411 410 442 q 297 363 343 381 q 196 342 251 344 l 442 49 l 347 -14 l 153 242 q 108 297 129 274 q 71 339 88 321 l 35 375 l 69 443 q 106 433 89 436 q 149 429 124 429 q 282 468 235 429 q 335 564 329 507 l 0 564 z "},"":{"ha":722,"x_min":56,"x_max":667,"o":"m 667 333 q 644 187 667 251 q 580 78 621 122 q 483 10 539 33 q 358 -12 426 -12 q 235 9 290 -12 q 140 73 179 31 q 78 177 100 115 q 56 319 56 239 q 78 465 56 401 q 142 573 101 529 q 240 640 183 617 q 364 663 296 663 q 488 642 432 663 q 583 579 543 621 q 644 476 622 538 q 667 333 667 414 m 544 326 q 529 438 544 392 q 488 513 514 483 q 429 555 463 542 q 360 568 396 568 q 290 557 324 568 q 232 518 257 546 q 192 444 207 490 q 178 326 178 397 q 193 215 178 261 q 234 139 208 168 q 293 96 260 110 q 363 82 326 82 q 432 94 399 82 q 490 134 465 106 q 530 209 515 163 q 544 326 544 256 z "},"":{"ha":538,"x_min":58,"x_max":485,"o":"m 282 653 l 339 653 l 339 92 l 485 92 l 485 0 l 74 0 l 74 92 l 225 92 l 225 425 l 229 531 l 85 485 l 58 579 l 282 653 z "},"":{"ha":581,"x_min":43,"x_max":518,"o":"m 43 590 q 147 646 96 629 q 256 663 199 663 q 431 603 367 663 q 494 447 494 544 q 469 335 494 388 q 406 238 444 283 q 320 154 367 192 q 231 86 274 117 l 353 94 l 518 94 l 518 0 l 69 0 l 69 72 q 164 138 111 99 q 263 227 217 178 q 342 331 310 276 q 375 442 375 386 q 341 533 375 500 q 244 565 307 565 q 169 551 208 565 q 93 511 129 536 l 43 590 z "},"":{"ha":603,"x_min":49,"x_max":533,"o":"m 56 611 q 153 651 104 640 q 261 663 203 663 q 362 647 317 663 q 438 605 407 632 q 486 540 469 578 q 503 457 503 501 q 492 397 503 425 q 461 346 481 368 q 416 307 442 324 q 361 282 390 290 l 361 279 q 483 213 433 267 q 533 69 533 158 q 507 -50 533 4 q 432 -142 481 -104 q 315 -201 383 -181 q 161 -222 246 -222 q 117 -221 142 -222 q 65 -215 93 -219 l 49 -128 q 94 -131 72 -131 q 133 -132 117 -132 q 345 -76 274 -132 q 417 72 417 -21 q 364 186 417 147 q 215 225 311 225 q 183 224 203 225 q 135 221 164 224 l 135 319 l 168 319 q 339 358 289 319 q 389 457 389 396 q 349 539 389 510 q 254 568 310 568 q 178 559 217 568 q 100 526 140 550 l 56 611 z "},"":{"ha":750,"x_min":49,"x_max":688,"o":"m 432 653 l 550 653 l 550 94 l 688 94 l 688 0 l 550 0 l 550 -222 l 442 -222 l 442 0 l 49 0 l 49 72 l 432 653 m 178 94 l 442 94 l 442 363 l 450 538 l 360 385 l 178 94 z "},"":{"ha":610,"x_min":49,"x_max":533,"o":"m 126 653 l 501 658 l 489 564 l 213 564 l 179 350 q 213 353 194 353 q 242 353 231 353 q 364 333 310 353 q 456 278 418 313 q 513 196 493 243 q 533 93 533 149 q 508 -30 533 28 q 433 -131 482 -87 q 315 -198 385 -174 q 154 -222 244 -222 q 114 -221 135 -222 q 65 -215 93 -219 l 49 -128 q 126 -132 94 -132 q 256 -115 201 -132 q 347 -67 311 -97 q 399 3 382 -37 q 417 90 417 44 q 399 163 417 132 q 351 216 382 194 q 278 249 321 238 q 185 260 236 260 q 128 258 153 260 q 69 251 104 256 l 126 653 z "},"":{"ha":721,"x_min":69,"x_max":658,"o":"m 601 794 q 578 798 589 797 q 549 799 567 799 q 405 770 468 799 q 297 694 342 742 q 224 588 251 647 q 188 469 197 529 l 190 467 q 275 530 222 506 q 389 554 328 554 q 503 534 453 554 q 588 477 553 514 q 640 390 622 440 q 658 282 658 340 q 635 161 658 215 q 574 69 613 107 q 483 9 535 31 q 372 -12 431 -12 q 254 10 310 -12 q 158 77 199 32 q 93 190 117 122 q 69 351 69 258 q 100 551 69 454 q 189 722 131 647 q 333 842 247 797 q 528 888 418 888 q 560 886 543 888 q 592 882 576 885 l 601 794 m 183 301 q 197 213 183 253 q 236 143 211 172 q 296 97 261 114 q 372 81 331 81 q 496 135 450 81 q 542 276 542 189 q 495 413 542 363 q 369 463 449 463 q 265 438 303 463 q 207 382 226 414 q 183 301 183 344 z "},"":{"ha":596,"x_min":65,"x_max":568,"o":"m 568 653 l 568 569 q 446 359 503 467 q 342 148 389 251 q 258 -49 294 44 q 200 -217 222 -142 l 92 -189 q 156 -17 117 -111 q 240 175 194 76 q 337 372 286 274 q 436 556 388 469 l 65 556 l 65 653 l 568 653 z "},"":{"ha":694,"x_min":69,"x_max":625,"o":"m 349 888 q 456 870 408 888 q 538 823 504 853 q 589 751 571 793 q 607 663 607 710 q 594 596 607 626 q 558 540 581 565 q 506 497 536 515 q 443 467 476 478 l 443 464 q 582 376 539 431 q 625 243 625 322 q 601 138 625 183 q 540 61 578 92 q 451 15 501 31 q 349 0 401 0 q 242 15 293 0 q 153 60 192 31 q 92 133 115 89 q 69 235 69 176 q 254 454 69 392 l 254 457 q 135 535 178 489 q 92 663 92 582 q 108 751 92 710 q 158 823 125 793 q 238 870 190 853 q 349 888 286 888 m 203 669 q 215 611 203 636 q 247 566 226 586 q 295 531 268 546 q 353 507 322 517 q 405 529 379 515 q 451 563 431 543 q 483 607 471 582 q 496 664 496 632 q 483 724 496 699 q 449 767 469 750 q 401 793 428 785 q 349 801 375 801 q 244 767 286 801 q 203 669 203 732 m 344 414 q 222 341 261 385 q 183 239 183 297 q 197 172 183 200 q 233 126 210 144 q 285 98 256 107 q 349 89 315 89 q 409 99 379 89 q 461 127 439 108 q 497 175 483 146 q 511 243 511 204 q 498 305 511 278 q 462 352 485 332 q 408 388 439 372 q 344 414 378 403 z "},"":{"ha":721,"x_min":63,"x_max":651,"o":"m 131 -133 q 288 -106 218 -133 q 408 -35 357 -79 q 489 65 458 8 q 531 179 519 121 l 528 182 q 442 118 494 140 q 332 96 390 96 q 218 116 268 96 q 133 173 168 136 q 81 260 99 210 q 63 368 63 310 q 86 489 63 435 q 149 581 110 543 q 242 641 189 619 q 357 663 296 663 q 474 640 419 663 q 567 573 528 618 q 629 460 607 528 q 651 299 651 392 q 618 97 651 192 q 522 -69 585 1 q 365 -181 458 -140 q 151 -222 272 -222 q 119 -221 136 -222 q 88 -217 103 -219 l 78 -129 q 101 -133 90 -132 q 131 -133 113 -133 m 538 349 q 526 433 538 393 q 493 503 515 474 q 436 551 471 533 q 354 569 401 569 q 228 515 276 569 q 179 374 179 461 q 226 238 179 288 q 351 188 272 188 q 456 212 418 188 q 514 268 494 236 q 538 349 538 306 z "},"Ḍ":{"ha":892,"x_min":111,"x_max":828,"o":"m 396 875 q 568 849 489 875 q 705 770 647 822 q 795 640 763 718 q 828 457 828 561 q 789 243 828 331 q 684 101 750 156 q 531 24 618 47 q 347 0 444 0 l 111 0 l 111 875 l 396 875 m 239 106 l 335 106 q 465 120 401 106 q 578 174 529 135 q 658 282 628 214 q 689 457 689 350 q 667 590 689 532 q 603 688 644 649 q 502 749 561 728 q 371 769 443 769 l 239 769 l 239 106 m 318 -174 q 342 -121 318 -144 q 396 -97 365 -97 q 451 -121 428 -97 q 474 -174 474 -144 q 451 -229 474 -206 q 396 -253 428 -253 q 342 -229 365 -253 q 318 -174 318 -206 z "},"ḍ":{"ha":744,"x_min":54,"x_max":650,"o":"m 528 986 l 650 986 l 650 0 l 547 0 l 532 72 l 528 72 q 441 8 485 28 q 331 -12 397 -12 q 228 8 278 -12 q 140 71 179 29 q 78 176 101 113 q 54 325 54 239 q 74 464 54 401 q 132 571 94 526 q 224 639 169 615 q 347 663 278 663 q 445 647 399 663 q 528 599 492 631 l 528 986 m 528 496 q 374 569 463 569 q 301 556 336 569 q 238 514 265 543 q 194 439 211 485 q 178 329 178 393 q 193 216 178 263 q 234 140 208 169 q 292 96 260 110 q 358 82 325 82 q 528 172 463 82 l 528 496 m 319 -174 q 342 -122 319 -144 q 396 -99 365 -99 q 450 -122 428 -99 q 472 -174 472 -144 q 450 -228 472 -206 q 396 -251 428 -251 q 342 -228 365 -251 q 319 -174 319 -206 z "},"Ḥ":{"ha":892,"x_min":111,"x_max":782,"o":"m 111 0 l 111 875 l 239 875 l 239 507 l 654 507 l 654 875 l 782 875 l 782 0 l 654 0 l 654 399 l 239 399 l 239 0 l 111 0 m 367 -160 q 390 -107 367 -131 q 444 -83 414 -83 q 499 -107 476 -83 q 522 -160 522 -131 q 499 -215 522 -192 q 444 -239 476 -239 q 390 -215 414 -239 q 367 -160 367 -192 z "},"ḥ":{"ha":750,"x_min":96,"x_max":654,"o":"m 218 0 l 96 0 l 96 986 l 218 986 l 218 569 q 319 636 264 610 q 442 663 375 663 q 536 647 496 663 q 602 602 576 631 q 641 535 628 574 q 654 450 654 496 l 654 0 l 532 0 l 532 419 q 501 528 532 494 q 408 563 471 563 q 313 539 361 563 q 218 472 265 515 l 218 0 m 306 -160 q 328 -108 306 -131 q 382 -85 351 -85 q 436 -108 414 -85 q 458 -160 458 -131 q 436 -215 458 -192 q 382 -237 414 -237 q 328 -215 351 -237 q 306 -160 306 -192 z "},"Ḷ":{"ha":633,"x_min":111,"x_max":613,"o":"m 111 875 l 239 875 l 239 108 l 613 108 l 613 0 l 111 0 l 111 875 m 289 -174 q 313 -121 289 -144 q 367 -97 336 -97 q 422 -121 399 -97 q 444 -174 444 -144 q 422 -229 444 -206 q 367 -253 399 -253 q 313 -229 336 -253 q 289 -174 289 -206 z "},"ḷ":{"ha":319,"x_min":88,"x_max":240,"o":"m 100 0 l 100 986 l 219 986 l 219 0 l 100 0 m 88 -174 q 110 -122 88 -144 q 164 -99 133 -99 q 218 -122 196 -99 q 240 -174 240 -144 q 218 -228 240 -206 q 164 -251 196 -251 q 110 -228 133 -251 q 88 -174 88 -206 z "},"Ḹ":{"ha":633,"x_min":111,"x_max":613,"o":"m 111 875 l 239 875 l 239 108 l 613 108 l 613 0 l 111 0 l 111 875 m 289 -174 q 313 -121 289 -144 q 367 -97 336 -97 q 422 -121 399 -97 q 444 -174 444 -144 q 422 -229 444 -206 q 367 -253 399 -253 q 313 -229 336 -253 q 289 -174 289 -206 m 528 1072 l 528 986 l 188 986 l 188 1072 l 528 1072 z "},"ḹ":{"ha":319,"x_min":8,"x_max":349,"o":"m 88 -174 q 110 -122 88 -144 q 164 -99 133 -99 q 218 -122 196 -99 q 240 -174 240 -144 q 218 -228 240 -206 q 164 -251 196 -251 q 110 -228 133 -251 q 88 -174 88 -206 m 239 875 l 239 0 l 111 0 l 111 875 l 239 875 m 349 1072 l 349 986 l 8 986 l 8 1072 l 349 1072 z "},"Ḻ":{"ha":633,"x_min":111,"x_max":613,"o":"m 111 875 l 239 875 l 239 108 l 613 108 l 613 0 l 111 0 l 111 875 m 526 -140 l 526 -226 l 186 -226 l 186 -140 l 526 -140 z "},"ḻ":{"ha":319,"x_min":-10,"x_max":331,"o":"m 100 0 l 100 986 l 219 986 l 219 0 l 100 0 m 331 -140 l 331 -226 l -10 -226 l -10 -140 l 331 -140 z "},"Ṃ":{"ha":1126,"x_min":89,"x_max":1038,"o":"m 163 875 l 329 875 l 513 317 q 539 238 526 276 q 563 161 551 200 l 565 161 q 588 236 576 200 q 615 317 600 272 l 794 875 l 961 875 l 1038 0 l 910 0 l 874 464 q 865 599 868 532 q 860 736 863 667 l 857 736 q 817 600 838 668 q 775 464 797 532 l 621 0 l 504 0 l 350 465 q 307 601 326 536 q 268 736 288 665 l 265 736 q 258 600 263 668 q 247 464 253 532 l 214 0 l 89 0 l 163 875 m 486 -174 q 510 -121 486 -144 q 564 -97 533 -97 q 619 -121 596 -97 q 642 -174 642 -144 q 619 -229 642 -206 q 564 -253 596 -253 q 510 -229 533 -253 q 486 -174 486 -206 z "},"ṃ":{"ha":1144,"x_min":94,"x_max":1050,"o":"m 217 0 l 94 0 l 94 653 l 189 653 l 207 563 q 306 635 253 608 q 432 663 358 663 q 546 634 501 663 q 613 556 590 606 q 719 635 661 607 q 849 663 778 663 q 999 606 949 663 q 1050 450 1050 550 l 1050 0 l 928 0 l 928 428 q 900 528 928 493 q 808 563 872 563 q 632 478 714 563 q 633 464 633 471 q 633 450 633 457 l 633 0 l 511 0 l 511 428 q 483 528 511 493 q 392 563 456 563 q 217 474 297 563 l 217 0 m 497 -174 q 520 -122 497 -144 q 574 -99 543 -99 q 628 -122 606 -99 q 650 -174 650 -144 q 628 -228 650 -206 q 574 -251 606 -251 q 520 -228 543 -251 q 497 -174 497 -206 z "},"Ṅ":{"ha":933,"x_min":111,"x_max":824,"o":"m 111 875 l 222 875 l 621 321 q 664 258 643 290 q 701 196 685 226 l 704 196 q 700 293 701 244 q 699 390 699 342 l 699 875 l 824 875 l 824 0 l 713 0 l 318 547 q 275 613 297 576 q 233 686 253 650 l 231 686 q 235 569 233 628 q 236 453 236 511 l 236 0 l 111 0 l 111 875 m 390 1101 q 413 1153 390 1131 q 467 1176 436 1176 q 521 1153 499 1176 q 543 1101 543 1131 q 521 1047 543 1069 q 467 1024 499 1024 q 413 1047 436 1024 q 390 1101 390 1069 z "},"ṅ":{"ha":742,"x_min":94,"x_max":647,"o":"m 217 0 l 94 0 l 94 653 l 190 653 l 208 563 q 310 637 257 611 q 433 663 364 663 q 590 606 533 663 q 647 450 647 550 l 647 0 l 525 0 l 525 432 q 494 527 525 492 q 399 563 463 563 q 217 475 301 563 l 217 0 m 294 879 q 317 931 294 908 q 371 954 340 954 q 425 931 403 954 q 447 879 447 908 q 425 824 447 847 q 371 801 403 801 q 317 824 340 801 q 294 879 294 847 z "},"Ṇ":{"ha":933,"x_min":111,"x_max":824,"o":"m 111 875 l 222 875 l 621 321 q 664 258 643 290 q 701 196 685 226 l 704 196 q 700 293 701 244 q 699 390 699 342 l 699 875 l 824 875 l 824 0 l 713 0 l 318 547 q 275 613 297 576 q 233 686 253 650 l 231 686 q 235 569 233 628 q 236 453 236 511 l 236 0 l 111 0 l 111 875 m 394 -160 q 418 -107 394 -131 q 472 -83 442 -83 q 527 -107 504 -83 q 550 -160 550 -131 q 527 -215 550 -192 q 472 -239 504 -239 q 418 -215 442 -239 q 394 -160 394 -192 z "},"ṇ":{"ha":742,"x_min":94,"x_max":647,"o":"m 217 0 l 94 0 l 94 653 l 190 653 l 208 563 q 310 637 257 611 q 433 663 364 663 q 590 606 533 663 q 647 450 647 550 l 647 0 l 525 0 l 525 432 q 494 527 525 492 q 399 563 463 563 q 217 475 301 563 l 217 0 m 296 -160 q 319 -108 296 -131 q 372 -85 342 -85 q 426 -108 404 -85 q 449 -160 449 -131 q 426 -215 449 -192 q 372 -237 404 -237 q 319 -215 342 -237 q 296 -160 296 -192 z "},"Ṉ":{"ha":933,"x_min":111,"x_max":824,"o":"m 111 875 l 222 875 l 621 321 q 664 258 643 290 q 701 196 685 226 l 704 196 q 700 293 701 244 q 699 390 699 342 l 699 875 l 824 875 l 824 0 l 713 0 l 318 547 q 275 613 297 576 q 233 686 253 650 l 231 686 q 235 569 233 628 q 236 453 236 511 l 236 0 l 111 0 l 111 875 m 640 -126 l 640 -212 l 300 -212 l 300 -126 l 640 -126 z "},"ṉ":{"ha":742,"x_min":94,"x_max":647,"o":"m 217 0 l 94 0 l 94 653 l 190 653 l 208 563 q 310 637 257 611 q 433 663 364 663 q 590 606 533 663 q 647 450 647 550 l 647 0 l 525 0 l 525 432 q 494 527 525 492 q 399 563 463 563 q 217 475 301 563 l 217 0 m 539 -126 l 539 -212 l 199 -212 l 199 -126 l 539 -126 z "},"Ṛ":{"ha":746,"x_min":111,"x_max":725,"o":"m 111 875 l 396 875 q 516 856 464 875 q 603 801 568 836 q 656 719 638 767 q 674 614 674 671 q 658 524 674 564 q 618 453 643 483 q 560 402 593 424 q 494 367 528 381 l 725 0 l 582 0 l 375 343 l 232 343 l 232 0 l 111 0 l 111 875 m 232 447 l 338 447 q 417 456 381 447 q 481 484 454 465 q 524 533 508 503 q 540 607 540 564 q 494 732 540 692 q 358 772 447 772 l 232 772 l 232 447 m 318 -174 q 342 -121 318 -144 q 396 -97 365 -97 q 451 -121 428 -97 q 474 -174 474 -144 q 451 -229 474 -206 q 396 -253 428 -253 q 342 -229 365 -253 q 318 -174 318 -206 z "},"ṛ":{"ha":517,"x_min":76,"x_max":510,"o":"m 92 0 l 92 653 l 183 653 l 204 522 q 282 624 228 585 q 407 663 336 663 q 467 657 443 663 q 510 643 490 651 l 486 536 q 449 550 469 544 q 401 556 429 556 q 327 542 361 556 q 267 500 293 528 q 227 431 242 472 q 213 338 213 390 l 213 0 l 92 0 m 76 -160 q 99 -108 76 -131 q 153 -85 122 -85 q 207 -108 185 -85 q 229 -160 229 -131 q 207 -215 229 -192 q 153 -237 185 -237 q 99 -215 122 -237 q 76 -160 76 -192 z "},"Ṝ":{"ha":746,"x_min":111,"x_max":725,"o":"m 111 875 l 396 875 q 516 856 464 875 q 603 801 568 836 q 656 719 638 767 q 674 614 674 671 q 658 524 674 564 q 618 453 643 483 q 560 402 593 424 q 494 367 528 381 l 725 0 l 582 0 l 375 343 l 232 343 l 232 0 l 111 0 l 111 875 m 232 447 l 338 447 q 417 456 381 447 q 481 484 454 465 q 524 533 508 503 q 540 607 540 564 q 494 732 540 692 q 358 772 447 772 l 232 772 l 232 447 m 318 -174 q 342 -121 318 -144 q 396 -97 365 -97 q 451 -121 428 -97 q 474 -174 474 -144 q 451 -229 474 -206 q 396 -253 428 -253 q 342 -229 365 -253 q 318 -174 318 -206 m 529 1072 l 529 986 l 189 986 l 189 1072 l 529 1072 z "},"ṝ":{"ha":517,"x_min":76,"x_max":510,"o":"m 92 0 l 92 653 l 183 653 l 204 522 q 282 624 228 585 q 407 663 336 663 q 467 657 443 663 q 510 643 490 651 l 486 536 q 449 550 469 544 q 401 556 429 556 q 327 542 361 556 q 267 500 293 528 q 227 431 242 472 q 213 338 213 390 l 213 0 l 92 0 m 76 -160 q 99 -108 76 -131 q 153 -85 122 -85 q 207 -108 185 -85 q 229 -160 229 -131 q 207 -215 229 -192 q 153 -237 185 -237 q 99 -215 122 -237 q 76 -160 76 -192 m 457 906 l 457 819 l 117 819 l 117 906 l 457 906 z "},"Ṟ":{"ha":746,"x_min":111,"x_max":725,"o":"m 111 875 l 396 875 q 516 856 464 875 q 603 801 568 836 q 656 719 638 767 q 674 614 674 671 q 658 524 674 564 q 618 453 643 483 q 560 402 593 424 q 494 367 528 381 l 725 0 l 582 0 l 375 343 l 232 343 l 232 0 l 111 0 l 111 875 m 232 447 l 338 447 q 417 456 381 447 q 481 484 454 465 q 524 533 508 503 q 540 607 540 564 q 494 732 540 692 q 358 772 447 772 l 232 772 l 232 447 m 581 -126 l 581 -212 l 240 -212 l 240 -126 l 581 -126 z "},"ṟ":{"ha":517,"x_min":92,"x_max":510,"o":"m 92 0 l 92 653 l 183 653 l 204 522 q 282 624 228 585 q 407 663 336 663 q 467 657 443 663 q 510 643 490 651 l 486 536 q 449 550 469 544 q 401 556 429 556 q 327 542 361 556 q 267 500 293 528 q 227 431 242 472 q 213 338 213 390 l 213 0 l 92 0 m 463 -140 l 463 -226 l 122 -226 l 122 -140 l 463 -140 z "},"Ṣ":{"ha":701,"x_min":61,"x_max":643,"o":"m 357 888 q 481 877 421 888 q 599 839 540 867 l 568 733 q 460 773 508 761 q 363 785 413 785 q 238 750 283 785 q 192 653 192 715 q 226 568 192 600 q 338 513 260 536 l 425 485 q 594 383 544 447 q 643 238 643 318 q 620 134 643 181 q 556 55 597 88 q 460 5 515 22 q 338 -12 404 -12 q 202 -1 271 -12 q 65 43 133 11 l 96 147 q 213 104 156 118 q 332 90 269 90 q 460 125 407 90 q 513 228 513 160 q 505 274 513 253 q 478 315 497 296 q 428 351 460 335 q 347 383 396 368 l 260 411 q 113 494 164 442 q 61 638 61 547 q 137 820 61 753 q 357 888 213 888 m 265 -174 q 289 -121 265 -144 q 343 -97 313 -97 q 398 -121 375 -97 q 421 -174 421 -144 q 398 -229 421 -206 q 343 -253 375 -253 q 289 -229 313 -253 q 265 -174 265 -206 z "},"ṣ":{"ha":565,"x_min":49,"x_max":518,"o":"m 461 531 q 378 561 415 553 q 303 569 340 569 q 204 545 236 569 q 172 481 172 521 q 194 430 172 451 q 288 388 217 408 l 329 375 q 470 303 422 347 q 518 185 518 260 q 452 42 518 96 q 268 -12 386 -12 q 148 -1 206 -12 q 49 29 90 10 l 78 125 q 165 94 118 106 q 261 82 213 82 q 360 104 324 82 q 397 178 397 126 q 365 241 397 222 q 274 278 333 260 l 231 292 q 97 365 140 321 q 53 478 53 408 q 71 554 53 519 q 120 613 89 589 q 194 649 151 636 q 289 663 238 663 q 390 653 338 663 q 489 624 442 644 l 461 531 m 199 -160 q 222 -108 199 -131 q 275 -85 244 -85 q 329 -108 307 -85 q 351 -160 351 -131 q 329 -215 351 -192 q 275 -237 307 -237 q 222 -215 244 -237 q 199 -160 199 -192 z "},"Ṭ":{"ha":696,"x_min":14,"x_max":683,"o":"m 683 875 l 683 767 l 410 767 l 410 0 l 282 0 l 282 767 l 14 767 l 14 875 l 683 875 m 267 -174 q 290 -121 267 -144 q 344 -97 314 -97 q 399 -121 376 -97 q 422 -174 422 -144 q 399 -229 422 -206 q 344 -253 376 -253 q 290 -229 314 -253 q 267 -174 267 -206 z "},"ṭ":{"ha":506,"x_min":28,"x_max":472,"o":"m 438 561 l 246 561 l 246 182 q 270 117 246 133 q 333 100 294 100 q 394 106 361 100 q 453 121 428 113 l 472 28 q 401 8 444 17 q 311 0 358 0 q 169 42 214 0 q 125 165 125 85 l 125 561 l 28 561 l 28 653 l 125 653 l 125 861 l 246 861 l 246 653 l 438 653 l 438 561 m 204 -160 q 227 -108 204 -131 q 281 -85 250 -85 q 335 -108 313 -85 q 357 -160 357 -131 q 335 -215 357 -192 q 281 -237 313 -237 q 227 -215 250 -237 q 204 -160 204 -192 z "},"Ṯ":{"ha":696,"x_min":14,"x_max":683,"o":"m 683 875 l 683 767 l 410 767 l 410 0 l 282 0 l 282 767 l 14 767 l 14 875 l 683 875 m 518 -140 l 518 -226 l 178 -226 l 178 -140 l 518 -140 z "},"ṯ":{"ha":506,"x_min":28,"x_max":472,"o":"m 438 561 l 246 561 l 246 182 q 270 117 246 133 q 333 100 294 100 q 394 106 361 100 q 453 121 428 113 l 472 28 q 401 8 444 17 q 311 0 358 0 q 169 42 214 0 q 125 165 125 85 l 125 561 l 28 561 l 28 653 l 125 653 l 125 861 l 246 861 l 246 653 l 438 653 l 438 561 m 468 -140 l 468 -226 l 128 -226 l 128 -140 l 468 -140 z "},"Ẏ":{"ha":726,"x_min":14,"x_max":726,"o":"m 154 875 l 372 483 l 592 875 l 726 875 l 431 367 l 431 0 l 303 0 l 303 367 l 14 875 l 154 875 m 286 1088 q 309 1140 286 1117 q 363 1163 332 1163 q 417 1140 394 1163 q 439 1088 439 1117 q 417 1033 439 1056 q 363 1010 394 1010 q 309 1033 332 1010 q 286 1088 286 1056 z "},"ẏ":{"ha":640,"x_min":13,"x_max":631,"o":"m 13 653 l 143 653 l 282 279 l 329 124 l 332 124 l 379 279 l 506 653 l 631 653 l 379 -56 q 274 -240 338 -174 q 124 -337 211 -307 l 71 -240 q 187 -168 136 -215 q 265 -37 238 -121 l 278 0 l 13 653 m 243 865 q 266 917 243 894 q 319 940 289 940 q 374 917 351 940 q 396 865 396 894 q 374 810 396 833 q 319 788 351 788 q 266 810 289 788 q 243 865 243 833 z "},"·":{"ha":257,"x_min":47,"x_max":210,"o":"m 47 460 q 71 522 47 496 q 131 547 94 547 q 186 522 163 547 q 210 460 210 496 q 186 399 210 425 q 131 374 163 374 q 71 399 94 374 q 47 460 47 425 z "},"⁰":{"ha":547,"x_min":32,"x_max":515,"o":"m 281 1192 q 385 1169 340 1192 q 458 1106 429 1146 q 501 1013 488 1067 q 515 899 515 960 q 449 689 515 767 q 271 611 383 611 q 177 631 221 611 q 101 688 133 650 q 50 778 68 725 q 32 899 32 832 q 100 1115 32 1038 q 281 1192 168 1192 m 131 900 q 169 743 131 796 q 274 690 207 690 q 383 740 349 690 q 417 899 417 790 q 385 1056 417 999 q 276 1114 354 1114 q 168 1065 206 1114 q 131 900 131 1015 z "},"¹":{"ha":367,"x_min":31,"x_max":274,"o":"m 203 1182 l 274 1182 l 274 618 l 178 618 l 178 1079 l 53 1022 l 31 1103 l 203 1182 z "},"²":{"ha":439,"x_min":21,"x_max":397,"o":"m 194 1111 q 133 1103 163 1111 q 64 1071 103 1094 l 21 1139 q 106 1179 63 1167 q 197 1192 149 1192 q 345 1142 293 1192 q 397 1017 397 1093 q 363 903 397 964 q 236 772 329 843 l 140 699 l 397 699 l 397 618 l 38 618 l 22 688 l 135 783 q 209 849 178 819 q 260 906 240 879 q 290 960 281 933 q 300 1014 300 986 q 272 1084 300 1057 q 194 1111 243 1111 z "},"³":{"ha":411,"x_min":14,"x_max":385,"o":"m 29 1160 q 110 1185 74 1179 q 182 1192 146 1192 q 253 1181 219 1192 q 311 1149 286 1169 q 351 1101 336 1129 q 365 1039 365 1074 q 256 908 365 940 l 256 906 q 349 860 314 894 q 385 775 385 826 q 367 703 385 733 q 319 651 349 672 q 251 621 290 631 q 171 611 213 611 q 89 618 135 611 q 14 636 43 625 l 36 711 q 105 695 76 699 q 169 692 133 692 q 249 715 214 692 q 283 783 283 739 q 256 840 283 815 q 160 864 228 864 l 78 864 l 78 939 l 139 939 q 235 965 204 939 q 267 1031 267 990 q 235 1095 267 1076 q 165 1114 203 1114 q 111 1108 139 1114 q 56 1090 83 1103 l 29 1160 z "},"⁴":{"ha":525,"x_min":25,"x_max":497,"o":"m 297 1182 l 403 1182 l 403 833 l 497 833 l 497 760 l 403 760 l 403 618 l 310 618 l 310 760 l 25 760 l 25 821 l 297 1182 m 264 1013 l 128 833 l 310 833 l 310 1013 l 315 1090 l 313 1090 l 264 1013 z "},"⁵":{"ha":458,"x_min":31,"x_max":417,"o":"m 396 1185 l 396 1107 l 160 1107 l 144 975 q 174 979 157 978 q 210 981 190 981 q 364 933 311 981 q 417 810 417 885 q 399 727 417 764 q 350 665 382 690 q 274 625 318 639 q 179 611 231 611 q 100 616 135 611 q 31 636 65 621 l 53 715 q 107 698 81 704 q 181 692 133 692 q 283 725 247 692 q 318 806 318 758 q 279 883 318 858 q 174 908 240 908 q 114 904 138 908 q 60 893 90 900 l 86 1182 l 396 1185 z "},"⁶":{"ha":488,"x_min":32,"x_max":456,"o":"m 129 942 q 190 989 153 974 q 264 1004 228 1004 q 403 952 351 1004 q 456 817 456 900 q 402 670 456 729 q 249 611 349 611 q 167 626 207 611 q 98 675 128 642 q 50 760 68 708 q 32 883 32 811 q 51 1022 32 964 q 104 1118 69 1081 q 188 1174 139 1156 q 297 1192 238 1192 q 358 1185 331 1192 q 418 1169 386 1179 l 394 1090 q 350 1107 371 1101 q 300 1113 329 1113 q 172 1063 215 1113 q 126 943 128 1014 l 129 942 m 126 831 q 158 730 126 768 q 253 692 190 692 q 331 726 306 692 q 357 813 357 760 q 324 899 357 871 q 239 926 292 926 q 181 914 208 926 q 139 878 154 901 q 130 859 133 869 q 126 831 126 849 z "},"⁷":{"ha":431,"x_min":25,"x_max":414,"o":"m 414 1182 l 414 1114 l 151 603 l 68 639 l 321 1100 l 25 1100 l 25 1182 l 414 1182 z "},"⁸":{"ha":475,"x_min":33,"x_max":442,"o":"m 144 910 q 70 969 88 935 q 53 1039 53 1003 q 65 1095 53 1068 q 99 1144 76 1122 q 158 1178 122 1165 q 239 1192 193 1192 q 324 1178 289 1192 q 383 1143 360 1165 q 416 1094 406 1121 q 426 1039 426 1067 q 407 969 426 1001 q 328 914 388 938 l 328 911 q 415 855 389 892 q 442 776 442 818 q 389 658 442 704 q 236 611 336 611 q 153 624 190 611 q 90 658 117 636 q 48 708 63 679 q 33 771 33 738 q 57 853 33 819 q 144 907 81 888 l 144 910 m 144 1039 q 240 946 144 971 q 313 983 292 960 q 333 1039 333 1007 q 310 1092 333 1071 q 239 1114 288 1114 q 167 1092 190 1114 q 144 1039 144 1071 m 238 875 q 157 838 182 864 q 132 778 132 813 q 156 719 132 746 q 239 692 181 692 q 318 717 292 692 q 344 779 344 743 q 317 840 344 814 q 238 875 290 867 z "},"⁹":{"ha":485,"x_min":32,"x_max":453,"o":"m 357 860 q 296 814 333 829 q 222 799 258 799 q 148 812 182 799 q 88 849 114 825 q 47 910 61 874 q 32 992 32 946 q 46 1072 32 1035 q 87 1135 60 1108 q 153 1176 114 1161 q 243 1192 193 1192 q 324 1176 286 1192 q 391 1129 363 1161 q 436 1047 419 1097 q 453 924 453 996 q 381 687 453 763 q 186 611 310 611 q 127 615 158 611 q 72 629 96 619 l 92 708 q 142 694 117 699 q 192 690 168 690 q 262 704 232 690 q 312 742 292 718 q 344 795 332 765 q 361 858 357 825 l 357 860 m 356 982 q 349 1030 356 1007 q 327 1071 342 1053 q 290 1100 313 1089 q 238 1111 268 1111 q 160 1079 189 1111 q 131 994 131 1047 q 161 906 131 936 q 244 876 192 876 q 307 890 281 876 q 346 926 333 904 q 354 952 353 938 q 356 982 356 967 z "},"⁽":{"ha":289,"x_min":42,"x_max":261,"o":"m 260 1254 q 203 1169 226 1208 q 166 1088 181 1129 q 145 1002 151 1047 q 139 900 139 957 q 166 712 139 799 q 261 540 193 625 l 213 496 q 87 678 132 579 q 42 899 42 776 q 88 1119 42 1021 q 214 1299 133 1217 l 260 1254 z "},"⁾":{"ha":289,"x_min":28,"x_max":247,"o":"m 29 540 q 85 626 63 586 q 123 706 108 665 q 144 792 138 747 q 150 894 150 838 q 123 1083 150 996 q 28 1254 96 1169 l 76 1299 q 202 1117 157 1215 q 247 896 247 1018 q 201 676 247 774 q 75 496 156 578 l 29 540 z "},"₀":{"ha":547,"x_min":32,"x_max":515,"o":"m 281 351 q 385 328 340 351 q 458 266 429 306 q 501 173 488 226 q 515 58 515 119 q 449 -151 515 -74 q 271 -229 383 -229 q 177 -210 221 -229 q 101 -153 133 -190 q 50 -62 68 -115 q 32 58 32 -8 q 100 274 32 197 q 281 351 168 351 m 131 60 q 169 -97 131 -44 q 274 -150 207 -150 q 383 -100 349 -150 q 417 58 417 -50 q 385 216 417 158 q 276 274 354 274 q 168 224 206 274 q 131 60 131 175 z "},"₁":{"ha":367,"x_min":31,"x_max":274,"o":"m 203 342 l 274 342 l 274 -222 l 178 -222 l 178 239 l 53 182 l 31 263 l 203 342 z "},"₂":{"ha":439,"x_min":21,"x_max":397,"o":"m 194 271 q 133 263 163 271 q 64 231 103 254 l 21 299 q 106 339 63 326 q 197 351 149 351 q 345 302 293 351 q 397 176 397 253 q 363 63 397 124 q 236 -68 329 3 l 140 -142 l 397 -142 l 397 -222 l 38 -222 l 22 -153 l 135 -57 q 209 9 178 -21 q 260 66 240 39 q 290 119 281 93 q 300 174 300 146 q 272 244 300 217 q 194 271 243 271 z "},"₃":{"ha":411,"x_min":14,"x_max":385,"o":"m 29 319 q 110 345 74 339 q 182 351 146 351 q 253 340 219 351 q 311 309 286 329 q 351 261 336 289 q 365 199 365 233 q 256 68 365 100 l 256 65 q 349 20 314 54 q 385 -65 385 -14 q 367 -137 385 -107 q 319 -189 349 -168 q 251 -219 290 -210 q 171 -229 213 -229 q 89 -222 135 -229 q 14 -204 43 -215 l 36 -129 q 105 -145 76 -142 q 169 -149 133 -149 q 249 -125 214 -149 q 283 -57 283 -101 q 256 -1 283 -25 q 160 24 228 24 l 78 24 l 78 99 l 139 99 q 235 124 204 99 q 267 190 267 150 q 235 255 267 236 q 165 274 203 274 q 111 268 139 274 q 56 250 83 263 l 29 319 z "},"₄":{"ha":525,"x_min":25,"x_max":497,"o":"m 297 342 l 403 342 l 403 -7 l 497 -7 l 497 -81 l 403 -81 l 403 -222 l 310 -222 l 310 -81 l 25 -81 l 25 -19 l 297 342 m 264 172 l 128 -7 l 310 -7 l 310 172 l 315 250 l 313 250 l 264 172 z "},"₅":{"ha":458,"x_min":31,"x_max":417,"o":"m 396 344 l 396 267 l 160 267 l 144 135 q 174 139 157 138 q 210 140 190 140 q 364 92 311 140 q 417 -31 417 44 q 399 -113 417 -76 q 350 -176 382 -150 q 274 -215 318 -201 q 179 -229 231 -229 q 100 -224 135 -229 q 31 -204 65 -219 l 53 -125 q 107 -142 81 -136 q 181 -149 133 -149 q 283 -115 247 -149 q 318 -35 318 -82 q 279 43 318 18 q 174 68 240 68 q 114 64 138 68 q 60 53 90 60 l 86 342 l 396 344 z "}}}
